<svg xmlns="http://www.w3.org/2000/svg" width="363.075" height="599.984" viewBox="0 0 363.075 599.984">
  <g id="sri_lanka" data-name="sri lanka" transform="translate(0.075 0.075)">
    <g id="Sri_Lanka-2" data-name="Sri Lanka">
      <path id="Path_2237" data-name="Path 2237" d="M504.81,372.367l11.619,8.07-4.454-11.756-2.153-2.365-15.584-6.052,2.852,5.427Zm7.376-92.1,8.487-1.669-8.207-7.513-3.689-9.6-2.227-.554-1.808,1.6-1.6,3.062,1.808,4.381Zm284.718,362-6.611-21.7-5.077-5.636-10.435-24.9-6.469-9.253-1.115-4.1.14-4.731-2.018-6.4-33.6-52.242-2.018-4.452-.487-10.5-8.21-33.528-5.566-6.33-8.207-1.81-6.677-3.339-1.741-6.816v-9.182l-3.2-8.347-26.855-42.017-5.214-3.755-6.054-2.3-3.824-8.208-2.714-9.53L623.973,319.64,576.111,276.79,558.1,252.861l-9.88-2.089-14.05.419-13.148-.836-1.948,3.131-1.392,7.791,3.827,6.679,9.459,7.652,29.219,5.981,17.944,9.739,6.331,10.5-8.21.069-6.746,2.365-8.626-4.591L552.321,293l-15.3-6.192,4.311,19.339,1.951,19.616-1.741,18.156-3.895,17.738-17.18,30.537.208,8.209,2.85,16.347.14,7.652-10.57,43.476-1.88,16.695-1.532,39.442-3.27,4.938-4.8-4.729-1.6-38.122L495.7,503.492l.069,18.086,8.766,41.806,5.7,32.835L523.8,713.569l13.358,37.98,9.392,34.226,13.216,32.764L584.042,840.8l31.582,9.392,31.093-4.592,33.25-16.972,45.287-17.947L735.2,804.9l34.223-28.591,9.807-13.426,7.029-15.929,6.121-22.051,5.005-22.537,1.465-18.5Z" transform="translate(-494.239 -250.355)" fill="#00b8cc" stroke="#f9f9f9" stroke-linecap="round" stroke-linejoin="round" stroke-width="0.15" fill-rule="evenodd"/>
    </g>
    <circle id="Ellipse_126" data-name="Ellipse 126" cx="7" cy="7" r="7" transform="translate(205 460.917)" fill="#de6e6e"/>
    <circle id="Ellipse_137" data-name="Ellipse 137" cx="7" cy="7" r="7" transform="translate(127 574.917)" fill="#de6e6e"/>
    <circle id="Ellipse_139" data-name="Ellipse 139" cx="7" cy="7" r="7" transform="translate(18 389.917)" fill="#de6e6e"/>
    <circle id="Ellipse_141" data-name="Ellipse 141" cx="7" cy="7" r="7" transform="translate(73 334.917)" fill="#de6e6e"/>
    <circle id="Ellipse_140" data-name="Ellipse 140" cx="7" cy="7" r="7" transform="translate(11 252.917)" fill="#de6e6e"/>
    <circle id="Ellipse_138" data-name="Ellipse 138" cx="7" cy="7" r="7" transform="translate(122 357.917)" fill="#de6e6e"/>
    <circle id="Ellipse_135" data-name="Ellipse 135" cx="7" cy="7" r="7" transform="translate(160 428.917)" fill="#de6e6e"/>
    <circle id="Ellipse_136" data-name="Ellipse 136" cx="7" cy="7" r="7" transform="translate(137 387.917)" fill="#de6e6e"/>
    <text id="Uva_Central_Region" data-name="Uva &amp; Central Region" transform="translate(221 472.917)" fill="#1f1f1f" font-size="14" font-family="Avenir-Heavy, Avenir" font-weight="800"><tspan x="0" y="0">Uva &amp; Central Region</tspan></text>
    <text id="Down_South" data-name="Down South" transform="translate(145 586.917)" fill="#1f1f1f" font-size="14" font-family="Avenir-Heavy, Avenir" font-weight="800"><tspan x="0" y="0">Down South</tspan></text>
    <text id="Negombo" transform="translate(36 401.917)" fill="#1f1f1f" font-size="14" font-family="Avenir-Heavy, Avenir" font-weight="800"><tspan x="0" y="0">Negombo</tspan></text>
    <text id="Kurunegala" transform="translate(91 346.917)" fill="#1f1f1f" font-size="14" font-family="Avenir-Heavy, Avenir" font-weight="800"><tspan x="0" y="0">Kurunegala</tspan></text>
    <text id="Chilaw" transform="translate(29 264.917)" fill="#1f1f1f" font-size="14" font-family="Avenir-Heavy, Avenir" font-weight="800"><tspan x="0" y="0">Chilaw</tspan></text>
    <text id="Matale" transform="translate(141 369.917)" fill="#1f1f1f" font-size="14" font-family="Avenir-Heavy, Avenir" font-weight="800"><tspan x="0" y="0">Matale</tspan></text>
    <text id="Central_Province" data-name="Central Province" transform="translate(178 440.917)" fill="#1f1f1f" font-size="14" font-family="Avenir-Heavy, Avenir" font-weight="800"><tspan x="0" y="0">Central Province</tspan></text>
    <text id="Kandy_District" data-name="Kandy District" transform="translate(155 399.917)" fill="#1f1f1f" font-size="14" font-family="Avenir-Heavy, Avenir" font-weight="800"><tspan x="0" y="0">Kandy District</tspan></text>
  </g>
</svg>
