<svg xmlns="http://www.w3.org/2000/svg" width="800.052" height="332.15" viewBox="0 0 800.052 332.15">
  <g id="indonesia" transform="translate(0.075 0.075)">
    <path id="Path_2336" data-name="Path 2336" d="M1009.031,584.316l-.044-1.831-.212-.044-.354.274-1.344.628-2.282,2.406-1.565,1.15-3.856,1.256-.566.973-.018,1.733.5.212,1.619-.009,1.035-.646,3.759-1.389,1.857-2.132,1.945-.929-.044-.566Zm-26.093-2.538-1.344,1.353-1.672.955.345.345,1.8.566.893-.23,1.813-1.22.425-1.61-.823-.274Zm28.684-5.175-.549-.725-1.159.619-1.362,1.831-.115,1.451,1.628-.69-.071-1.495,1.645-.655Zm-48.063-5.4-1.026-1.911-1.2-1.725-.831-.884-1-.566-1.38.186-1.274-.142-.5-.876-.08-1.194-.416-.717-2.716-1.716-.716-.884-.593-1.053-.521-.4-1.672,1.149-1,.416-3.087-.557-3.343.345-2.22-.053-1.937.345-2.769,1.1-.69.628-.69.938.248,1.052.468.937.513.964.69.743,4.714,1.282.938-.009.955-.212,2.247.257,3.458,2.839,1.972.973,1.053,1.442.805,1.645,1.486,1.521,1.849.832,2.379.425.725.6,2.229-1.159,1.38-.15,1.026-.416,2.008-1.937.6-1.406-.708-1.583Zm77.808-17.752-2.3,1.194-.619-.212L1038.1,554l.257-1.76-.6.513-3.29,1.84-1.167,1.088-1.282.76-2.326.69-.177.955-.557,1.495-.7.7-1.079,1.265-.663.283-2.547-.283-.345.186-.433-.133-.593-.814-.23-.663-1.07.619-1.866,1.583-3.157,3.193-.9,1.787-.734,2.618-1.017,2.538.1.956,1.928,1.256-.539.99-.787.77-.672.929-.256,1.088.611.8,1.733.716,1.919-.071,2.053-.955,3.741-2.2,2.645-.274,1.786-.416,1.5-1.23,1.778-1.84,1.981-1.557,2.565-3.051,2.256-1.857.77-1.981,1.3-1.052-.4-2.565-.549-1.106-.451-.628-.105-.778.088-.805.328-.38,2.149-.1.947-1.318.115-1.592-.389-.531Zm-165.682-6.483-1.105.787.318.54,1.336,1.212.531-.672.132-1.123-.849-.849Zm130.151-4.484-1.414.964-.557.664-.354,1.114.982.336.637-1.168.982-.99,2.167-.38-.239-.371-.823-.336Zm-60.587,2.786.38-.708.079-.69-.133-.708-.779-.035-.345-.159-.168-.345-.38-.522-.318.513-.292,1.663-.778.929.318,1.2-.407,1.751.663.283.7-.186-.256-1.362.734-.858Zm66.053-4.635.434-1.689-2.017-.663-1.477.362-.469.416-1.407,1.239-.2,1.141,4.723.062Zm-114.5.637-.2-1.008-.5-.628-.681-.425-4.166-1.548-1.734.672-1.538,1.123-2.946,2.813.071,3.432-.2,2.636-.8.4-2.026-.141-.769-.3-.266.893.248.743,2.582.937,3.644.769.885-.115,1.485.451,3.7-.849-.425-.628-.743-.654,2.477-4.086Zm126.534,1.123.7,2.132,1.433-.4.7-.646.867-2.123,1.15-1.221.442-1.99-.274-.4-.363-.133-.46.027-2.458,3.176-.248-.159-.416-.752-.956.017-.787.7-.884,1.866Zm-8.234,2.423.495-.425.168-.416-.062-.442.194-.469.725-1.1,1.194.044,1.663-2.468,2.486-.539-.452-.654-.849-.5-1.176-.46-3.184,2h-.478l-.716-.522-.991.044-1.441.256.035.4.513.257.867.177-.416.619-2.371,1.681-1.769,1.813.389.15,1.335-.053,1.336,1.009.416-.213,1.017-.858Zm265-7.766-1.539.513-1.07,1.371-1.061.8.026.425.407.814,4.325.593.884-.257.124-1.008-1.513-3.237ZM910.729,540.9l.4-.018,2.184-3.511-.017-.814-2.07.071-1.008.628-.221,1.1.328,1.344-.319.823Zm27.154-4.5-.752.354-.328.831.107.787.761-.026.593-.3.521-.522-.088-.389-.477-.752Zm101.61.513-2.981-.124-1.318.159-1.388.672-.337-1.2-1.159-.106-1.424.938-.734,1.38.5.849-1.354,1.778.4.574,1.062.584,11.472-1.813.646-.522.044-2.406-1.256-.5Zm53.493-.531-2.989-.8-.673.424.5,1.38,3.432,1.282,1.777-1.672-.3-.707Zm-91.332,9.332.672-.319.5-.663-.5-1.6,1.672-1.273.425-.7.583-.531.911-.5-.239-3.5-1.008-.911-1.221-.239-.973.655-.663,1.167,2.742.717-1.3,1.628-1.813.964-2.618.973-.867.575-.787.752-.584.867-.363,1.044-.628.672-1.955.549-1.043-.071-3.229-2.53-.778-.487-.911-.336-.991.531-.867.239-2.026.247-1.105-.017-1.3.407-1.15.964-.876.195-.929-.142-1.221-.531-1.565-1.442-2.681-1.07-1.822-1.15-2.079-.77-2.335-.1-.708-.274-1.645-1.327-1.115.38-1.088.124-1.026-.336-1.247.177-2.176.628-2.415,1.734-2.432,1.141-.8.195-.725-.5-.221,1.053-.389.982-.575.946-.266,1.035-.088,1.477.5,1.3.593.867.451.991,1.858-.937,1.937-.655,3.388.849,4.042-.363,3.945.929,3.379,1.566.911.141.9-.186.92-.425.938-.177,2.361.425,1.645-2.017,1.477-.053,1.469.168.593.654.459.885,1.548-.557,1.76-.195,4.6-2.282,1.618-.292,2.344.159,1.672-.071.938-.177,1.512-.885,1.574-.664ZM1145.6,535.43l-3.5,3.547-1.124,1.557,1.557-.61.9-1.442,2.406-.663,2.424-1.61-1.539-.124ZM931.444,548.9l-.133-.752,1.344-.46,1.442-.186.61.2.522.557.593.168,1.282-.38.469-.407.5-.823-.443-.787-.636-.566-.3-.77.168-2.052-.814-2.353-1.026-.787-1.389-.1-.911.256-.831.5-.708,1.645-.354-.416-.283-1.389-.964-.841-1.026-.2-1.07.018-1.026.433-1.734,1.185-.8.079-.823-.778-.619-1-.76-2.317-.539-.548-3.37-.655-.937.23-2.026.964-.363,1.088.389,1.468.761,1.247,2.706,2.309.664.168.752-.062.672.212,1.211,1.035.973,1.265-.584,1.194-1.768-.035L917.832,548l-1.3-.46-1.521.132-1.459-2.538-.655-.38-.477-.549-.274-1.5-.911-.654-2.317.168-1.345-.124-2.238-1.07-1.017-.142-1.857,1.521-2,1.168-1.167.1-.92.478-.672,1.291-.407,1.318.221,2.884-.725,1.654-.15,1.2.283,1.008,1.38.788,1.477.592,1.76.442,1.778-.583.9-.7.955-.15,1.061.15,1.07-.035,2.122-.486,4.007-1.725h1.106l1.132.221,3.75-1.592,1.052.106,1.035-.31.8-.646,2.7-2.627.327.575-.185,2.167.451.831.893.018,3.458-.876.946-.133,1.353.646.433-.089.1-.486-.292-.354Zm-55.015-11.162-1.7-1.044-1.822-.787-2.538-.946-.637-.035-2.848,2.149-1.053.248-1.822-.088-3.635-1.088-2-.212-.513.053-.186.929.133.955.336.911,1.1,1.663.7.655,2.035.309,1.884.681,1.822,1.335,1.69,1.513.813,1.115.531,1.336-.124,1.424-.92,1.194.9.38.876-.265.469-.309.31-.434.248-.8.955-1.849.734-.946,4.06-2.008,1.849-1.3.8-.813-.177-.858Zm245.843-8.164-.822.177-.213.548L1121,532l1.946,2.432,1.149.115,1.15-1.813.168-1.291-.434-1.371Zm-50.77-2.618-1.91-1.778-2.6.708-1.893,1.362-2.574.592-2.22-.186-1.866-.672-2.494,3.025-.69,1.265-.319,2.052.495-.106,2.273-1.344,1.566-.5,1.194-.035,1.052.566,2.458.106,2.725.646.911-1.592,1.105-1.229,2.088-1.07,2.1-.31.053-.416-.168-.964Zm11.4-1.769-.442,1.459,1.149-.46.805-.513.2-.362.079-.938-1.8-.362Zm197.78,9.605,2.123-3.494,1.946-3.671-.309-2.131-.991-1.513-1.557-1.911-.531-.478-3.909-.221-4.405,1.167-2,1.124-1.893,1.4-1.406,1.486-3.458,5.74-3.06,6.519-.787,2.441.611.5,3.246-.628,1.928.044,5.413.46,4.361-2.6,1.441-1.486Zm-121.971-18.141-.963-.539-1.469.451-.557.584.009,1.1-.955.593-.717,1.274-.646.486-1.185,1.689-.928.248-.681.637-1.292,2.892-.194,1.088-.929.257-.151,1.911-.982,1.645.557,1.123-.274,1.486,1.239.018,2.14.256.3-.23.336-.354.124-.664.619-1.557,1.8-1.822.5-.911,1.486-.955.849-1.105,1.406-3.7-.592-3.4,1.689-1.38Zm.9-.46.433.54.76.3,1.071.159.663,1.132.707.522.275-.973-.911-1.928ZM856.4,515.476l-.424.336.769,1.3.867.194.309-.787-.451-1.043-.593-.142Zm248.938-.23-.894.283-.893,1.017.328.424,1.238,1.035.814-.5v-.893l.141-.486-.23-.434Zm-139.05-1,.018,1.928.539.177,1.787-.115.186-1.106-.628-.062Zm-132.328,3.821,1.486.239.283-.318.416-.009.557.221h4.733l1.344-.5,2-1.61,2.945.159.345-.292.769-1.106,3.5-1.185-.133-.575-1.627-1.716-15.8.133-3.494.4-1.831,2-.823,1.415.583,1.318Zm41.712-7.341-1.061-.026-1.99.442-.372.875-.079.929,1.273.7,1.433-.336.858-.592,2.123-.044-.345-.725-.752-.619Zm335.21-3.6-.672,1.088.018.4.416.637.31-.3,1-1.6.23-.894-.664.044Zm-511.355-1.9-.266-.734-.61.1-.593.327-1.3,1.371.345.557.814.38,1.105-.434Zm511.055-1.663.381,1.619.973-.195.265-.858-.8-.982Zm3.449-2.512-.531.858-.062.973.433-.168,1.292-2.185-.593.026Zm-8.748-.664-1.354-1.777-1.088-.982-.946.283-.142,1.274.027,3.379,1.185.654-.195.389-.54.044-.8-.195-1.2,5.873.469,1.273,1.8,1.486,2.211-1.185.629-.672,1.149-2.671,1.708-1.742.38-1.557.371-1.389-2.06-1.1ZM857.369,545.549l-.514-.876-.884-3.042-.009-1.407.159-1.4,1.327-5.1.151-2.158-.487-2.035-.442-.425-5.263-2.724-.584-.018-2.847.893-2.274.5-4.369.416-4.325-.115-4.016-1.194-3.7-2.079-.062-2.379.336-2.512-.69-.779-1.751-.867-.345-.849-.549-2.521-.7-2.45-1.813-.46-2.1-.168-3.069.2-.85-.23-1.6-1.725-4.36-.637-.831-.628-.725-.849-1.751-1-.973.071-1.751.814-.778.124-2.777-.248-.451-.354-2.476-4.025-.469-.575-2.379-.23-.9.363-.85.584-.672.9-.522,1.026-.805,2.379-1,2.273-1.186,1.813-1.7.991-.938.009-.885-.186-1.017-.513-1.07-.345-2.291.071-2.3.336-1.99-.265-4.015-1.177-1.469-.646-1.733.991-1.911.133-4.749-.982-2.061-.168-2.087-.009-1.752-.345-1.238-1.211-.929-4.21-.345-.884-1.6-1.742-1.451-1.911-.593-.416-.708.027-1.017.442-1.044.15-2.229-.389-2.132-.858-1.866-.283-1.9-.062-1.769-.654-1.486-1.2-1.654-2.255-.7-.584-2.937-.416-1.972-1.044-.7,2.061-1.45,1.283-.955.363-.92.124-2.548-1.176-1.849-.327-1.9-.089-1.875-.655-3.184-.389-1.539-.991-.823.389-1.689,1.636-1.265,1.964-1.733,6.722-.531.46-.911.354-.867-.566-.955,2.91-.522,1.07-1.8,2.184-.424.107-.938-.38-.291-.336-.195-1.707-.628.195-1.132,1.088-.575.964.159,1.132.822.106,1.035-.292,1.017.142.991.407,2.123.124,2.167-.274,1.919-.009,1.893.256,4.351,1.362,5.466,2.485-.548,1.185-.814,1.247-.62,1.238-.168,1.424.708,1.123,1.362.5,1.654.425,7.615.628,3.7.478,4.475,1.389.858.486,1.636,1.362,1.831,1.044,1.929.707,5.2,1.141,1.99.239,2.017.053,1.22-1.2.947-.566,3.016-.8,2,.018,2.229.717,3.609-.186,1.521.2,9.791,2.432,3.166,1.23,9.588,5.112,3.812,1.035,3.874.743,4.891.434,2.927.858,10.5.371,4.077.592,4.015.9,1.6.194,1.636-.265,2.229-.681,2.167-.964,2.026-.478,2.088-.035,7.394,3.777L848,544.85l3.741,1.15,2.052-.239,1.044.646.69,1.15,1.273.69,2.123.575.327-.831-.017-.84Zm168.22-52.6.548.539.575,1.079.212-.947-.416-1.406-.8-.434Zm-61.233,10.375.894-3.29.707-6.5-.194-1.291-.858-2.53-.646,1.99-.133,4.316-.362,1.68.354,1.46-.035,3.007ZM829.976,489.26l-.628-.522-.725.089-1.159,1.442.239.787,1.671.053.407-.7Zm348.187-2.061-.283-.778-1.177-.035.743,2.6-.371,2.318.186,1.114.406.009.681.672,1.168-1.9.017-1.221-1.017-2.512Zm35.017,3.326.1-1.406.177-.761-.69-2.052-.938-.425.266-.832-.159-.929-.452-1.061-.787-.221-1.133.221-.371,1.707-.628.637-2.176,3.069-1.61-.61-.752.5.319.734,1.937,1.743-.929,2.724.009.769-1.336-.026-1.265.221-.018.858.318.54,1.459,1.6.248.575,1.229,1.38,1.406,1.274,3.379.6.451-.557.4-.177.575-.655.637-1.831.23-.628.123-1.4-.044-.982-.575-1.981.813-1.327Zm-27.719-9.995-2.176,6.138-1.309,1.212-.389,2.026-1.565,4,1.512-1.7.964-3.281,2.76-3.148,1.176-4.5-.566-.593ZM647,480.106l-.778-.053-.77.716.4.752,2.52,2.424,1.424-.089.725-1.459-.557-.761Zm371.784-.354-.062.539.124.663.531.7.7.115.168-2.008-1.132-.424Zm-29.931-1.345-.265,1.053.8,1.857,1.981,2.255,1.132-.522.54-4.281-.31-1.238-.7-.354L991.5,475.9l-.9-.071-.849.468.088.964-.309.23Zm7.943,2.3.354,1.212,1.115.044.406-.938,1.38.893.8.2.769-.071,1.017-1.017.513-1.318-.416-2.574,2.733-4.051-.115-5.1-.6-1.115-.751.3-2.424,1.442-2.759,1.185-.681,1.574.831,3,.044,1.406-1.238,1.336Zm13.126-8.075.132-1.557.725-1.645.5.018.354-.177.283-.327.336.327.9,1.627.186-1.115-.212-4.246-1.831-2.317.142-.92-.637.15-1.636.946-1.787,3.467-.266,4.2-.593,2.238-.354,1.1-.23,1.035-.575,2.468-.044.646-.663,1.026-1.132,1.362-.531.991-.053.893-1.035,1.23-.08,1.106.929,2.344.681.053.885-.619,1.336.716.7-.654,1.265-2.344-.088-.822.5-.805.619-.61.309-.248.982.513,1.37-.513,1.221-1.194.31-1.176-.858-.973-1.645-1.335-.478.124-.778.46-.124-.938.425-3.458ZM1192.659,458.6l-2.415-1.751.159,1.159,2.875,1.733,2.034.823-.84-1.053Zm-177.914-3.14-.575-.849-3.246-.336-1.008.973v.619l.345,1.707,1.354,1.566,1.186.124,1.8-2.38Zm91.146-10.384-.433.5-.716,1.928,3.025-1.035-.425-.876Zm-3.263-.053-2.592,1.486-1.8.266-1.61,1.548-.062.4.123.858.743.557,1.336-1.114,1.052-.557.628-.186.195.407-.3.69.841.053,1.034-.478.478-.716.07-.822.266-.7.416-.672.309-.946Zm7,.089-1.23-.433-.186.345.54,1.513.681-.018.937.292.133-.265.079-.832-.486-.442Zm-215.116.442,1,1.928.752-3.4.1-1.282-.567.469Zm197.161-3.547-.371-.876-.858-1.2-.425.151-.76.522.726.849ZM894.012,449.1l-.265-3.627.256-.787-.124-.911-.381-1.07.23-2.839-.539.186-2.176,1.565-1.026,2.335-.823,3.052-.133,1.725.929,2.326-.46,3.733.566.938,3.8-3.671-.212-.937.557-1.141Zm189.554-7.518-.654-.531-.531-.664-.469-1.194-.619-1.008-2.813-1.539-.9-.371-4.414-.079-4.369.752-1.54.893L1065,437l-.681.451-.442.832-.009,3.662.345,1.292,1.5,2.008.5,1.115.61.513,3.343,2.079,2.309,1.2,2.4,1.026.946-.195.955-.486,1.327-.124,1.255-.363,2.583-1.849,1.247-.46,1.309-.283.381-3.2-.23-1.574Zm14.665-7.925-.867.309-1.858,1.035.266.23,1.53.08Zm-370.4-.071.1.549.416.513.681.548.964.212.3-.389.469-1.406-1.964-.7Zm12.029-.15.726-.5.486-1.079-.433-.2-.964.062-.309.69.106.548Zm406.757,18.406,1.2-5.67-.221-.734-1.168-2.256-.955-.15-.8-.389-.451-1.574-.212-1.654-.9-1.919-3.22-2.8-1.309-.212-3.5.283-2.061-.318-3.927-2.194-2.654-1.176-.991-.31-1.017-.088-1,.1-1,.584-1.645,1.353-1.857.875-1.017.071-.708-.823-.247-1.123-1.159-.194-1.415.416-2.1.142-3.839-.283-6.492.469-1.53,1.353-4.307,5.678.283,1.185.5,1.167-.045,1.106-.522,1.955.31.186.911-1.212,1.123-2.052.274-.734.257-1.283.495-1.07.894-.531.832.283.893.61.787.752,2.3,3.458.8.478.875.177,2.141-.31.69-.725,1.371-1.893.911-.69,1.079-.61,1.1-.106.557.23.088.6-.23.646.248.434,2.423.451,1.787.858,2.1.318,2.317.885.956-.389.035-1.388-.132-.69.592-.186,1.425-.035,3.785.195,1.849,1.274.451.929.637.708,4.281,2.07,1.592.9,3.679,2.441Zm-531.991-21.21-.823.044-.345.69.345,3.281.929,1.388,1.229,1.106.257.9-.08,1.389,2.026,1.964-.619-2.875.177-.823.54-.478.123-1.539-.23-.734Zm127.861,3.113.115.708.01,1.61.69,1.309-.443,1.672.8-.071,2.848-.884.3-1.265.38-.2,1.424.84.433.743.142,1.088,1.353.1.513-.628,1.495-1.026.451-.787.328-2.078,1.548-3.317-1.238-2.618-2.4-1.982-3.467-.734-.628-.584-3.007.716-.522,3.264-.8,1.344.089,1.247-.761,1.132Zm-128.569-5.156-3.229-3.343-.424.3-.363,1.353-.027.31.486.778-.151,2.379.381.991,2.052.026,1.282-1.583Zm596.187-10.977.823-1.424-.478-.416-.372-.062-.336.186-.309,1.15.159.867Zm-602.741,3.175-1.362-2.105-.8-2.264-1.106-.92-.876.177-.186.5-.079,1.265-.389.911,1.167,1.9,1.353.478,2.8,1.733-.071-.522ZM1063.5,414.7l-.7-.018-.893,1.2-.2.814.628,2.866.575.8.619,3.016,1.008,1.07.309-.363.239-1.689-1.451-3.9.373-3.087Zm-37.962-1.928-.124.8.416,1.495,1.088.026-.283-.8Zm35.83.548,2.044.212,5.811-1.141.779-.717-5.342-.654-5.316.477-3.467-.256-1.336.159-1.017.681.654.769.089,1.106.814.035Zm-47.045-2.636-.549.283-.371.557-.284.787.115.867,1.327-1.627Zm117.6,4.219,3.583.831.681.7,2.008-.319.645-.752.973-.549.583.2.814-.407-.425-.593-.2-.769L1141,413l.407-1.681-1.017-1.088-.185-1.168-.619.027-2.079.8-1.636-.035-1.964.566-4.52,2.132.274.54Zm-80.621-4.254-1.061.185-.133-1.327-.725-.4-.337.133-.557.814-.574.009-1.619-.708-5.3-1.371-3.158.168-1.15.292-.655.557-.963,3.388,1.468,2.883,1.787.035,2.087-.566,3.441-1.654,2.98.964,2.265-1.07,3.13-.23.142-1.327-.257-.318Zm190.916-2.282-3.918-.389-1.875.133-6.864-.991-.089.477.284,1.035,6.563,1.654,3.158,1.415,2.486.69.6.681,1.725-.416,2.335.354,2.822-.345,1.53-.7,3.228-.743-1.3-.911-1.707-.389-5.732-.247Zm-477.25.124,2.026-.823.079-1.1-1.38-.478-1.291.548Zm-62.011,8.942.876.212,3.679-.911.8.478,1.84.584,1.38.964.31,2.485.92,2.132.77.725.531.814-.619,2.963.46,1.973,1.026,1.609,2.2.6,2.14.761,1.565,1.079.964.354.875.548.805.69.866.522,1.105.31.991.009-.133-1.4-.636-1.282-.1-.8,1.273-3.785.513-.911.672-.787,1.318-.876-7.837-2.149L718.9,418.9l-.69-6.351-.575-1.318-.8-1.221-.575-1.362-.292-1.5-.8-1.07-1.229-.672-1.636.018-1.672.549.549,2.467-.964,1.424-.557-1-.451-1.38-.929-1.654-2.211.955-.832.716-.707.911-.168.937.371.9-.23,1.238-1.044.938-2.2,1.106-.955,1.106-.1,1.38,1.972.725Zm319.414-8.093.363-1.521-.583-.716-.345-.778-.213-.858-.345-.106-.743.637-.132,2.892.8.575Zm69.122.478,3.149-.743,3.016-.115,2.556.539.539-.221,1.088-.8-.053-1.123-1.99-1.424L1097.6,404.1l-2.795-1.557-1.672-.548-.964.363-2.388,2.025-1.132,2.689-.08,1.088,1.123,1.026Zm-69.856-7.721-.336-1.017-.646-.531-.946-.442-1.69.345-1.8,2.671-.663-2.008.646-1.07-.362-1.229-.938-.274-3.246.628-1.124-.141-1.353,1.99-.425,2.945.787,2.291.539.77,1.672-1.5,2.167-3.379.8-.7.5,3.724-1.071,1.247.124.425.725.761.841-.354.3-.416.707-2.76.938.115.637,1.265,1.433-.168,1.124-1.017Zm-242.924-7.076-2.414.124-.46,1.159-.442,3.892.61.716.823.106,3.5-2.017.717-.708.186-.787-.283-1.291-.76-.637Zm441.313,3.06.841-.354.565-1.619-.69-.071-.265-1.017-.885-.8-1.079.8-.354,1.168.9,1.512Zm-622.942,8.394-1.353-2.309.177-.469-.194-.681-.46-.867-.61-1.963-1.884-3.644-.362-2.016-1.106-.761-3.379,1.088-1.344,4.484.424,1.256,3.229,5.466.177,1.415.8,1.061,3.406,2.37,1.6-.115,1.893-.779-.036-2.185Zm549.6-8.978.452,1.345.725,1.636,1.07,1.221,2.114.513.619-.548.823-2.512.548-4.343-.7-1-1.636-.044-.726-.5-3.936,1.38-.088.478.61,1.309Zm-4.706-4.29-.645.725,7.518-1.2.831-.681.46-1.008-1.716-.248.106.964-1.583.168-1.531-.212-.725.3-.425-.1-.371.088-.372.221-.743-.1-.478.363Zm87.113-2.335.9.637.133-.318.575.044,2.1,1.866,1.778-1.159,1.318,4.051.194,1.8,1.318,1.167,1.521-.168,1.866.929.956-.044,2.468-.823,1.238-1.557-1.6-.584L1241.65,395l-1.468-1.982-3.025-3-.9-.283-1.618.416-1.309-.876-1.354.044-3.706-.778.071,1.061ZM1085.7,387.916l-.947,2.795.487.283,1.813.522.2-.407.018-.451-.725-2.662Zm59.623-1.787,1.017-1.176-.477-.646-.707-.38-.328.018-.584.451-.663.15-1.061.752,1.8.858Zm-154.838-2.406-1.353,1.415-.3.938.452-.027.716-.593.593-.08,1.583-.018.6.257.451-1.017-.734-.876-1.168.212Zm330.452,43.437-.4-1.955-.8-.708-.866-.522-5.7-.5-.76-.168-.787-.716-.849-.5-5,.124-1.37-.159-5.281-2.689-3.927-2.229-1.778-1.185-1.884-.928-2.079-.478-1.857-.991-1.274-1.424-1.477-1.07-9.314-3.459-1.768-1.176-1.654-1.433-1.832-.018-3.343,1.636-4.175,2.361-3.618,2.3-.938.769.009.8.832,1.813-.115,1.035-1.769,1.565-4.042,1.831-4.042.522-3.909.973-.681,1.026-.937,1.981-.646,2.052-.5,1.053-4.113,2.989-.407.593-1.229,2.76-1.238,1.8-4.184,3.768-1.229,1.636-1.353,1.5-2.034.592-2.088-.124-2.76-.4-.937-.31-2.035-1.636-.495-.8-.512-2.017.141-2.539-.159-1.38-1.309.69-1.167-.2-.769-4.5.008-2.291-.274-1.044-1.035-.522-.866.495-.637.938.053,2.591-.628,2.335-1.566-4.175-2.715-6.156-.619-2.246-.159-2.22.106-2.256-.186-2.45-.38-2.441.733-1.981,1.292-1.8.371-1.088.433-2.193-.194-1.035-.991-2.123-1.22-1.99-.743-1.981.292-2.061.442-1-1.495-1.521-.876-.5-2.158-.256-2.211.194-4.378-.3-3.547-1.778-3.317-2.45-3.83-1.866-4.033-1.15-2.043-.23-1.991.159-4.643,1.946-.77.734-.68.9-1.459.9-1.265,1.468-1.521.929-6,1.539-2.892,1.017-.682.433-.106.823.106,1.1-.1,1.07-1.15,3.14-.7,1.044-1.079.566-.787.725-.823,1.972-.106.8,1.052.451,1.061.15,1.071-.142,1.088-.362.937-.716,7.572,2.919,1.707.3,1.751.062.036,3.069.981,4.29.407,1.141.964.849.7,1.168,1.442,1.645,1.707,1.318,1.672-.044,1.742-.433,2.229.557,4.033.469,1.734.044,4.608-1.141,2.291.018,2.282.195,3.91-.716,3.732-1.716-.044.893-.336.716-.946.708-1.061,1.46,1.875.212.053,1.707-.5.478-.751.132-1.442.575-.8,1.84-.239,1.592-.831-.478-.717-1.052-1.424-.106-1.99-.549-2.521-1.176-1.274-.327-1.265.248-1.513.734-2.485,3.37-3.1,2.583-1.238-.451-1.327-.769-4.369-.849-1.61-.08-2.91,1.566-1.69.575.566,1.336.787,1.15.832.3,2.653.274,1.6.619,3.467,3.078,3.326,3.237,1.265,2.335.583,2.724-2.14,3.007.531,2.459.7,2.388.521,1.159.734.973.9.752,2.061-.513,1.963.018.894-.15,2.795-3.22.425-1.115-.213-1.141.186-1.044,1.734-2.3.663-1.955-.336-2.07,1.415.089.982-1.026.274-3.529.23-1.062.531-.876,1.2-.849,1.282.2-1.115,1.857-1.548,1.963-.291,1.2-.221,3.361.7,1.946,1.424,1.424.885.6.716.779.469,1.1.664.84,1.1.079,1.123-.442.823-.062.557.566.327,1.22,1.061,1.159,2.2-.708,1.291.761,1.362.61.991-.062,1.857-.92.92-.15,2.193.327-3.157.318-.389,1.114-.186,1.344,1.185,2.291,7.448,5.041,1.344.044,1.424-.221,1.671.026,4.608.7,4.538,1.035,2,1.061,1.9,1.3,3.14,1,3.795,2.317,4.077,1.477,1.043.036.99.239.938.425,1.043-.089.92.522.867.787.743-.292.76-.6.4,1.362,7.616,4.776.574,1.1.743.761.8-.027.6.416,1.026,1.141,1.273.734.168,1.592-.31,1.646-.008.929.336.654.69.142.69-.089,1.521-.469,1.53-.248-1.725.964-.867,1.627,1.415.628,1.592.1-1.106.867-.38,1.212,1.053,3.352.946,4.44,1.309,2.176,1.963,2.105.894,1.291.363,2.079,1.344,1.167.884,1.345-3.184.557-1.486.478-.009.513,1.884,2.627,2.1,1.318,3.449,1.265,1.105.027,1.133-.23-2.034.725-.779-.027-1.68-.433-.947-.044-1.176.283-.929.707.734.929.973.805.522.663.77,1.964.734.708,1.115.389.6,1.167-.327,1.026-.558,1.035-.955,2.884-1.283,1.486-.716,2.53-.434,1.061-.583.991.08.938.38.893.708.487,2.786-2.362,2-1.114,1.123-2.052.071,1.265.265,1.194.61,1.159,1.123.46,2.335-.318,2.344-.937,2.495-.372,2.5-.106,1.849-1.547,1.593-1.955-1.628,3.167-.858,1.088-.2.54.292.575,1.557,2.07,6.235,6.315,1.415,2.132,1.2,2.335,1.964,2.512,2.211,2.194.831.663.027-.256.345-4.016.327-4.015.327-4.007.319-4.016.319-4.016.309-4.016.292-4.007.292-4.016.292-4.016.275-4.016.23-3.3-.884-1.291-.867-1.972.389-2.539,1.406-3.14.682-2.1.105-1.716.248-4.016.248-4.007.239-4.015.23-4.016.23-4.016.23-4.007.212-4.015.221-4.016.2-4.016.2-4.015.195-4.007.195-4.016.186-4.016.177-4.015.168-4.007.16-4.015.159-4.015.133-3.821ZM687.211,383.644l-.4-.4-.381-.053-.292.115-.8,1.53,1.256,1.495.566,2.362.9-1.486,1.238.584.371-.327.664-1.5.813-1.061-.388-.69-1.619-1.911Zm403.007,4.741-.549,1.893.407,1.327.619-.071,2.2-.725.327.362.425.947,1.618,1.017,1.424-.708.672-.769-.283-.964-.442-.708-.575-.584-2.539-.1-.929-1.566,1.38-2.8-2-2.945-.69-.248-.628.584-.646,1.389-1.451-1.477-.8.08.071,1.088-.575,1.371.044.787,1.389,1.964Zm-4.891-2.406,1.1-.513.549-2.061-.469-1.424.646-.681-1.752-.566-1.105.46-.4,2.662.248,2.105Zm-412.32-5.793-1.221,1.38-.31,1.185,2.521.5,2.283-.69.477-.592-.7-.814-1.964-.911Zm470.077.779.938,1.963.425-.1.548-.654,1.442-.628.186,1.875.866,1.026,2.556-.548.062-1.415-.982-.9-.725.071-.7-.213-1.212-2.185-.92-.743-.283-1.132,1.07-.1,2.167,2.875,1.54.831.867,1.362,1.026.46,1.61-.61,1.4.318.7.557.69-.168,1.442-1.486-.646-.973.257-.725-.7-1.079-4.378-2.167-.68.133-3.025-.84-1.583.5-2.415.31-.628.486-.849-.195-1.194.752-1.194-.5-1.185.566-.124,1.052-.894,1.088,1.8,1.035ZM583.47,376.037l-.716-.486-.9.15,1.813,4.458-.328,1.627-.946,1.389-.265,1.751-.531,1.265,1.566.885,1.044-.911,1.07-2.981.433-2.406L584.664,379Zm108.9.893-.4-.876-1.619-.717-.8,2.848-.876,1.238.46.451,1.619.664,2.37-.734,3.7,2.264.247-.124.381-.637.955-.035-.964-.7-.707-.708-1.15-1.4-.619,1.018-.5-.328-1.132-1.433-1.061-.54Zm432.8,1.353.628,1.15.761-.053-.124-.946-4.06-3.644,1.07,2.211Zm-35.76-5.05-.389,2.132.363.195.539.849.08-.6-.062-1.477-.318-1.459ZM689.59,371.111l1.822,2.7.327.309.495.336.832.548-.159-.486-.513-.858-2.026-2.38Zm-23.749-6.262.566.257,1.963-.115.177-1.424-1.008-1.672-.884-.017-.584,1.114Zm422.722-1.689.177.071.619-.221.45-.814-.062-.991-.318-.212-.734.018-.327,1.354Zm-.637-2.441.584-.655-.336-1.106-.6-.283-.469.38-.1.6.345.84Zm-418.184-1.831-.363,1.442,1.512,2.512.354-.265.814-1.159-.486-1.088-.654-.929-.823-.876Zm8.182,1.557-.1-.566-.4-.893-.955-.893-.212.389.053.823Zm4.75-3.184-.124.318-.044.416,1.389,1.8,1.088-.575-.221-.9-.991-.336-.841-.929Zm-28.639-.336-.2,1.2.637.655.9.486,2.954.938,1.15.1,3.405.849.663.557.318-.76-.46-2.22-1.025-.663-2.875-1.318-.946-.584-1.636-1.291-1.477-1.495-.734.814-.248,2.016Zm16.8-.849L670.715,355l-.336-.478-.451-1.212-.434.328-.681.9.849,1.274Zm-11.207-.743,1.725.681,1.362,1.07,1.229,1.194.938.672.876.124.5-.566-1.751-2.848-1.2-1.053-3.671-1.928-1.123.133-.389,2.079.433.239Zm20.512.354,1.8.469,1.043-2.034.177-.707.026-.734-.9.566-1.114-.867-.425.858h-.769l-.141.991-.248.31.133.5Zm5.767-.053,2.521-.681.416,1.079-.583.778.928.469-.177.38.177.522.416.672,1.238.416.416-.539.92-2.008.15-1.751-.265-1.088-1.008-.716-.115-1.486-1.477.708-1.256-.309-1.159.283-1.928,1.557-.1.5.15,1.23Zm-33.84-6.51-1.451-.982-.354-.036-.469.973.124,1.654.4,2.308.434,1.415.813,1.354.982.929.8-.593.009-1.53.327-1.751-.124-1.539-.53-.531Zm-79.7,3.945-1.548-.752-3.856-5.554-2.211-1.468-.22.23-.31.911-1.38,1.15-2.883-.035,3.857,4.7,1.291,2.574.654,2.176.973.106,2.512,2.123,1.4,3.812.036.885,2.379.628.973-1.264.407-5.051.5-1.769-.514-.876Zm74.766-6.961,1.459.654,1.973.239,1.628.743,1.026,1.008,1.309.663-.168-2.529-.407-1.008-7.491-2.273-.31.345-.1.433.053.548Zm292.986,81.532-.964.372-.787.637-.469.761-.027.867.743,1.68.46,1.548-.708,2.22-.239,2.291.265,2.433.531,2.326.884,1.672,1.22,1.088,4.325-1.229,2.141-.327.991.327.8.743.442.814-.08,1.061-.266,1.176-.035,1.23.2.76,1.875,4.573.186.681-.531,7.678-.4,1.972-.947,2.123-.61,2.193-.053,2.671-1.681,3.989-.858,2.4L945.9,480.6l.168,2.185,1.424,1.911,1.557,1.769,2.7,1.627.831-.106.964-.522,1.619-1.292.787-.371,2.185-.035,2.167-.319.991-.3.956-.053,2.025.973-.142-1.99-.353-1.928-1.716-4.865.088-1.052.619-2.556,1.866-4.661.362-2.167-.442-3.989-.106-6.51.54-4.608.99-2.061.062-.8-.5-7.094-.487-2-.982-1.831-.743-2,.185-2.043,1.459-1.575,3.618-2.706,1.946-1.282,1.964-.513,1.99.08,1.919.486,1.026,1.61.177,2.547-.026,2.556-.381,3.1-.318.752-2.423,3.927L974.138,444l-.026,1.194.363.69,6.66,7.182,1.742,1.282,2.1.6,1.344,1.539-.168,1.256-.54,1.07-.486.672-.309.752-1.212,5.891.4,1.981,1.221,1.539.974.522,1.76.61,2.91.619,2.123-.31.655-.8-.3-2.3.124-1.088,1.115-1.575,1.653-.867,4.67-1.469,2.5-.088.991.088.876-.221-.08-.681.115-.708,1.654.973.956.044.477-.849.142-2.362-.035-1.247-.257-1.132-.469-.876-.858-.2-.362.54-.514.362-1.043-.3-.637-1.265-.725-.708.106-1.212-.513-.814-.84-.584-1.557-2.229-.84-.557-.964-.345-.69-.637-.575-.814v-.875l.239-.964.982-2.857.15-2.123,1.477-1.468-.265-1.15-1.238-1.8-.248-.937.257-1.026-.177-.876-3.538-3.122-1.141-1.84-.663-2.255-2.044-4.157-1.318-1.787-.743-.655-1.8-.681-.814-.443-1.22-2.1-1.61-1.477-1.009-.477.142-1.335.708-.876,2.052,1.061,1.017.354,1.371-.2,1.2-.637,1.105-1.893,1.406-1.459,5.254-1.963,1.636-.761,1.477-1.132,3.06-2.963,2.662-3.405,1.23-2.194,1.468-1.937.8-.752.885-.531,2.564-.566,1.8.681,1.247,1.875,1.283.478,1.371-.434.336-.84.7-3.617-.274-1.4-.646-1.168-1.707-1.123-1.919-.416-2.636.575-2.592.814-.752.354.2.557.769.69.044.654-4.015.292-2.247-.257h-4.351l-1.849.725-.646.9-.787.707-2.176,1.15-2.035.248-2.008-.4-.982-.743-.831-.946-.991-.23-.99.531-1.556,1.645L982.1,397.76l-1.15,1.866-1.159,2.5-2.025,1.327-2.043-.566-2.07-.283-1.194.159-1.061-.027-1.052-2.2-1.468-4.325-1.583-1.557-2.7-1.212-.5-.61-2.459-4.316-.584-1.857-.531-2.441-.327-2.468.026-2.185.407-2.1.734-2.556.849-2.5,1.132-2.017,1.99-2.76.725-.8,1.928-1.2,2.07-.363,2.123.274,3.652,1.336,1.8.106,7.2-1.052,1.565-.071,1.557.248,2.061.69,2.088.283,3.813-.619,3.83-.257,10.967-.1,1.521-.15,1.495.15,1.707,1.388,1.5,1.76.788.177,3.759.336,1.982.062,2-.159,6.05-1.362,2.017-.115,1.062-.363,1.857-.92.743-.5,1.5-1.707,1.292-1.937.867-1.743,1-1.618,3.281-3.352,1.336-1.725,1.044-1.928,1.494-3.918.4-.584,1.38-1.389.2-.469-1.265-2.786-.956-.831-2.123-.3-.725.566-1.468,1.9-1.229,2.141-.708.513-1.787.5-.751.469-.4,1.742-.707,1.451-2.132.893-2.344,3.22-5.935,3.388-1.468.247-9.932-1.778-3.7-.274-.937.062-.911.31-1.167,1.442-.947.089-.84-.336-2.336-1.539-1.893-.867-1.973-.664-5.731-.256-4.219-1.132-4.8.407-.716-.23-.663-.5-.725-1.008-.584-1.159-.637-.575-.831-.221-1.3.1-1.292-.248-2.229-1.291-.991.035-1.035.283-.92.451-.761.707L973.837,353l-.814,2.247-.761.964-.893.849-.557.814-.407.955-1.495.725-1.76-.619-.867-.761-.8-1.893-.5.08-.424.168-.664,2.158-1.265,1.725-.964.672-.76.938-.354,2.485-.637.911-1.469,1.486-1.8,4.078L956.7,372l.946,2.9-.477,1.23-.911.69-.876-.115-.248.734.84,7.8.982,4.007.248,1.716-.026,1.742-.991-1.928-1.3-1.645-1.018.929-2.565,3.529-2.7,6.651-.928,3.255-.009,1.725.212,1.751-.309,1.486.628,3.272-.5,2.061-1.459,2-1.247,2.149-.655,2.344-.115,2.441-.813,1.99-2.4,2.255Zm-303.14-86.167,1.787.345,2.008-1.451.221-1.84.664-1.2-.212-1.053-.982-1.618-1.193-.947-1.646,1.3-1.654-.142-.69.911-.062,2.379,1.176,2.8ZM1089.4,353.182l1.663,4.263,1.547,1.495-.115,1.035-.575,1.053-.433,1.221-.062,1.38.336,2.4,1.07,2.1.92.911.708.964-.4,2.742-.071,2.256.107,2.264-.222,1.636.284,1.565.858,1.15,1.955,1.574.619.858,2.087,4.617.611.964,3.246,1.61.761,1.628,2.565.442-1.565-1.5-1.4-1.672-2.821-4.865-1.919-4.679-1.548-5.882.407-1.99.035-1.106-.478-1.813.239-1.459.389-1.3,1.026-.672,2.14.221,2.008.92,1.955.318,1.99.133,1.636,1.052,6.28,2.406-.637-1.026-.84-.734-1.256-.354-.911-.734-.142-1.539-.5-1.38-.778-.823-3.733-1.751-2.415-1.875-.08-1.406.716-1.415.814-.6,2.919-1.424,2.662-1.778.583-.734.159-5.148-.539-1.911.274-1.256-.31-.885-2.6.257-1.99.822-3.467,2.309-1.105,1.663-.044,1.557.15,1.574-.751.61-1.071.221-1.512,1.442-.637,2.131-.168,1.15-.646.875-1.318.124-1.273-.434-.973-.761-.76-.982-.036-.814.336-.716,4.007-2.945,1.742-2.5.407-.831.2-2.494-.088-2.477-.275-2.326-1.167-1.742-1.062-.858.027-1.442.266-.778,2.087-3.441.177-.734-.132-.831-1.248.487-1.1.734-2.848,3.379-1.68,2.415-1,2.839-.195,1.3-.38,1.229.079,2.061-1.955,4.254ZM564.18,334.714l-.124-1.442-.672-1.035-.672-.3-1.69-.318-.831.3,2.06,1.159,1.84,2.078Zm539.977.8,2.742-.336,1.61-.893,1.256-2.512.99-4.927-1.583-2.441-.584.027-1.671.5-2.406,2-1.857,3.4.849,4.237Zm-50.115-14.382-.212-.407-.787-.425-.5,1.15.717,2.317.168-.434-.1-1.1ZM548.48,327.01l-.469-.973-4.21-2.892-.9-1.176-.5-.4-1.831-.8-1.831-2.123-1.574-.531-.566,1.2-.947.575.31,1.176,1.37,2.185,1.247.292,1.044.84,1.451.053,4.758,3.281.9,1.133,1.061.424,1.088-.186-.1-1.105Zm216.76-8.686-.08-1.84-.327.133-1.344,2.1.938.637Zm-55.546-1.486.089.8v1.008l.23.593.734-.08.832-.8.433-1.433-.256-.159-.487-.23-.611-.336-.531-.469-.69-.5.035,1.008Zm10.048-2.123-.018-1.353-.283-1.167-.832-.265-.38.486.283,1.5Zm195.993-5.882.433,1.15,1.548,1.583.194-.646.31-2.5-.8-.566-1.539.079Zm138.661-4.086.318.867-.035,1.743,2.167,1.1.407-.6-.283-.8-1.079-1.866-.813-1.963-1.354-1.239-.194.964.265.893Zm22.068-4.936v.593l.416.584.646.531.274-.23.088-.372-.035-.5-.956-.9Zm-.982.213-.08-.831.318-.849-1.017-1.654-.866-.8.5,2.238Zm-153.529-4.378-.115-.716-.654-1.884-2.415.38-1.681-.044-.38.938,2.043,2.317ZM749.912,298.91l.8.725,2.724.831-.105.5-.336.248-.522.079-1.451,1.256,1.416,1.017,2.352-.725,1.247-2.892.071-.787-.186-2.176-2.512-3.264-.177-1.291-.8.327-3.344,3.114.027,1.185Zm325.968-7.766.831.469-.672,1.9-1.061,1.8.159,1,1.141.15.681-.407.416-2.892,1.186-2.194-.673-1.61-.477-2.123-.973-1.132-.963-.212-.522,2.609.088,1.415ZM697.674,488.668l3.185-3.016.814-.4,2.91,2.433.54.778.345.955.681.77.99.354,1.247.009,1.035-2.008.274-.787,1.787-13.17.035-4.263.292-2.636.018-2.1-.672-7.713.185-.814,1.69-4.75.079-.955-.575-1.052-.734-.964-.054-2.309.823-3.211.31-.814,2.4-2.945.46-.858-.009-1.123-.168-1.07-2.406-4.316-5.325-7.81-1.486-1.23-1.69-.982-1.91-.469-4.546.026-.964.266-.955.416-.682.531-2.565,3-.664.54-.831-.062-.327-1.017.354-2.247.389-.875,2.114-2.026.7-.955.354-1.238.044-1.557-.92-1.026-1.981-1.061-1.849-1.291-.884-2.017.088-2.388-.663-1.946-.478-4.688-.336-2.211-.734-3.485-.354-.708-1.8.3-1.035.018-2.388-.654-2.105-.831-3.794-1.822-2.485-1.8-.778-.814-1.619-3.538-.124-.822,1.371-1.345-.239-.937-1.566-1.106.69-1.786-.566-.619.291-.955,2.813-2.432,2.043-.973,1.4-1.309-.769-2.521-1.23-2.255-1.645-1.937-1.751-1.84-1.168-.531-1.274-.133-1.088.38-2.919,1.866-1.84,1.345-1.866,1.052-2.026.672-4.007.548,4.122-1.6,3.847-2.317,1.027-1.521-.619-1.716-1.451-1.68-1.751-1.008-4.945-.664-1.7-.6-1.388-1.239-2.662-2.927-.283-.557-.468-2.432-.743-2.309-1.061-1.955-1.389-1.663-4.157-3.538-1.76-.787-1.911-.186-1.725-.442-1.265-1.274-.875-2.556-1.044-2.468-1.353-1.787-3.184-3.06-1.946-.734-1.017.221-.832.8-.168.955.009,1.07,1.079,1.769.239,2.017-1.256-.814-2.344-2.583-1.433-.327-1.415-1.035-1.194-1.344-1.008-1.468-.876-1.575-.823-1.088-3.219-3.574-1.92-2.892-.964-1.99-1.141-1.84-3.14-3.847-3.75-2.53-6.616-5.333-5.006-2.547-1.61-.973-1.3-1.486-.371-1-.513-.84-2.317-1.371-3.909-1.884-1.221-2.008.478-2.521-.5-1.822-4.122-4.36-.38-.531-.664-2.273-1.088-2.026-3.627-3.158-2.167-2.574-.734-.7-.831-.442-.858-.159-4.52.566L558,272.438l-2.079-.779-2.184-.1-3.918,1.07-2.149-.186-4.237-.743-2.07-.539-1.884-1.124-3.361-3.219-1.857-1.283-1.91-.583-1.964-.31-2.1-.08-2.008.708-.875.557-.036.937.372,1.044.114,1.052-.416,1.274-.194,1.23,3.255,6.076.964,2.194,1.167,2.052,1.53,1.963,7.4,7.872,4.334,3.759,1.469,1.707,2.432,3.353,1.442.982,4.838,1.15,1.654,1.079,1.353,1.557,4,5.908,1.079,1.707,1.2,2.211,1.415,2.017,3.547,2.538.478,1.212.469,2.149.46,3.591.733,2.68,1.681,1.495,2.158.372,1.522.513,1.433.849,8.447,5.784.557.743,1.928,3.211,1.7,4.1,2.547,9.128,2.22,6.828.937,4.484.841,2.114,1.353,1.663,1.716,1.167,4.59,2.1,1.265,1.133.894,1.539,2.415,5.546,1.22,1.707,1.495,1.459,1.229,1.557,3.476,4.856.327.549,1.442,5.422,1.565,3.9,6.227,12.542-.212,4.139.681,2.07.919,1.9,2.919,4.794,1.495,1.5,1.7,1.273,1.017,1.574.787,1.787,2.724,5.3,1.176,1.521,2.866,2.645,5.263,4.36,1.009,1.486,3.016,5.82,2.759,3.618,6.422,6.289,3.732,2.477L665.6,468l1.557,1.769,1.238,1.008,6.191,4.272,1.026.929,3.856,6.041,1.389,1.6,1.548,1.424,2.078,3,1.84,2.22,2.016,2,.513.071.938-.3-.079-1.513-.858-3.449.124-1.38.354-1.008,4.927,3.167,1.565.9,1.008.371ZM527.226,261.5l.318-.557.044-.6-.15-.672-1.345-.416-.716-.177-.407.345,1.212,1.8Z" transform="translate(-524.97 -259.073)" fill="#00b8cc" stroke="#f9f9f9" stroke-linecap="round" stroke-linejoin="round" stroke-width="0.15" fill-rule="evenodd"/>
    <circle id="Ellipse_121" data-name="Ellipse 121" cx="7" cy="7" r="7" transform="translate(124.951 131)" fill="#de6e6e"/>
    <text id="Sumatra" transform="translate(147.951 143)" fill="#1f1f1f" font-size="14" font-family="Avenir-Heavy, Avenir" font-weight="800"><tspan x="0" y="0">Sumatra</tspan></text>
    <text id="Maluku" transform="translate(579.951 201)" fill="#1f1f1f" font-size="14" font-family="Avenir-Heavy, Avenir" font-weight="800"><tspan x="0" y="0">Maluku</tspan></text>
    <circle id="Ellipse_120" data-name="Ellipse 120" cx="7" cy="7" r="7" transform="translate(572.951 170)" fill="#de6e6e"/>
    <text id="Sulawesi" transform="translate(451.951 165)" fill="#1f1f1f" font-size="14" font-family="Avenir-Heavy, Avenir" font-weight="800"><tspan x="0" y="0">Sulawesi</tspan></text>
    <circle id="Ellipse_106" data-name="Ellipse 106" cx="7" cy="7" r="7" transform="translate(432.951 154)" fill="#de6e6e"/>
  </g>
</svg>
