<svg id="vietnam" xmlns="http://www.w3.org/2000/svg" xmlns:xlink="http://www.w3.org/1999/xlink" width="352" height="644.51" viewBox="0 0 352 644.51">
  <defs>
    <clipPath id="clip-path">
      <rect id="Rectangle_910" data-name="Rectangle 910" width="333.783" height="644.51" fill="#00b8cc"/>
    </clipPath>
  </defs>
  <g id="Group_2029" data-name="Group 2029">
    <path id="Path_372" data-name="Path 372" d="M234.021,636.544l.876.876,1.071-.1,1.3-.8-.175-.935.214-1.889ZM130.328,561.515l-3.155,2.551-1.869-.117.8,1.538,3.505,4.031,3.174,9.288,1.052-1.382-.6-2.162L134.4,570.3l-.1-5.043-.876-2.162-1.5-1.636Zm120.984.292-2.687,1.421.39,2.22,3-2.629.9-2.1-.7-.02ZM189.7,109.63l3.505,3.505,1.519-.175.351-.6.545-1.675-.078-.759-.9-.857-3.6-1.324Zm-5.55-1.753,1.383.9,2.22,2.064.312-.857-.662-1.85-2.687-3.018Zm27.281-6.465-1.129,2.629-2.687,2.123,2.512.136,1.947-1.129.759-2.376-.312-2.3Zm-3.914-9.659-.935,6.153,2.084.1,4.635-5.452-1.538-.156-3.544-2.1ZM110.68,1.069l-1.6,1.791-6.66,3.758L99.445,8.1,97.906,9.15l-1.168,1.558.136,3.895-.039,4.323-1.753,2.22L93.35,22.8l-2.045.175-2.064-.1-1.791.7-5.16,4.362-2.824-.351-2.609-2.454L75.61,23.346l-2.531.409-3.038,2.084-.993,3.719-.312,3.505L68.249,34.6l-1.052.448-.974.1L54.287,25.06l-.72-.526L52.009,26.6l-.9,5.355-1.071,1.013-.9-.409L43.83,25.722l-1.207-.643-.935.234-.974,2.2-2.239,3.252-1.811,1.986.292,2.22L34.951,36.9l-2.356,1.928-.857.214-1.869-.759L27.2,35.692l-2.045-2.668-4.479-2.687L15.751,28.1l-3.33-1.772-1.791-.448-1.5.8-.662,1.09-.74,2.648L5.605,34.8,3.658,38.282,1.691,40.5.075,42.04l2.687,4.148,5.121,4.6,6.231,6.562,2.123,3.018,3.914,2.317,1.324,2.278L22.8,68.445l.7,2.629,1.032,1.538,1.344.584,1.519-.682,1.032-1.383.487-3.836.6-.409,1.538,3.155,1.246.545L33.919,71l1.4,1.383.682,2.4-.039,2.434-1.071,2.765-.448,2.882.058,4.459-.351,3.116,1.616,2.746L45.933,106.67l4.3,2.239,9.892,2.648,3.68,1.811,3.271,1.772,2.863-.857,2.317-4.031,3.135-2.259,5.939-3.447,1.811-.195,3.739,1.363,6.368,4.031,4.732,3.8,2.882,1.986,2.239,1.811-.019,2.006-1.324,1.967-1.869,1.11-2.415,1.908-1.246,1.928,1.032.72,3.992.487,4.849,1.694,1.694,2.006.448,1.714.954,2.785.935.837,4.226-.487,1.422.623,1.733,1.441,2.045,3.758.351,2.8-2.668,3.077-.9,1.889-.1,2.94-1.714,3.525-5.043,5.92-1.519.37-11.255-3.271-5,.214-2.4.117-1.149.136-.526,1.246,1.928,3.564.9,3.544-.954,2.707-3.271,2.356-1.207,1.149.039,1.519L86.3,177.22l3.544,1.636,4.07,1.538,14,9.191,3.018,2.161,4.05,3.194,4.226,2.493,10.9,3.271,4.907,2.142,1.344,1.207.175,1.48-.954,1.908-.545,3.33.234,2.025,1.344,1.947,2.239,2.882,4.771,4.5,2.551,1.986,2.57.448,2.337,1.09,2.746,3.33,3.213,4.07.7,2.863,1.616,3.641,3,4.187,3.875,4.07,5.336,5.024,3.155,3.544,1.421,1.383,11.119,8.626,2.843,3.194,4.3,6.134,1.616.9,1.538,1.207,1.363,3.369.584,2.415,1.441,7.4,2.084,2.2,2.006,2.707.974,1.967,1.675,1.46,1.694.273,1.772-1.636,1.344-1.558.779.448,2.239,5.2,1.655,1.869,2.96,1.811,2.726,1.383,6.387,6.231,3.31,2.278,2.123.72,1.889,1.071.74,1.967-.428,1.986-1.013,1.3-6.095,3.622-.682,1.558,1.207,2.415,1.986,3,2.1,2.59,2.57,2.512,5.082,4.128,4.362,3.213,2.59,3.564,1.48,2.4-.389,2.824-1.324,3.116-.993,2.648-2.064,1.558-.389,1.791,1.246,2.785.954,1.908-.136,2.4.779,4.868.876,2.4-1.11,4.537-1.246,4.109-2.8,3.583.117,2.648-.234,7.886.682,2.493.974,2.142,1.168,1.168,3.563,7.692,3.271,7.01,3.057,5.783.818,3.641-1.383,9.23-1.85,8.49.643,4.226,1.538,4.206,1.753,5.647,1.129,7.224-.234,4.693-.935,2.94-2.045,2.979-1.869,1.538-2.648-2.551-1.928-.117-2.512.779-1.928,1.168-3.719,4.4-4.206,4.265-6.251,1.09-2.181,3.174-2.59.448-5,.156-3.213.74.292,1.6.37,7.536.214,1.752-.467.487-2.259.214-3.934-1.149-5.355-1.85L203,503.662l-1.616,3.291-1.052,1.285-1.383.195-1.422.584-.351,1.46.02,1.83.974,3.135.662,4.985.1,3.388,1.519,2.162,8.51,7.224,2.493,1.791.351,1.071-1.09,3.953,1.655,5.511-2.493-.1-4.323-2.376-2.1-1.441-2.317,1.149-.857-.234-1.83-2.707-2.337-2.765-2.22-.175-4.537,1.09-4.654.759-1.811-.019-.7.506-2.415,4.128-1.227-.7-4.868-1.577-4.4-.6-.837,1.071.8,3.369,1.207,3.271-.448,1.4-2.259,1.733-2.94,3.116-1.772,2.434-1.285.565-4.829-.1-4.771.311-1.753,2.3-1.655,1.792-1.519.467,3.661,3.1,3.194,3.174.9,2.59,2.064,1.636,3.116-1.266,2.064-.175,3,3.836,3.583.623,2.454,1.441,2.4,3.116.565,2.2.019,1.928-3.934,1.4-3.057,2.278-1.6,9.113v18.285l1.188,16.669,3.116,2.4-4.42,6.484,4.673.643,8.412-2.006,2.726-3.564,4.771-3.914,2.59-7.01,3.466-5.686L216.827,606.3l.779-2.22.37-2.376-2.084-3.973-1.986-3.466-11.742-14.235,3.739,1.714,11.489,12.443,6.991,5.18,4.05-.136,1.986-1.928,1.149-1.636-.526-3.232-2.493-4.6L215.21,573.9l-2.064-3.466L225.979,582.7l4.342,3.116,1.5.351,2.2-1.792-.078-2.084-.1-1.85,1.889-2.979,2.551-2.454-.1-1.5-2.278-1.83-4.966-1.675-5.511-2.9,1.032-.234,5.861.662,4.323-.312.6-1.889-.078-1.6-1.616-2.979L233.865,560l-2.084.253-1.46-.37,4.42-3.077,3.6,4.44,3.564,2.2,1.694-.779.565-1.733.117-7.731.74-1.831.623,1.285.818,3.232,2.181,2.531,4.148,1.168,1.714,2.239,1.09.935,4.5-2.609,3.193-1.188,3.369-3.018,10.262-6.29,5.9-.876,2.979-7.692,3.018-1.013,3.6-.6,5.238-4.634,4.673-5,5.53-1.869,4.187-5.063,6.251-.9.74-5.744.351-5.414,3.525-.37,1.324-2.765.721-2.609-.389-2.1-1.577-2.765.078-3.271,1.013-2.629-.136-1.149.545-.487.428,2.239,1.227,2.181.253-1.986-.234-1.675-1.869-3.486L322.6,475.1l3.836,1.052-4.3-11.08,1.83-2.726,2.181-1.869L328.23,464l2.707,3.1-1.441-5.2-.857-10.3-2.084-3.018-3.388-8.412-1.714-2.629-.136-7.439-1.986-6.076-1.4-11.489,1.986,3.914.156-3.972-3.155-8.587-.993-1.869-.9-2.492-1.149-5.063-2.609-4.927-2.746-7.341-.9-7.088-2.8-3.778L300.7,362.7l-2.512-7.789-3.934-8.587L291,344.2l-2.9-2.473-4.206-4.4-5.92-7.731-2.551-4.751-4.79-5.082-.682-1.753-.565-2.629-1.071-.487-1.168.428-1.889-3.155-3.544-3.447L259,304.884l-1.5-.253-2.025.331-1.947.857-1.908-.545-1.6-3.505-3.486-3.7-5.394-3.486-2.239-1.753.136-1.46-8.218-6.582-7.2-4.537-3.194-6.854-8.315-7.2-8.062-6.348L194.043,247.01l-6.017-3.661-.662-.779,4.907,1.967-1.636-6.7,1.091-3.155-3.953-4.654-7.5-7.283-3.836-1.675-3.31-2.473-7.828-8.081-2.278-3.116-1.6-3.116-3.018-4.381-.662-1.422-5.3-8.14.117-3.934,2.493-3.077,1.811-7.244-.72-3.68.467-3.817-.662-5.238,4.284-15.286,2.648-2.084,3.875-.214,7.361-9.289,4.109-3.6,1.422-4.5L178,122.56l6.348-9.074-1.052-3.1-3.291-6.7.039-1.733,1.577.019,1.363.389,2.493,1.46,2.531.331,1.733-1.052,1.714.117,1.3-.857,2.045-.351,1.636,1.714,2.064.467,6.465-4.615.253-3.194-.312-2.843.7-3.934,4.07-2.239,3.933-1.4,2.415-1.616,3.232-3.992,4.381-.058,1.714-.409-2.765-2.278-4.537-3.68-1.675-.409L212.212,75.3l-6.29.682-1.714-1.928-2.882,1.46-3.622-4.42-3.563-.273-4.888-3.349L187.4,65.7l-.876-2.531-1.519-1.344L183.314,62l-2.1-1.363-3.232-1.324-2.531-.8-1.11.623-1.246.312-.467-1.714-.682-5.141-.9-4.557-.993-2.045-1.85-1.558-1.6-.759-1.013-2.337-.156-4.615.72-3.116,1.811-.545,2.22-2.259.818-3.174,1.188-2.96-6.5-4.128-3.31-1.5-3.31.643-4.031,1.3-2.2.273-1.168-.506-3.038-3.739-1.422-.643-3.057-.253-2.531.039L140.435,17.8l-2.142.526-2.239.1-2.59-2.025-3.817-2.629-5.667-1.85-.974-2.161L121.235,7.2,118.82,4.827l-3.856-3.135L111.888.076Z" transform="translate(1.385 1.4)" fill="#00b8cc"/>
    <g id="Group_245" data-name="Group 245" transform="translate(0 0)">
      <g id="Group_244" data-name="Group 244" clip-path="url(#clip-path)">
        <path id="Path_373" data-name="Path 373" d="M234.021,636.562l.876.9,1.071-.117,1.285-.779-.175-.954.234-1.889Zm-99.72-71.29-.876-2.161-1.519-1.636-1.6.058-3.155,2.551-1.869-.117.818,1.558,3.486,4.011,3.194,9.288,1.032-1.383-.584-2.161,1.149-4.946Zm116.992-3.447-2.687,1.422.389,2.22,3.018-2.629.876-2.1-.7-.039ZM191.045,107.779l-1.344,1.85,3.486,3.525,1.538-.156.331-.623.565-1.675-.078-.759-.915-.857Zm-6.348-2.648-.565,2.765,1.4.9,2.2,2.045.312-.837-.662-1.85Zm25.587-1.052L207.6,106.2l2.531.117,1.928-1.129.779-2.376-.331-2.3-1.09.935Zm1.48-11.664-3.564-2.1-.682,1.46-.954,6.153,2.084.1,4.635-5.452ZM326.127,460.49l2.084,3.525,2.707,3.1-1.441-5.2-.837-10.282-2.084-3.038-3.408-8.412-1.694-2.609-.136-7.458-2.006-6.075-1.383-11.489,1.967,3.914.156-3.973-3.135-8.568-.993-1.889-.915-2.492-1.149-5.063-2.609-4.927-2.726-7.322-.9-7.108-2.8-3.778-4.148-8.626-2.493-7.789-3.953-8.587-3.252-2.1-2.9-2.493-4.187-4.381-5.92-7.75-2.57-4.771-4.79-5.063-.662-1.733-.584-2.648-1.071-.467-1.149.409-1.889-3.155-3.544-3.427-2.726-3.836-1.5-.273-2.006.331-1.967.876-1.889-.565-1.616-3.505-3.466-3.68-5.413-3.486-2.22-1.772.136-1.48-8.237-6.562-7.2-4.537-3.194-6.835-8.3-7.224-8.062-6.329-10.009-12.852-6.037-3.661-.662-.779,4.927,1.967-1.636-6.7,1.071-3.155-3.934-4.635-7.516-7.283-3.817-1.694-3.33-2.473-7.809-8.081-2.3-3.116-1.6-3.116-3.018-4.362-.662-1.441-5.277-8.14.1-3.934,2.493-3.077,1.83-7.224-.74-3.68.467-3.836-.643-5.238,4.265-15.267,2.648-2.1,3.895-.214L174.1,136.5l4.109-3.6,1.441-4.5-1.675-5.822,6.348-9.074-1.052-3.077-3.291-6.718.058-1.733,1.577.019,1.363.389,2.493,1.46,2.512.331,1.733-1.052,1.714.117,1.3-.857,2.064-.351,1.616,1.714,2.064.487,6.465-4.635.253-3.174-.292-2.862.682-3.934,4.089-2.239,3.933-1.383,2.4-1.636,3.252-3.972,4.381-.078,1.714-.389-2.765-2.278-4.537-3.68-1.675-.428-4.187,1.772L205.9,76l-1.694-1.908-2.882,1.46-3.641-4.44-3.564-.273-4.888-3.349-1.83-1.772-.876-2.531-1.538-1.324-1.694.156-2.1-1.344-3.213-1.344-2.551-.8-1.11.623-1.227.312-.487-1.714-.682-5.141-.9-4.557-.974-2.045-1.869-1.558-1.6-.759-1.013-2.337-.156-4.6.721-3.135,1.811-.545,2.239-2.239.818-3.194,1.188-2.96-6.523-4.128-3.31-1.48-3.31.623-4.031,1.324-2.181.253-1.188-.526-3.038-3.719-1.421-.643-3.038-.234-2.531.019-1.207,1.636-2.142.545-2.239.078-2.59-2.025-3.817-2.629-5.667-1.85-.974-2.142-1.772-2.57L118.8,4.865l-3.856-3.155L111.888.075l-1.227,1.013-1.577,1.791-6.66,3.758-2.979,1.48L97.906,9.169l-1.188,1.558.156,3.895-.058,4.323-1.753,2.2L93.35,22.819l-2.064.175-2.045-.078L87.43,23.6,82.27,27.96l-2.8-.351-2.629-2.454L75.61,23.364l-2.551.409-3.038,2.084L69.028,29.6l-.292,3.486L68.23,34.62l-1.052.467-.974.078L54.268,25.078l-.72-.506-1.538,2.064-.915,5.336L50.023,33l-.876-.409L43.811,25.74,42.6,25.1l-.935.234-.954,2.2L38.456,30.8,36.645,32.77l.292,2.22-1.986,1.947-2.376,1.928-.837.195-1.869-.779L27.2,35.71l-2.064-2.687-4.479-2.648-4.927-2.259L12.4,26.344l-1.791-.428-1.5.779-.643,1.09-.759,2.668L5.586,34.814,3.639,38.3,1.672,40.52l-1.6,1.558,2.687,4.128,5.1,4.6,6.251,6.562,2.1,3.018L20.132,62.7,21.476,65l1.3,3.486.72,2.609,1.013,1.538,1.344.6,1.538-.7,1.013-1.363.487-3.836.6-.409,1.558,3.155,1.227.545,1.636.389L35.3,72.4l.7,2.4-.058,2.454-1.071,2.746-.428,2.882.039,4.459-.351,3.116,1.616,2.746,10.165,13.514,4.323,2.22,9.873,2.629,3.7,1.83,3.271,1.772,2.863-.857,2.317-4.031,3.135-2.259,5.92-3.466,1.83-.175,3.719,1.363,6.387,4.031,4.732,3.8,2.882,1.986,2.239,1.811-.019,2.006-1.324,1.967-1.889,1.11-2.4,1.908-1.246,1.928,1.013.72,3.992.467,4.868,1.714,1.694,2.006.428,1.714.954,2.785.954.837,4.226-.487,1.4.623,1.753,1.441,2.045,3.758.351,2.8-2.687,3.1-.9,1.869-.078,2.94-1.733,3.544-5.043,5.9-1.519.37L96.7,159.109l-4.985.214-2.415.1-1.149.156-.526,1.227,1.928,3.583.915,3.544-.954,2.707-3.291,2.356-1.188,1.129.019,1.538,1.227,1.577,3.544,1.636,4.089,1.538L107.9,189.6l3.018,2.161,4.05,3.194,4.245,2.493,10.9,3.271L135,202.865l1.363,1.207.156,1.5-.954,1.889-.545,3.349.234,2.006,1.363,1.947,2.22,2.882,4.771,4.5,2.551,1.986,2.57.448,2.356,1.09,2.726,3.33,3.213,4.089.72,2.843,1.616,3.641,2.979,4.187,3.875,4.07,5.355,5.024,3.135,3.564,1.441,1.363,11.1,8.646,2.843,3.174,4.3,6.134,1.616.9,1.558,1.207,1.344,3.369.6,2.415,1.422,7.4,2.084,2.2,2.006,2.707.974,1.967,1.694,1.46,1.675.292,1.772-1.655,1.344-1.558.779.467,2.239,5.18,1.675,1.869,2.94,1.811,2.746,1.383,6.387,6.231,3.291,2.278,2.123.72,1.889,1.071.759,1.967-.428,2.006-1.032,1.285-6.075,3.622-.682,1.577,1.188,2.4,2.006,3,2.084,2.59,2.57,2.531,5.082,4.109,4.362,3.232L249,349.3l1.48,2.376-.409,2.843-1.324,3.116-.993,2.668-2.064,1.538-.389,1.811,1.246,2.785.974,1.908-.136,2.376.759,4.868.876,2.4-1.09,4.537-1.266,4.109-2.8,3.583.136,2.648-.253,7.886.7,2.493.974,2.161,1.149,1.149,3.583,7.711,3.252,7.01,3.077,5.764.8,3.641-1.363,9.23-1.85,8.471.643,4.245,1.538,4.226,1.753,5.647,1.129,7.2-.234,4.712-.954,2.921-2.025,2.979-1.869,1.538-2.648-2.551-1.928-.1-2.512.76-1.928,1.168-3.739,4.4-4.206,4.265-6.231,1.09-2.2,3.194-2.59.428-5,.156-3.194.74.273,1.6.37,7.536.214,1.772-.467.467-2.239.214-3.953-1.149-5.355-1.85-3.719-.311-1.616,3.291-1.032,1.285-1.383.195-1.422.584-.37,1.461.039,1.83.954,3.135.662,4.985.1,3.388L200.43,526l8.51,7.224,2.493,1.811.35,1.071-1.09,3.934,1.675,5.511-2.512-.1-4.323-2.376-2.1-1.441-2.317,1.149-.837-.214-1.85-2.726-2.337-2.765-2.2-.175-4.537,1.09-4.673.76-1.792-.019-.7.506-2.434,4.128-1.207-.7-4.888-1.577-4.4-.6-.818,1.071.8,3.369,1.188,3.291-.448,1.383-2.259,1.733-2.94,3.116-1.753,2.415-1.3.6-4.81-.117-4.771.331-1.753,2.278-1.675,1.792-1.519.467,3.661,3.1,3.194,3.194.9,2.57,2.064,1.636,3.135-1.266,2.064-.156,2.979,3.817,3.583.623,2.473,1.441,2.376,3.116.565,2.2.039,1.908-3.934,1.4-3.057,2.278-1.616,9.133.019,18.285,1.188,16.688,3.116,2.4-4.44,6.465,4.693.643,8.393-2.006,2.726-3.564,4.771-3.914,2.609-7.01,3.447-5.686,24.692-13.183.779-2.22.35-2.376-2.084-3.992-1.986-3.447-11.742-14.215,3.739,1.694,11.489,12.443,7.01,5.18,4.05-.136,1.967-1.928,1.168-1.636-.526-3.232-2.493-4.6-13.358-13.943-2.045-3.447,12.813,12.248,4.362,3.116,1.48.351,2.22-1.792-.1-2.064-.078-1.869,1.889-2.979,2.532-2.454-.1-1.5-2.278-1.83-4.966-1.675-5.491-2.882,1.032-.253,5.861.662,4.323-.312.584-1.869-.078-1.616-1.6-2.96-1.694-.779-2.1.253-1.441-.37,4.42-3.077,3.583,4.44,3.583,2.2,1.675-.759.584-1.753.1-7.731.74-1.831.623,1.285.818,3.252,2.181,2.512,4.148,1.168,1.733,2.239,1.071.935,4.518-2.609,3.193-1.188,3.369-3.018,10.243-6.29,5.9-.9,2.979-7.672,3.018-.993,3.6-.623,5.238-4.634,4.673-5,5.53-1.869,4.206-5.063,6.251-.9.74-5.744.351-5.413,3.505-.351,1.324-2.765.74-2.629-.409-2.1-1.577-2.765.078-3.252,1.013-2.629-.117-1.168.545-.487.409,2.239,1.227,2.181.273-1.986-.253-1.675-1.869-3.466-1.675-14.9,3.817,1.052-4.3-11.06,1.85-2.746Z" transform="translate(1.385 1.381)" fill="#00b8cc"/>
      </g>
    </g>
  </g>
  <text id="Yeh_Bai" data-name="Yeh Bai" transform="translate(128 78)" fill="#1f1f1f" font-size="14" font-family="Avenir-Heavy, Avenir" font-weight="800"><tspan x="0" y="0">Yeh Bai</tspan></text>
  <text id="Lang_Son" data-name="Lang Son" transform="translate(180 58)" fill="#1f1f1f" font-size="14" font-family="Avenir-Heavy, Avenir" font-weight="800"><tspan x="0" y="0">Lang Son</tspan></text>
  <text id="Lao_Cai" data-name="Lao Cai" transform="translate(85 44)" fill="#1f1f1f" font-size="14" font-family="Avenir-Heavy, Avenir" font-weight="800"><tspan x="0" y="0">Lao Cai</tspan></text>
  <text id="Quang_Ninh" data-name="Quang Ninh" transform="translate(202 95)" fill="#1f1f1f" font-size="14" font-family="Avenir-Heavy, Avenir" font-weight="800"><tspan x="0" y="0">Quang Ninh</tspan></text>
  <text id="Dak_Lak" data-name="Dak Lak" transform="translate(293 461)" fill="#1f1f1f" font-size="14" font-family="Avenir-Heavy, Avenir" font-weight="800"><tspan x="0" y="0">Dak Lak</tspan></text>
  <text id="Dak_Nang" data-name="Dak Nang" transform="translate(286 494)" fill="#1f1f1f" font-size="14" font-family="Avenir-Heavy, Avenir" font-weight="800"><tspan x="0" y="0">Dak Nang</tspan></text>
  <text id="Dong_Nai" data-name="Dong Nai" transform="translate(261 547)" fill="#1f1f1f" font-size="14" font-family="Avenir-Heavy, Avenir" font-weight="800"><tspan x="0" y="0">Dong Nai</tspan></text>
  <text id="Binh_Phuoc" data-name="Binh Phuoc" transform="translate(246 515)" fill="#1f1f1f" font-size="14" font-family="Avenir-Heavy, Avenir" font-weight="800"><tspan x="0" y="0">Binh Phuoc</tspan></text>
  <circle id="Ellipse_104" data-name="Ellipse 104" cx="7" cy="7" r="7" transform="translate(108 66)" fill="#de6e6e"/>
  <circle id="Ellipse_111" data-name="Ellipse 111" cx="7" cy="7" r="7" transform="translate(160 49)" fill="#de6e6e"/>
  <circle id="Ellipse_106" data-name="Ellipse 106" cx="7" cy="7" r="7" transform="translate(65 39)" fill="#de6e6e"/>
  <circle id="Ellipse_105" data-name="Ellipse 105" cx="7" cy="7" r="7" transform="translate(183 83)" fill="#de6e6e"/>
  <circle id="Ellipse_107" data-name="Ellipse 107" cx="7" cy="7" r="7" transform="translate(272 449)" fill="#de6e6e"/>
  <circle id="Ellipse_110" data-name="Ellipse 110" cx="7" cy="7" r="7" transform="translate(265 482)" fill="#de6e6e"/>
  <circle id="Ellipse_108" data-name="Ellipse 108" cx="7" cy="7" r="7" transform="translate(228 501)" fill="#de6e6e"/>
  <circle id="Ellipse_109" data-name="Ellipse 109" cx="7" cy="7" r="7" transform="translate(242 535)" fill="#de6e6e"/>
</svg>
