<svg xmlns="http://www.w3.org/2000/svg" width="346.075" height="614.42" viewBox="0 0 346.075 614.42">
  <g id="madagascar" transform="translate(0.075 0.075)">
    <g id="Madagascar-2" data-name="Madagascar">
      <path id="Path_2307" data-name="Path 2307" d="M695,520.213l-1.632,6.976,4.916-8.343,3.937-9.465-1.509.775Zm-52.79-160.859V357.7l.449-2.468-1.489-5.079-1.571.285-.653,2.347-2.57.183.612,5.691Zm80.185,79.634-4.63-9.669L715.09,420l-.775-9.913-.285-21.6-3.122-21.031-3.671-14.014-.836-9.016-2.244-4.528-2.692-4.243L695.2,324.616l-1.978-4.59-1.653-4.753-2.2-3.814-4.447-5.1-1.284-2.162-.612-2.957-1.877-2-2.244-.021-7.221,10.75-4.365,5.63-1.305.877-3.794-.836-.754,1.407,2.468,6.323,1.428,5.08.795,5.344-.51,4.406-5.12,15.115-7.282,7.2-4.651,1.959-4.181,3.141-2.856,4.59-3.448,3.671-2.692-.572-3.875-3.835-1.795-1.183-2.346.816-1.713,2.182-1.917,3.1-.632,3.509.612,2.305,3.569,4.651-.53,1.121-1.1.877-.183,2.876L617.689,403.5l1.182,7.976,5.835,5.813-3.672-1.224-3.835-.408-2.386,1.979-1.957,2.876-3.325,5.508-2.958,5.814-1.876.8-1.938-.633.673-3.223,1.366-2.407,1-2.447-.347-2.448-.714-2.326-1-.449-3.59,2.857-1.428,2.529-1.774,5.507-3.488,4.61-4.406,4.835-.041,2.04.449,2.223.979,2.631-.184,2.733-1.51,3.305-1.591,1.02-1.305-.2.264-1.346-1.2-8.159-1.978-1.1-2.407.469-8.567,6.935-8.221,6-3.753,3.937-2.366,5.181-.306,2.407.51,2.141,3.814,3.754L559.9,474.3l-1.9-.307-1.469-.612-4.591-7.18-1.284-.388-6.2,2-4.733.816-7.425.612-1.59,1.143-.919,2.019-.754,2.856L527.9,477.4l-2.244-.387-2.2.082-5.835,2.305-1.529-1.2-1.142-2.182-1.9-.531-2.306,1.469-5.1,5.1-3.651,2.651-1.876.98-14.259,1.367-3.038.571-1.388,1.2-.713,2.06-.592,5.569.265,9.566-.734,3.712L460.684,541.1l-1.814,8.629,1.734,4.956.571,5.2-.551,5.854.551,16.176,2.264,9.79,2.509,5.242,1.9,5.569.224,5.569-.836,7.71.082,1.938,5.343,10.383,2.183,5.711-.1,5.569-1.1,5.609-1.651,11.28-1.184,5.16-1.55,5.018-4.813,10.668-5.2,7.568-2.387,5.018-6.466,9.526-2.651,9.608-2.428,4.671-3.977,3.447-4.835,1.673-3.345,2.937L429.965,734.8l-1.183,2.264-1.712,1.9-1.183,2.366-.551,2.774-1.815,3.692-1.224,5.323-.878,10.343.041,4.875,1.836,14.035.856,4.508,1.347,4.344,6.282,8.833,1.51,4.916.612,5.385,2.121,5.2.652,4.957-2.528,4.589-1,5.079v10.811l-.53,5.9v8.73l.53,2.611,5.936,8.241,2,4.65.938,6.651,1.591,3.508.51,3.121.9,2.9,1.59,1.326,6.691,4.2,3.2,4.977,2.285,1.244,2.57.8,8.608,1.305,4.468,1.571,11.2,9.526,3.446,1.245,11.852-.327,3.876-1.571,3.611-2.754,9.342-5.793,9.649-5.058,9.1-2.611,9.22-.123,4.223-.918,8.526-4.63,4-3.162,6.18-8.75,4.407-10.158,1.9-5.507,1.223-5.732,1.836-4.508,2.427-4.243,5.854-11.423,1.53-5.384.959-5.61,6.446-18.2,3.2-11.014,2.794-11.118,2.733-12.81,1.225-3.284,10.953-25.069,8.179-22.5,5.794-20.419,6.589-20.153,4.651-11.383,4.16-11.565,5.834-19.256,6.671-18.685,6.507-14.911,4.325-11.3,3.14-9.464,5.651-19.929,1.2-10.423-1.469-14.707.755-4.834,4.079-9.444,2.449-4.631,1.754-1.754,4.182-1.979,1.183-1.551-1-2.59-.062-2.53,3.325-4.549,1.367-5.3.223-10.505-1.57-4.406-1.653-1.713-1.061-2.04.245-6.731-.265-5.345-.938-5.263-.407-5.854.672-2.08,3.325-3.284,4.386-.449,1.509.836,1.1,5.263,3.224,10.4,2.733,4.406,3.468,2.693.938.122,2.264-2.692,1.244-1.958,5.038-10.444,3.652-11.076Z" transform="translate(-421.418 -299.22)" fill="#00b8cc" stroke="#f9f9f9" stroke-linecap="round" stroke-linejoin="round" stroke-width="0.15" fill-rule="evenodd"/>
    </g>
    <circle id="Ellipse_121" data-name="Ellipse 121" cx="7" cy="7" r="7" transform="translate(145 530.755)" fill="#de6e6e"/>
    <circle id="Ellipse_126" data-name="Ellipse 126" cx="7" cy="7" r="7" transform="translate(235 283.755)" fill="#de6e6e"/>
    <circle id="Ellipse_124" data-name="Ellipse 124" cx="7" cy="7" r="7" transform="translate(159 487.755)" fill="#de6e6e"/>
    <circle id="Ellipse_125" data-name="Ellipse 125" cx="7" cy="7" r="7" transform="translate(192 402.755)" fill="#de6e6e"/>
    <text id="Mananara_to_Vangaindrano" data-name="Mananara to Vangaindrano" transform="translate(168 542.755)" fill="#1f1f1f" font-size="14" font-family="Avenir-Heavy, Avenir" font-weight="800"><tspan x="0" y="0">Mananara to Vangaindrano</tspan></text>
    <text id="Tamatave" transform="translate(258 295.755)" fill="#1f1f1f" font-size="14" font-family="Avenir-Heavy, Avenir" font-weight="800"><tspan x="0" y="0">Tamatave</tspan></text>
    <text id="Farafagana" transform="translate(182 499.755)" fill="#1f1f1f" font-size="14" font-family="Avenir-Heavy, Avenir" font-weight="800"><tspan x="0" y="0">Farafagana</tspan></text>
    <text id="Mahanoro" transform="translate(215 414.755)" fill="#1f1f1f" font-size="14" font-family="Avenir-Heavy, Avenir" font-weight="800"><tspan x="0" y="0">Mahanoro</tspan></text>
  </g>
</svg>
