<svg id="Component_111_1" data-name="Component 111 – 1" xmlns="http://www.w3.org/2000/svg" xmlns:xlink="http://www.w3.org/1999/xlink" width="102.517" height="111.576" viewBox="0 0 102.517 111.576">
  <defs>
    <clipPath id="clip-path">
      <rect id="Rectangle_1007" data-name="Rectangle 1007" width="102.517" height="111.576" fill="#f6f6f6"/>
    </clipPath>
  </defs>
  <g id="Group_2044" data-name="Group 2044" clip-path="url(#clip-path)">
    <path id="Path_2834" data-name="Path 2834" d="M32.339,111.575c-1.847-.341-3.736-.536-5.535-1.047C12.559,106.482,3.813,97.1.791,82.7c-2.3-10.953.57-21.169,6.589-30.29A253.832,253.832,0,0,0,32.543,2.352c.077-.2.163-.4.235-.609A2.231,2.231,0,0,1,35,0a2.283,2.283,0,0,1,2.128,1.728c2.022,5.009,3.973,10.05,6.114,15.007a218.083,218.083,0,0,0,15.3,29.416c.19.3.4.6.648.975,6.515-2.114,10.707-6.359,12.357-13.013a13.67,13.67,0,0,0,.418-3.119c.048-4.794.03-9.589.034-14.383,0-.131-.021-.261-.062-.744-.96,1.009-1.7,1.832-2.491,2.61-1.138,1.123-2.418,1.195-3.354.231-.908-.933-.834-2.183.244-3.275q3.024-3.063,6.088-6.086a2.2,2.2,0,0,1,3.518,0q3.07,3.017,6.086,6.088c1.08,1.1,1.147,2.347.239,3.277-.939.962-2.214.889-3.353-.237-.787-.778-1.53-1.6-2.293-2.4l-.261.148v1.807q0,5.775,0,11.55c0,9.809-5.058,17.362-14.131,21.114-.156.064-.307.143-.556.26A49.018,49.018,0,0,1,68.8,67.216c13.022-.3,23.635-12.166,22.693-25.142-.87.923-1.586,1.72-2.342,2.476-1.2,1.2-2.471,1.3-3.431.315-.933-.955-.83-2.2.313-3.354q2.953-2.98,5.933-5.933c1.291-1.277,2.382-1.28,3.674,0q2.986,2.947,5.935,5.93c1.145,1.156,1.248,2.4.32,3.357-.959.987-2.234.886-3.432-.306-.759-.756-1.484-1.546-2.252-2.351C95.125,59.216,86.286,68.978,69.6,71.874c.062.813.168,1.747.2,2.683a35.975,35.975,0,0,1-3.54,16.984c-.775,1.623-1.894,2.2-3.162,1.618-1.251-.571-1.566-1.851-.8-3.443a31.444,31.444,0,0,0,3.15-14.754c-.03-1.046-.157-2.089-.238-3.118-5.8-.651-10.993.138-13.929,6.181a14.45,14.45,0,0,0-1.033,4.292c-.208,1.492-.962,2.456-2.241,2.44-1.322-.016-2.162-1.035-2.148-2.6A15.313,15.313,0,0,1,60.441,67.346c1.232-.036,2.465-.005,3.841-.005-.1-.444-.163-.813-.259-1.175a44.685,44.685,0,0,0-6.58-13.657c-.161-.237-.477-.528-.719-.526-4.462.031-8.85.482-12.872,2.643q-12.51,6.72-13.267,20.912a3.844,3.844,0,0,1-.5,1.832,1.879,1.879,0,0,1-2.31.737,2.148,2.148,0,0,1-1.532-2.254,26.9,26.9,0,0,1,3.574-13.531C35.146,53.2,43.141,48.335,53.706,47.729c.144-.008.287-.022.641-.049A255.47,255.47,0,0,1,34.976,8.285c-.283.656-.478,1.084-.653,1.521A242.26,242.26,0,0,1,15.207,48.237c-2.113,3.384-4.4,6.678-6.261,10.2a37.615,37.615,0,0,0-4.491,18.74C4.81,92.246,17.1,105.539,32.082,107.051a29.281,29.281,0,0,0,16.44-3.154c.259-.131.511-.276.771-.4,1.358-.676,2.591-.4,3.21.72a2.165,2.165,0,0,1-1.211,3.129,62.277,62.277,0,0,1-7.139,2.889,62.241,62.241,0,0,1-6.583,1.345Z" transform="translate(0 0)" fill="#f6f6f6"/>
    <path id="Path_2835" data-name="Path 2835" d="M160.683,278.435a2.172,2.172,0,1,1,2.221-2.066,2.2,2.2,0,0,1-2.221,2.066" transform="translate(-102.459 -177.112)" fill="#f6f6f6"/>
  </g>
</svg>
