<svg id="Component_119_1" data-name="Component 119 – 1" xmlns="http://www.w3.org/2000/svg" xmlns:xlink="http://www.w3.org/1999/xlink" width="112.028" height="111.576" viewBox="0 0 112.028 111.576">
  <defs>
    <clipPath id="clip-path">
      <rect id="Rectangle_1038" data-name="Rectangle 1038" width="36.443" height="56.37" fill="#f6f6f6"/>
    </clipPath>
    <clipPath id="clip-path-2">
      <rect id="Rectangle_1039" data-name="Rectangle 1039" width="112.028" height="111.576" fill="#f6f6f6"/>
    </clipPath>
  </defs>
  <g id="Group_2149" data-name="Group 2149" transform="translate(38 28)">
    <g id="Group_2148" data-name="Group 2148" clip-path="url(#clip-path)">
      <path id="Path_2865" data-name="Path 2865" d="M0,68.3a1.967,1.967,0,0,1,2.032-1.052,17.13,17.13,0,0,1,9.213,3.083c.2.141.406.279.645.443a19.05,19.05,0,0,1,.954-2.208,19.573,19.573,0,0,1,2.245-3.4c1.885-2.06,4.4-2,6.36.009A13.862,13.862,0,0,1,24.225,69.9c.11.275.219.551.3.756,1.377-.731,2.7-1.526,4.093-2.151a15.143,15.143,0,0,1,6.1-1.247,1.524,1.524,0,0,1,1.651,2.089c-.5,2.157-.921,4.334-1.524,6.461a13.024,13.024,0,0,1-9.792,9.578c-.563.149-.8.328-.832.963-.275,6.444-.591,12.886-.9,19.328a1.526,1.526,0,0,1-1.706,1.638q-3.4.014-6.8,0a1.506,1.506,0,0,1-1.667-1.6q-.46-9.664-.9-19.328a.883.883,0,0,0-.791-.995c-5.5-1.464-8.811-5.046-10.1-10.555C.918,72.957.454,71.078,0,69.2v-.9" transform="translate(0 -50.955)" fill="#f6f6f6"/>
      <path id="Path_2866" data-name="Path 2866" d="M27.831,12.1c.244-.672.466-1.379.754-2.057A18.856,18.856,0,0,1,34.2,2.352a9.656,9.656,0,0,1,12.63,0,19.289,19.289,0,0,1,6.282,9.511,1.448,1.448,0,0,1,.043.227c-1.353.444-2.665.893-3.993,1.288-.164.049-.469-.144-.616-.308-.747-.83-1.386-1.772-2.2-2.522a8.423,8.423,0,0,0-11.7.044c-.9.839-1.656,1.842-2.522,2.819l-4.3-1.308" transform="translate(-22.283 0)" fill="#f6f6f6"/>
    </g>
  </g>
  <g id="Group_2151" data-name="Group 2151">
    <g id="Group_2150" data-name="Group 2150" clip-path="url(#clip-path-2)">
      <path id="Path_2867" data-name="Path 2867" d="M87.692,19.905c0-1.341.016-2.458,0-3.575-.031-1.792-.717-2.5-2.5-2.443-15.042.443-26.659,7.018-34.941,19.548-.21.318-.408.643-.58.914a35.272,35.272,0,0,0-3.115-2.519A34.5,34.5,0,0,0,43,30.051,48.377,48.377,0,0,1,56.141,15.593,49.02,49.02,0,0,1,84.857,5.919c2.232-.036,2.825-.638,2.835-2.875,0-.779-.018-1.558.019-2.335A.923.923,0,0,1,88,.024c.154-.082.517.06.695.212q5.282,4.516,10.54,9.057c.455.391.486.746.015,1.15Q93.93,15,88.612,19.564a3.946,3.946,0,0,1-.92.341" transform="translate(-29.607 0)" fill="#f6f6f6"/>
      <path id="Path_2868" data-name="Path 2868" d="M34.717,184.364a34.178,34.178,0,0,0-2.5,3.068,35.065,35.065,0,0,0-1.8,3.58,46.4,46.4,0,0,1-10.136-8.027,49.136,49.136,0,0,1-14-33.662c-.062-2.472-.569-2.977-3.074-2.991-.973-.006-1.946-.051-3.2-.086.383-.574.524-.84.716-1.063,2.89-3.368,5.8-6.716,8.668-10.106.658-.779,1.053-.755,1.7.017,2.759,3.275,5.581,6.5,8.36,9.755a6.573,6.573,0,0,1,.648,1.167,7.534,7.534,0,0,1-1.274.306c-.737.051-1.479,0-2.219.018-1.715.045-2.412.728-2.361,2.463.439,15.087,7.04,26.731,19.623,35.02.291.192.588.374.852.542" transform="translate(0 -92.613)" fill="#f6f6f6"/>
      <path id="Path_2869" data-name="Path 2869" d="M248.247,48.248a13.2,13.2,0,0,0,4.31-6.652,47.584,47.584,0,0,1,11.707,9.663A49.145,49.145,0,0,1,276.829,83.6c.042,2.155.652,2.754,2.825,2.763,1.052,0,2.1,0,3.155,0l.15.494L272.877,98.575,262.784,86.848l.23-.481c.98,0,1.961,0,2.942,0,2.4,0,2.992-.553,2.894-2.977-.6-14.828-7.158-26.3-19.526-34.468-.323-.213-.656-.411-1.076-.673" transform="translate(-170.932 -28.641)" fill="#f6f6f6"/>
      <path id="Path_2870" data-name="Path 2870" d="M185.67,247.262a13.361,13.361,0,0,0,6.874,4.321c-2.161,2.772-4.028,5.558-6.28,7.985a48.88,48.88,0,0,1-35.981,16.212c-2.178.053-2.771.641-2.782,2.808-.005,1.053,0,2.107,0,3.16l-.393.082a6.189,6.189,0,0,1-.736-.474c-3.369-2.888-6.719-5.8-10.105-8.666-.739-.626-.833-1.02-.023-1.7,3.338-2.8,6.618-5.678,9.932-8.51a5.126,5.126,0,0,1,.984-.527,5.581,5.581,0,0,1,.326,1.142c.053.736.006,1.478.018,2.218.03,1.869.693,2.557,2.559,2.5,14.988-.463,26.584-7.009,34.86-19.485.193-.292.374-.591.562-.886a1.9,1.9,0,0,1,.185-.178" transform="translate(-93.418 -170.254)" fill="#f6f6f6"/>
    </g>
  </g>
</svg>
