<svg id="Component_113_1" data-name="Component 113 – 1" xmlns="http://www.w3.org/2000/svg" xmlns:xlink="http://www.w3.org/1999/xlink" width="99.627" height="108.111" viewBox="0 0 99.627 108.111">
  <defs>
    <clipPath id="clip-path">
      <rect id="Rectangle_1009" data-name="Rectangle 1009" width="99.627" height="108.111" fill="#f6f6f6"/>
    </clipPath>
  </defs>
  <g id="Group_2048" data-name="Group 2048" clip-path="url(#clip-path)">
    <path id="Path_2837" data-name="Path 2837" d="M39.02,108.111a15.994,15.994,0,0,1-1.859-.7,6.687,6.687,0,0,1-3.86-6.082c-.027-.908,0-1.818,0-2.668-2.065-.523-4.07-.906-5.993-1.539A30.35,30.35,0,0,1,6.627,71.713c-.13-1.224.34-1.924,1.29-2.043,1.018-.127,1.651.452,1.853,1.694.017.1.027.209.039.314a23.536,23.536,0,0,0,2.226,7.875c5.267,10.6,13.886,15.894,25.72,15.979,4.97.036,9.94.005,14.91.008a7.748,7.748,0,0,1,1.16.049,1.446,1.446,0,0,1,1.353,1.6A1.426,1.426,0,0,1,53.8,98.663a9.532,9.532,0,0,1-1.161.039q-7.455,0-14.91,0H36.51a26.642,26.642,0,0,0,.024,3.227,3.544,3.544,0,0,0,3.465,3q9.781.049,19.562,0a3.6,3.6,0,0,0,3.58-3.573c.028-.84,0-1.681,0-2.655-1.016,0-1.959.019-2.9,0-1.2-.03-1.836-.6-1.829-1.58s.654-1.577,1.849-1.565a34.239,34.239,0,0,0,10.349-1.172A27.43,27.43,0,0,0,90.006,68.805c.051-3.265.008-6.531.008-9.873H9.589c0,1.14,0,2.287,0,3.435,0,.809.029,1.62-.013,2.427a1.632,1.632,0,0,1-1.567,1.672,1.586,1.586,0,0,1-1.581-1.736c-.022-1.895-.006-3.79-.006-5.877-.824,0-1.58.008-2.336,0-2.6-.032-4.052-1.474-4.073-4.072-.019-2.463-.014-4.925,0-7.388.013-2.791,1.434-4.221,4.244-4.225,8.495-.012,16.99.009,25.484-.03a3.673,3.673,0,0,0,1.934-.593c5.652-3.835,11.269-7.719,16.9-11.589.2-.14.4-.288.612-.414a1.576,1.576,0,0,1,2.244.362,1.54,1.54,0,0,1-.444,2.223c-1.484,1.071-3.007,2.088-4.515,3.126q-4.438,3.052-8.876,6.1c-.274.189-.534.4-.992.743.572.031.905.064,1.239.064,8.46,0,16.919-.007,25.379.018a1.772,1.772,0,0,0,1.652-.823Q71.4,33.208,77.99,24.1c.2-.284.4-.572.541-.769l-5.418-5.387c-.757.515-1.714,1.158-2.665,1.811q-6.789,4.666-13.576,9.336a6.338,6.338,0,0,1-.8.5,1.559,1.559,0,0,1-1.741-2.556,7.053,7.053,0,0,1,.852-.622Q62.532,21.36,69.886,16.3c.347-.238.691-.48,1.2-.833-1.251-1.225-2.457-2.39-3.647-3.572-2.614-2.6-2.616-5.406-.016-8.01.771-.772,1.534-1.554,2.321-2.311a4.954,4.954,0,0,1,7.2-.056q9.015,8.913,17.947,17.909a4.925,4.925,0,0,1,.061,7.11q-1.408,1.5-2.917,2.908a4.951,4.951,0,0,1-7.043-.045c-1.341-1.283-2.612-2.639-4-4.048L68.168,43.164H94.855c.353,0,.706-.01,1.057.015A3.65,3.65,0,0,1,99.594,47q.067,4.009,0,8.02a3.664,3.664,0,0,1-3.88,3.833c-.8.021-1.6,0-2.518,0,0,.682.009,1.236,0,1.789-.07,3.725.092,7.473-.259,11.172-1.169,12.3-10.619,22.978-22.741,25.948-1.227.3-2.474.517-3.873.8,0,.709,0,1.469,0,2.229q-.019,5.626-5.458,7.158a1.246,1.246,0,0,0-.27.157Zm10.9-61.782q-22.682,0-45.364,0c-1.326,0-1.372.047-1.375,1.354q-.007,3.219,0,6.438c0,1.565,0,1.567,1.581,1.567H58.9q18.082,0,36.164,0c1.332,0,1.373-.041,1.375-1.349q.007-3.219,0-6.438c0-1.57,0-1.572-1.582-1.572H49.916m23.529-43.3a7.207,7.207,0,0,0-1.428.782c-.939.849-1.829,1.755-2.7,2.675a1.822,1.822,0,0,0,.062,2.87q8.845,8.852,17.714,17.68a1.826,1.826,0,0,0,2.879,0c.867-.824,1.713-1.673,2.543-2.534a1.87,1.87,0,0,0,.015-2.959q-8.8-8.82-17.645-17.6a8.1,8.1,0,0,0-1.44-.914" transform="translate(0 0)" fill="#f6f6f6"/>
    <path id="Path_2838" data-name="Path 2838" d="M26.819,23a6.457,6.457,0,1,1-6.391-6.465A6.435,6.435,0,0,1,26.819,23m-6.412-3.3A3.278,3.278,0,1,0,23.648,23,3.264,3.264,0,0,0,20.407,19.7" transform="translate(-9.983 -11.869)" fill="#f6f6f6"/>
    <path id="Path_2839" data-name="Path 2839" d="M95.976,70.732A6.445,6.445,0,1,1,102.5,64.4a6.418,6.418,0,0,1-6.529,6.33m.031-3.163a3.27,3.27,0,0,0,3.327-3.226,3.284,3.284,0,1,0-6.568-.086,3.269,3.269,0,0,0,3.24,3.312" transform="translate(-64.328 -41.53)" fill="#f6f6f6"/>
  </g>
</svg>
