<svg id="Component_120_1" data-name="Component 120 – 1" xmlns="http://www.w3.org/2000/svg" xmlns:xlink="http://www.w3.org/1999/xlink" width="91.721" height="108" viewBox="0 0 91.721 108">
  <defs>
    <clipPath id="clip-path">
      <rect id="Rectangle_1052" data-name="Rectangle 1052" width="91.721" height="108" fill="#f6f6f6"/>
    </clipPath>
  </defs>
  <g id="Group_2182" data-name="Group 2182" clip-path="url(#clip-path)">
    <path id="Path_2874" data-name="Path 2874" d="M47.113,0c2.015.6,3.475,1.986,4.991,3.351A42.691,42.691,0,0,0,75.685,14.117c2.989.39,6.017.516,9.033.641,3.787.158,6.681,2.766,6.742,6.566.175,10.786.683,21.581-.485,32.347-1.134,10.453-3.792,20.418-9.533,29.38-6.349,9.91-15.274,16.745-25.863,21.55-2.766,1.256-5.641,2.273-8.466,3.4H44.582c-3.615-1.508-7.32-2.833-10.831-4.555C16.283,94.882,5.769,80.947,1.974,61.894A116.125,116.125,0,0,1,0,38.722C.02,33.168.106,27.614.187,22.06c.066-4.58,2.753-7.248,7.318-7.287,7.675-.066,15.1-1.295,22.076-4.664A41.426,41.426,0,0,0,39.668,3.28,12.889,12.889,0,0,1,44.582,0ZM6.5,35.738H6.31q0,1.476,0,2.952c.014,8.52.506,16.99,2.623,25.294,2.49,9.764,7.119,18.275,14.64,25.1,6.129,5.563,13.3,9.329,21,12.181a3.272,3.272,0,0,0,2.607-.036c2.48-1.067,5.022-2,7.451-3.176,12.235-5.9,21.28-14.849,26.128-27.722a76.969,76.969,0,0,0,4.5-26.03c.129-7.342-.052-14.689-.056-22.033,0-.929-.306-1.143-1.208-1.2-3.71-.252-7.446-.4-11.11-.978A47.924,47.924,0,0,1,46.746,7.005c-.672-.644-1.078-.695-1.779-.017a48.61,48.61,0,0,1-12.631,8.85c-7.64,3.706-15.777,5.118-24.191,5.252-1.62.026-1.639.017-1.643,1.68-.011,4.323,0,8.645,0,12.967" transform="translate(0)" fill="#f6f6f6"/>
    <path id="Path_2875" data-name="Path 2875" d="M114.205,139.435c0,3.321,0,6.482,0,9.644,0,2.471-1.211,3.676-3.69,3.678q-5.853.006-11.706,0c-2.326,0-3.563-1.251-3.568-3.59-.006-3.194,0-6.389,0-9.731H92.9c-2.5,0-4.992.007-7.488,0a3.177,3.177,0,0,1-3.5-3.447q-.018-6.011,0-12.023a3.181,3.181,0,0,1,3.456-3.492c3.232-.016,6.464,0,9.863,0v-1.148c0-2.883-.007-5.765,0-8.648a3.2,3.2,0,0,1,3.532-3.524q5.959-.017,11.917,0a3.2,3.2,0,0,1,3.513,3.54c.009,2.883,0,5.765,0,8.648v1.131h3.446c2.215,0,4.43-.025,6.644.012a3.1,3.1,0,0,1,3.219,3.186q.041,6.275,0,12.55a3.112,3.112,0,0,1-3.3,3.215c-2.918.022-5.836.006-8.753.006h-1.262m-6.327,6.945c0-3.22,0-6.31,0-9.4,0-2.749,1.136-3.87,3.919-3.871q4.112,0,8.225,0h1.117v-6.314H120.05c-2.917,0-5.835.008-8.752,0a3.159,3.159,0,0,1-3.416-3.414c-.012-2.917,0-5.835,0-8.752v-1.084h-6.313v1.1c0,2.882.006,5.764,0,8.646a3.188,3.188,0,0,1-3.543,3.5c-1.828.005-3.655,0-5.483,0H88.321v6.314c3.343,0,6.607-.012,9.87,0a3.148,3.148,0,0,1,3.369,3.358c.016,2.636,0,5.272,0,7.908v2Z" transform="translate(-58.874 -77.006)" fill="#f6f6f6"/>
  </g>
</svg>
