<svg id="Component_122_1" data-name="Component 122 – 1" xmlns="http://www.w3.org/2000/svg" xmlns:xlink="http://www.w3.org/1999/xlink" width="103.068" height="103.095" viewBox="0 0 103.068 103.095">
  <defs>
    <clipPath id="clip-path">
      <rect id="Rectangle_1053" data-name="Rectangle 1053" width="103.068" height="103.096" fill="#f6f6f6"/>
    </clipPath>
  </defs>
  <g id="Group_2185" data-name="Group 2185">
    <g id="Group_2184" data-name="Group 2184" clip-path="url(#clip-path)">
      <path id="Path_2876" data-name="Path 2876" d="M69.008,65.135c1.339,1.3,2.665,2.641,4.055,3.906a1.388,1.388,0,0,0,1.148.187,8.64,8.64,0,0,1,9.361,2.41C89.19,77.3,94.886,82.892,100.48,88.58a8.367,8.367,0,0,1-3.1,14,7.888,7.888,0,0,1-8.518-1.874q-9.014-8.839-17.854-17.856a7.893,7.893,0,0,1-1.841-8.295,1.6,1.6,0,0,0-.479-1.932c-1.236-1.167-2.392-2.417-3.571-3.622a39.184,39.184,0,1,1,3.894-3.868M39.256,72.979A33.674,33.674,0,1,0,5.63,39.222,33.779,33.779,0,0,0,39.256,72.979m38.311,1.336c-1.6.075-2.492.614-2.975,1.728a2.741,2.741,0,0,0,.727,3.236q8.6,8.61,17.216,17.2a2.8,2.8,0,1,0,3.942-3.97q-8.575-8.633-17.219-17.2a6.875,6.875,0,0,0-1.691-1" transform="translate(0 0)" fill="#f6f6f6"/>
    </g>
  </g>
  <path id="Path_2877" data-name="Path 2877" d="M13688.922,17750.479l-10.552,10.553-10.55-10.553-18.036,18.035-22.744-22.744-15.26,15.262" transform="translate(-13598.816 -17716.965)" fill="none" stroke="#f6f6f6" stroke-width="5"/>
</svg>
