<svg id="Component_118_1" data-name="Component 118 – 1" xmlns="http://www.w3.org/2000/svg" xmlns:xlink="http://www.w3.org/1999/xlink" width="115.813" height="111.576" viewBox="0 0 115.813 111.576">
  <defs>
    <clipPath id="clip-path">
      <rect id="Rectangle_1005" data-name="Rectangle 1005" width="115.813" height="111.576" fill="#f6f6f6"/>
    </clipPath>
  </defs>
  <g id="Group_2039" data-name="Group 2039" clip-path="url(#clip-path)">
    <path id="Path_2831" data-name="Path 2831" d="M100.275,53.909c-3.307,0-6.517-.034-9.725.023a1.26,1.26,0,0,1-1.462-1.017c-.289-.909-.722-1.772-1.155-2.805h12.553c-.378-2.732-.6-5.315-1.112-7.838a47.53,47.53,0,0,0-9.131-19.806,1.3,1.3,0,0,0-1.772-.518c-4.8,1.69-9.633,3.268-14.37,4.856l4.982,13.17-.3.2c-1.431-.642-2.88-1.249-4.277-1.957-.283-.143-.395-.659-.547-1.019q-1.894-4.479-3.77-8.965a1.053,1.053,0,0,0-1.257-.778c-4.712.482-9.43.9-14.146,1.338-.195.018-.388.046-.707.084,0,2.662-.118,5.307.039,7.935.115,1.93-.18,3.409-2.2,4.149a8.484,8.484,0,0,0-1.627,1.117V28.812c-1.9-.131-3.69-.189-5.464-.39-3.51-.4-7.009-.892-10.518-1.3a1.36,1.36,0,0,0-1.125.422A47.844,47.844,0,0,0,27.55,49.7a1.48,1.48,0,0,0,.1.323H43.743c-.53,1.268-.953,2.425-1.513,3.511-.129.25-.727.361-1.111.364-3.98.025-7.959.015-11.939.015H27.61c.321,2.114.55,4.124.94,6.1a59.547,59.547,0,0,0,5.455,15.605c.409.8.828.925,1.683.8,2.779-.413,5.576-.715,8.371-1.007a1.513,1.513,0,0,1,1.131.384c.88.98,1.669,2.041,2.564,3.162L36.746,80.034c.816,2.771,9.289,13.747,13.472,17.47V81.132c1.274.777,2.471,1.454,3.594,2.237.23.16.252.716.254,1.09.017,3.972.011,7.943.011,11.914v1.5c1.605-1.557,3.029-2.833,4.328-4.224,1.89-2.023,3.67-4.148,5.55-6.181a2.38,2.38,0,0,1,1.38-.648c1.3-.15,2.608-.171,4.066-.251A88.76,88.76,0,0,1,57.7,99.716a38.328,38.328,0,0,0,11.467-2.758c3.531-1.5,6.931-3.3,10.474-5.016L81.977,94.4c-17.185,12.962-46.038,14.174-65.84-4.9A52,52,0,0,1,85.9,12.424c21.525,18.475,22.25,47.025,11.764,64.512l-2.7-2.7a47.733,47.733,0,0,0,5.315-20.327m-96.287.05A48.115,48.115,0,0,0,14.321,81.794c.486.623.889.426,1.438.234,3.368-1.174,6.734-2.356,10.124-3.464,1.5-.49,3.053-.811,4.695-1.238a62.846,62.846,0,0,1-6.793-23.368Zm-.043-3.993H23.652a53.048,53.048,0,0,1,5.733-23.583c-4.768-1.552-9.44-3.085-14.127-4.569a1.138,1.138,0,0,0-.941.388A47.68,47.68,0,0,0,3.945,49.966M46.817,99.837a5.558,5.558,0,0,0-.389-.56A97.041,97.041,0,0,1,32.852,81.55a1.3,1.3,0,0,0-1.116-.438c-2.38.557-4.761,1.128-7.1,1.836-2.361.714-4.673,1.591-7.2,2.462A48.7,48.7,0,0,0,46.817,99.837M57.6,4.15a1.853,1.853,0,0,0,.193.438,95.979,95.979,0,0,1,13.728,17.9,1.3,1.3,0,0,0,1.144.373c3.215-.843,6.422-1.717,9.608-2.661,1.481-.439,2.91-1.053,4.548-1.656A48.527,48.527,0,0,0,57.6,4.15m-11.106.015A47.286,47.286,0,0,0,17.677,18.636c4.277,1.387,8.56,2.551,12.825,3.775.789.226,1.092-.073,1.521-.663,2.663-3.66,5.281-7.361,8.122-10.881,1.85-2.292,4.052-4.3,6.348-6.7m3.688,2.028A80.569,80.569,0,0,0,35.388,23.6l14.794,1.473Zm17.64,17.784A91.879,91.879,0,0,0,54.152,6.457V25.108l13.669-1.131" transform="translate(0 0)" fill="#f6f6f6"/>
    <path id="Path_2832" data-name="Path 2832" d="M183.17,162.157c1.4-.945,2.4-.384,3.416.639,7,7.029,14.051,14.006,21.046,21.039a7.71,7.71,0,1,1-11.01,10.784q-9.283-9.289-18.588-18.556c-.91-.908-1.8-1.831-2.732-2.72a2.185,2.185,0,0,1-.612-2.508,1.17,1.17,0,0,0-.206-.988c-1.211-1.285-2.457-2.541-3.75-3.743a1.2,1.2,0,0,0-1.1-.136c-11.281,6.18-23.643-.143-28.594-9.426-4.593-8.613-1.611-20.408,6.711-26.4a20.973,20.973,0,0,1,33.156,14.245,21.359,21.359,0,0,1-1.952,12.52,1.221,1.221,0,0,0,.13,1.1c1.311,1.407,2.69,2.75,4.08,4.148M160.027,130.01a17.276,17.276,0,0,0-.153,34.551c6.911.094,17.722-6.745,17.465-17.11-.241-9.753-7.692-17.458-17.312-17.441m19.261,41.828q10.139,10.137,20.277,20.263a4.15,4.15,0,0,0,.866.645,3.9,3.9,0,0,0,4.746-.711,3.8,3.8,0,0,0,.323-4.771,8.129,8.129,0,0,0-.95-1.083q-9.544-9.534-19.1-19.056c-.27-.269-.568-.511-.766-.687l-5.4,5.4m-2.958-10.917-2.672,2.343,4.151,4.184,2.558-2.464-4.037-4.063" transform="translate(-94.23 -85.559)" fill="#f6f6f6"/>
  </g>
</svg>
