<svg id="Component_120_1" data-name="Component 120 – 1" xmlns="http://www.w3.org/2000/svg" xmlns:xlink="http://www.w3.org/1999/xlink" width="97.842" height="111.576" viewBox="0 0 97.842 111.576">
  <defs>
    <clipPath id="clip-path">
      <rect id="Rectangle_1010" data-name="Rectangle 1010" width="97.842" height="111.576" fill="#f6f6f6"/>
    </clipPath>
  </defs>
  <g id="Group_2053" data-name="Group 2053" clip-path="url(#clip-path)">
    <path id="Path_2840" data-name="Path 2840" d="M7.425,111.576a23.843,23.843,0,0,1-4.163-2A8.479,8.479,0,0,1,.784,99.279a8.711,8.711,0,0,1,9.384-5c.213.037.429.049.769.086V92.934q0-44.936,0-89.872c0-.4-.02-.8.01-1.2A1.883,1.883,0,0,1,12.836,0a1.815,1.815,0,0,1,1.811,1.915c.03,2.033.01,4.067.012,6.1,0,.388,0,.777,0,1.229H83.182c0-.45,0-.838,0-1.226,0-2.07-.021-4.14.019-6.209A1.788,1.788,0,0,1,85,0a1.863,1.863,0,0,1,1.869,1.645A9.365,9.365,0,0,1,86.9,2.95q0,44.99,0,89.981v1.475a8.872,8.872,0,0,1,5.771.509,8.694,8.694,0,0,1-1.241,16.335c-.343.1-.679.217-1.019.325H87.8a21.59,21.59,0,0,1-3.736-1.669,8.629,8.629,0,0,1-1.5-12.833,2.247,2.247,0,0,0,.6-1.292c.04-5.484.027-10.969.023-16.453a6.678,6.678,0,0,0-.076-.69H22.435c-.031.316-.083.6-.084.874-.006,2.652-.019,5.3,0,7.954s1.49,4.095,4.153,4.1q22.439.009,44.878,0a3.731,3.731,0,0,0,4.1-4.038c.018-1.053-.015-2.107.012-3.16.032-1.292.678-2.008,1.785-2.036a1.827,1.827,0,0,1,1.921,2.031,34.9,34.9,0,0,1-.129,4.566,7.185,7.185,0,0,1-6.963,6.322c-3.747.084-7.5.035-11.246.036q-17.2,0-34.4,0c-3.787,0-6.683-2.112-7.563-5.515a10.364,10.364,0,0,1-.279-2.478c-.031-3.268-.015-6.538-.012-9.806,0-2.076.568-2.639,2.674-2.639q30.137,0,60.275,0h1.554V13.108H22.436c0,3.311-.1,6.573.04,9.825a3.369,3.369,0,0,0,3.208,3.043,11.353,11.353,0,0,0,1.2.044q22.057,0,44.114.007a4.44,4.44,0,0,0,3.252-.972,3.948,3.948,0,0,0,1.243-3.029c.007-.908-.024-1.819.043-2.722a1.667,1.667,0,0,1,1.628-1.617,1.715,1.715,0,0,1,1.924,1.269c1.268,3.758-.7,8.53-4.276,10.077a9.072,9.072,0,0,1-3.487.689q-22.384.067-44.769.022c-4.807-.006-7.914-3.147-7.935-7.931-.013-2.868,0-5.735,0-8.695H14.736V42.062H76.4c2.314,0,2.825.508,2.826,2.813,0,3.232.011,6.465,0,9.7-.021,4.833-3.169,7.956-8.024,7.958q-22.276.007-44.551,0c-4.858,0-8-3.123-8.026-7.956-.006-1.053-.028-2.108.009-3.16a1.854,1.854,0,0,1,1.936-2.025c1.087.034,1.746.772,1.776,2.05.026,1.125-.012,2.252.013,3.378a3.761,3.761,0,0,0,4.058,4q22.494.012,44.988,0c2.25,0,3.913-1.247,4.006-3.32.142-3.182.038-6.375.038-9.642H14.708c-.015.349-.047.731-.047,1.113q0,24.244.017,48.488a2.388,2.388,0,0,0,.463,1.457A8.7,8.7,0,0,1,10.427,111.4a2.029,2.029,0,0,0-.381.18Zm6.321-8.74a5.011,5.011,0,1,0-4.963,5.024,5.035,5.035,0,0,0,4.963-5.024m75.343,5.024a5,5,0,1,0-4.994-4.991,5.042,5.042,0,0,0,4.994,4.991" transform="translate(0 0)" fill="#f6f6f6"/>
  </g>
</svg>
