<svg id="Component_122_1" data-name="Component 122 – 1" xmlns="http://www.w3.org/2000/svg" xmlns:xlink="http://www.w3.org/1999/xlink" width="110" height="110" viewBox="0 0 110 110">
  <defs>
    <clipPath id="clip-path">
      <rect id="Rectangle_1040" data-name="Rectangle 1040" width="110" height="110" fill="#f6f6f6"/>
    </clipPath>
  </defs>
  <g id="Group_2153" data-name="Group 2153" clip-path="url(#clip-path)">
    <path id="Path_2871" data-name="Path 2871" d="M58.438,0c2.049.284,4.106.52,6.145.858,21.251,3.519,39.669,21.086,44.073,42.017a2.29,2.29,0,0,1-1.707,2.975,2.264,2.264,0,0,1-2.75-1.908A50,50,0,0,0,95.456,25c-.278-.372-.566-.735-.7-.913L79.6,29.571c.544,2.9,1.2,5.975,1.687,9.076a104.225,104.225,0,0,1,1.186,18.3c-.035,1.842-1.472,3-3.026,2.512a2.442,2.442,0,0,1-1.563-2.649A97.189,97.189,0,0,0,75,30.862c-.043-.169-.1-.335-.1-.355l-17.541,1.77c-.009.193-.04.572-.04.952,0,4.511.017,9.022-.012,13.533-.013,2.1-1.812,3.266-3.46,2.3a2.561,2.561,0,0,1-1.15-2.492q.009-6.551,0-13.1V32.283l-17.6-1.789a92.387,92.387,0,0,0-2.936,22.13c.414.019.788.05,1.163.05,4.4,0,8.807,0,13.21.005,1.566,0,2.5.671,2.714,1.893A2.183,2.183,0,0,1,47.471,57.2a7.375,7.375,0,0,1-1.388.091c-4.58.006-9.159,0-13.775,0,0,1.617-.112,3.181.024,4.724.279,3.169.681,6.328,1.054,9.489a2.32,2.32,0,0,1-1.77,2.76,2.271,2.271,0,0,1-2.691-2c-.463-3.508-.84-7.029-1.2-10.55-.144-1.417-.148-2.848-.22-4.345H4.652A50.4,50.4,0,0,0,15.485,86.2a62.007,62.007,0,0,1,12.105-4.715c.791-.223,1.582-.451,2.382-.64A2.347,2.347,0,0,1,33,82.494a2.446,2.446,0,0,1-1.893,2.8c-3.951,1.346-7.887,2.737-11.828,4.115a4.23,4.23,0,0,0-.547.286c3.8,5.211,16.587,12.889,23.048,13.812-.7-.855-1.366-1.624-1.979-2.435A46.559,46.559,0,0,1,34.185,91.1a2.289,2.289,0,1,1,4.181-1.831,40.538,40.538,0,0,0,5.762,9.883c2.3,2.775,4.945,5.074,8.54,6.012a12.059,12.059,0,0,0,1.26.239,2.273,2.273,0,0,1,.691,4.418,2.349,2.349,0,0,0-.263.18H51.563c-1.8-.236-3.615-.406-5.4-.718A54.594,54.594,0,0,1,12.3,89.454,53.374,53.374,0,0,1,.827,64.263c-.342-2-.555-4.027-.827-6.041v-6.66c.062-.311.138-.621.185-.934.373-2.508.612-5.044,1.13-7.521C5.773,21.791,23.941,4.4,45.419.841,47.388.514,49.371.278,51.348,0ZM15.18,24.1a49.865,49.865,0,0,0-10.534,28.5H27.54A102.964,102.964,0,0,1,30.5,29.606L15.18,24.1m58.446,1.968a53.132,53.132,0,0,0-5.411-11.948,22.958,22.958,0,0,0-7.2-7.668A37.378,37.378,0,0,0,57.39,4.719V27.654l16.236-1.59m-21,1.588V4.869c-.513.16-.955.274-1.38.435A15.552,15.552,0,0,0,45.419,9.4c-4.2,4.473-6.7,9.9-8.686,15.607-.088.252-.133.518-.27,1.072l16.162,1.579M41.762,6.466c-6.5.906-20.24,9.167-23.075,13.845a64.692,64.692,0,0,0,13.172,4.527c4.058-10.32,4.058-10.32,9.9-18.372M91.441,20.232A50.249,50.249,0,0,0,68.309,6.505c4.737,5.33,7.587,11.643,9.8,18.347a61.049,61.049,0,0,0,13.33-4.621" fill="#f6f6f6"/>
    <path id="Path_2872" data-name="Path 2872" d="M212.71,201.192c-.274,1.321-.493,2.657-.832,3.962a25.054,25.054,0,0,1-23.917,18.825c-5.8.084-11.6.021-17.393.025H169.15v1.241c0,3.257-.015,6.514.007,9.771.007,1.121-.227,2.1-1.354,2.56a2.513,2.513,0,0,1-2.9-.794q-9.967-10-19.958-19.976c-1.358-1.36-1.336-2.508.038-3.883q9.943-9.949,19.886-19.9c.81-.812,1.661-1.385,2.851-.889a2.436,2.436,0,0,1,1.436,2.618c-.029,3.221-.01,6.442-.009,9.663v1.223c.456.022.8.054,1.15.054q12.938,0,25.876,0c6.658-.007,11.363-4.355,11.936-11.007.14-1.63.685-2.437,1.816-2.693,1.1-.249,1.985.284,2.781,1.678v7.52m-48.125,28.567c0-2.5,0-4.889,0-7.279,0-2.288.738-3.031,3.01-3.033,6.838-.006,13.68.121,20.514-.052a19.937,19.937,0,0,0,16.224-8.691c.763-1.045,1.348-2.219,2.067-3.418-.262-.02-.3-.035-.319-.023q-.321.193-.636.394a15.378,15.378,0,0,1-8.4,2.577q-14.983.031-29.966.012a2.255,2.255,0,0,1-2.492-2.555c-.015-2.255,0-4.511-.007-6.766,0-.3-.041-.6-.053-.757L149.688,215l14.9,14.761" transform="translate(-102.71 -136.954)" fill="#f6f6f6"/>
  </g>
</svg>
