<svg id="Component_119_1" data-name="Component 119 – 1" xmlns="http://www.w3.org/2000/svg" xmlns:xlink="http://www.w3.org/1999/xlink" width="111.548" height="111.576" viewBox="0 0 111.548 111.576">
  <defs>
    <clipPath id="clip-path">
      <rect id="Rectangle_1006" data-name="Rectangle 1006" width="111.548" height="111.576" fill="#f6f6f6"/>
    </clipPath>
  </defs>
  <g id="Group_2042" data-name="Group 2042" clip-path="url(#clip-path)">
    <path id="Path_2833" data-name="Path 2833" d="M105.666,111.576H5.9c-4.6-1.652-5.881-3.488-5.881-8.414Q.015,72.877,0,42.592a7.6,7.6,0,0,1,3.5-6.712Q28.624,18.439,53.717.948c1.807-1.258,2.325-1.261,4.1-.029q24.573,17.1,49.159,34.176c2.123,1.469,3.921,3.074,4.574,5.669v64.929c-.245.668-.436,1.363-.743,2a7.4,7.4,0,0,1-5.138,3.881m-15.031-4.629h1.2q5.99,0,11.981,0c2.276,0,3.1-.813,3.1-3.073q0-30.611.015-61.222a3.315,3.315,0,0,0-1.564-3Q81,22.741,56.673,5.764a1.3,1.3,0,0,0-1.786.011Q30.515,22.777,6.1,39.722a3.137,3.137,0,0,0-1.471,2.826q.024,30.72.014,61.44c0,2.112.858,2.953,2.993,2.957q6.1.011,12.2,0h1.091v-1.368q0-11.765,0-23.53c0-2.246.746-2.987,3.018-2.989q5.99-.006,11.98,0h1.285v-1.42q0-11.711,0-23.421c0-2.351.7-3.047,3.052-3.047q15.518,0,31.036,0c2.349,0,3.049.7,3.05,3.05q0,11.765,0,23.53v1.307c4.6,0,8.987,0,13.377,0,2.123,0,2.9.782,2.9,2.884q0,11.057,0,22.114v2.889M37.212,83.757H25.628V106.8H53.344V83.749H41.838c0,1.47.012,2.879,0,4.288a2.377,2.377,0,0,1-2.313,2.615,2.35,2.35,0,0,1-2.307-2.6c-.019-1.408,0-2.817,0-4.291m21.011-.02V106.8H85.943V83.769H74.351c0,1.383.005,2.685,0,3.987-.009,1.841-.889,2.923-2.346,2.9-1.411-.027-2.274-1.109-2.279-2.867,0-1.334,0-2.667,0-4.048ZM41.873,78.889H69.655V55.865H58.122c0,.46,0,.853,0,1.246-.013,1.2.045,2.4-.065,3.59a2.231,2.231,0,0,1-2.278,2.061A2.294,2.294,0,0,1,53.492,60.7a12.325,12.325,0,0,1-.05-1.63c-.006-1.07,0-2.14,0-3.192H41.873Z" transform="translate(0 0)" fill="#f6f6f6"/>
  </g>
</svg>
