<svg id="Component_124_1" data-name="Component 124 – 1" xmlns="http://www.w3.org/2000/svg" xmlns:xlink="http://www.w3.org/1999/xlink" width="122" height="81.392" viewBox="0 0 122 81.392">
  <defs>
    <clipPath id="clip-path">
      <rect id="Rectangle_1008" data-name="Rectangle 1008" width="122" height="81.392" fill="#f6f6f6"/>
    </clipPath>
  </defs>
  <g id="Group_2046" data-name="Group 2046" clip-path="url(#clip-path)">
    <path id="Path_2836" data-name="Path 2836" d="M122,3.505c-.556,2.543-1.151,5.077-1.662,7.629Q114.2,41.762,108.083,72.392c-1.19,5.918-5.046,8.991-11.1,8.993q-18.888.007-37.777,0-17.161,0-34.321.005a10.756,10.756,0,0,1-8.353-3.342,12.79,12.79,0,0,1-2.84-6.56Q6.925,37.47.093,3.463A2.643,2.643,0,0,1,1.076.5,2.115,2.115,0,0,1,3.746.452,4.483,4.483,0,0,1,5.094,2.7c.98,4.5,1.835,9.017,2.736,13.53.208,1.043.429,2.083.7,3.395.88-.7,1.651-1.228,2.316-1.865,1.147-1.1,2.224-2.269,3.339-3.4a12.944,12.944,0,0,1,19.086.021c1.029,1.049,2.01,2.146,3.053,3.181,3.823,3.794,8.368,3.771,12.165-.058,1.007-1.015,1.963-2.08,2.964-3.1a12.926,12.926,0,0,1,19.082-.053c1.424,1.438,2.795,2.941,4.318,4.267a7.363,7.363,0,0,0,9.526.055c1.444-1.234,2.754-2.632,4.075-4,5.791-6.012,13.847-6.013,19.661.016.993,1.029,1.968,2.078,3,3.066.652.624,1.4,1.151,2.311,1.892.424-2.069.807-3.9,1.174-5.743.746-3.734,1.47-7.473,2.232-11.2.425-2.083,1.918-3.156,3.509-2.425C121,.569,121.453,1.3,122,1.837ZM9.507,24.6c.727,3.649,1.429,7.184,2.137,10.719q3.658,18.262,7.329,36.52c.6,2.976,2.414,4.425,5.452,4.427q36.587.015,73.174,0a5,5,0,0,0,5.378-4.371c.847-4.037,1.636-8.087,2.445-12.132q3.418-17.1,6.85-34.189c.144-.713-.032-.974-.63-1.373a55.364,55.364,0,0,1-4.931-3.67c-1.332-1.12-2.437-2.511-3.769-3.631a7.385,7.385,0,0,0-9.347.016c-1.5,1.285-2.861,2.749-4.246,4.169-5.729,5.874-13.8,5.833-19.5-.095-1.32-1.372-2.633-2.765-4.073-4.005a7.369,7.369,0,0,0-9.527,0c-1.551,1.355-2.945,2.889-4.4,4.35a12.929,12.929,0,0,1-18.92.014c-1.011-1.011-1.924-2.127-2.99-3.073A13.95,13.95,0,0,0,26.7,15.9c-3.078-1.418-6.346-.567-9.074,2.2-2.446,2.481-4.659,5.235-8.119,6.491" transform="translate(0 0)" fill="#f6f6f6"/>
  </g>
</svg>
