<svg id="Component_127_1" data-name="Component 127 – 1" xmlns="http://www.w3.org/2000/svg" xmlns:xlink="http://www.w3.org/1999/xlink" width="80.51" height="111.576" viewBox="0 0 80.51 111.576">
  <defs>
    <clipPath id="clip-path">
      <rect id="Rectangle_1021" data-name="Rectangle 1021" width="80.51" height="111.576" fill="#f6f6f6"/>
    </clipPath>
  </defs>
  <g id="Group_2084" data-name="Group 2084" clip-path="url(#clip-path)">
    <path id="Path_2848" data-name="Path 2848" d="M28.816,41.291V36.412c-.857,0-1.7-.019-2.546.007-.973.029-1.847-.207-1.867-1.32-.019-1.02.782-1.333,1.712-1.323a4.992,4.992,0,0,0,.726-.143c-.537-.457-.93-.8-1.332-1.133C19.266,27.362,13.035,22.2,6.76,17.1A3.4,3.4,0,0,1,5.258,14c.124-1.979.031-3.971.031-6.154-1.284,0-2.444-.005-3.605,0A1.476,1.476,0,0,1,0,6.146C.01,4.661.017,3.177,0,1.692-.012.525.6.02,1.707,0,2.066,0,2.425,0,2.782,0L77.889,0c2.425,0,2.617.19,2.617,2.617,0,1.178-.008,2.355,0,3.534A1.463,1.463,0,0,1,78.83,7.843c-1.122-.012-2.243,0-3.61,0,0,2.1-.088,4.132.031,6.149a3.407,3.407,0,0,1-1.5,3.11c-6.238,5.068-12.426,10.193-18.63,15.3-.427.352-.842.718-1.309,1.117.15.117.218.216.289.219.956.053,2.034.122,2,1.372-.041,1.343-1.172,1.321-2.178,1.3-.706-.01-1.41,0-2.206,0v4.879H53.4q7.372,0,14.744,0c1.911,0,2.194.252,2.2,2.08q.01,31.786,0,63.574c0,1.745-.32,2.047-2.064,2.063-1.476.014-2.952,0-4.542,0-.068.9-.129,1.69-.194,2.561H56.35c-.06-.808-.119-1.6-.185-2.473H24.332c-.049.832-.1,1.585-.148,2.447H16.958c-.048-.806-.094-1.558-.151-2.537-1.483,0-2.949.007-4.415,0-1.954-.008-2.219-.265-2.219-2.219q-.005-21.578,0-43.159,0-10.053,0-20.109c0-1.99.238-2.229,2.2-2.231q7.3-.01,14.591,0Zm38.78,65.1V43.922c-.556-.024-1.007-.061-1.457-.061-4.762-.005-9.523.029-14.285-.031a1.87,1.87,0,0,0-1.995,1.2c-1.689,3.44-3.495,6.823-5.2,10.254a2.284,2.284,0,0,1-2.391,1.495c-1.274-.071-2.554-.06-3.83-.005a2.518,2.518,0,0,1-2.656-1.6C34.1,51.735,32.3,48.354,30.588,44.925a1.682,1.682,0,0,0-1.753-1.09c-4.915.048-9.829.019-14.744.027-.389,0-.779.07-1.144.105v62.419ZM7.928,7.884c0,1.968-.07,3.8.039,5.625a2.741,2.741,0,0,0,.83,1.78Q19.526,24.23,30.353,33.056a3.319,3.319,0,0,0,1.915.7q7.982.082,15.965,0a3.321,3.321,0,0,0,1.917-.7Q60.97,24.233,71.723,15.317c.337-.277.8-.675.808-1.031.077-2.121.037-4.245.037-6.4ZM31.358,36.5c.148,1.752-.128,3.588.51,5.018,1.741,3.911,3.838,7.668,5.858,11.452.891,1.67,4.154,1.7,5.059.031,1.891-3.5,3.607-7.1,5.529-10.589,1.08-1.956.622-3.911.651-5.911ZM77.785,2.714H2.757V5.091H77.785Z" transform="translate(0 0)" fill="#f6f6f6"/>
    <path id="Path_2849" data-name="Path 2849" d="M56.074,29.954c-1.214,0-2.231-.005-3.248,0-.913.005-1.685-.26-1.721-1.306-.034-1.09.753-1.325,1.667-1.321,1.383,0,2.765.036,4.146-.01s1.911.6,1.9,1.954c-.039,3.682-.014,7.363-.014,11.045q0,20.963,0,41.922c0,2.267-.177,2.445-2.451,2.447q-22.419,0-44.839,0c-2.287,0-2.466-.179-2.466-2.428q-.005-18.736,0-37.469,0-7.52,0-15.04c0-2.248.177-2.416,2.481-2.42,1.177,0,2.354.007,3.53,0,.912-.005,1.687.213,1.685,1.306,0,1.109-.843,1.287-1.709,1.313-1.058.031-2.119.007-3.3.007V82.013H56.074Z" transform="translate(6.333 19.136)" fill="#f6f6f6"/>
    <path id="Path_2850" data-name="Path 2850" d="M27.132,50.639c-2.2,0-4.4-.017-6.6.007-1.2.012-1.806-.5-1.792-1.738.022-2.2.019-4.4,0-6.6-.009-1.17.583-1.67,1.7-1.67q6.678,0,13.358,0c1.117,0,1.719.5,1.712,1.667-.012,2.2-.015,4.4.005,6.6.012,1.231-.571,1.76-1.786,1.745-2.2-.026-4.4-.007-6.6-.007m5.722-7.265H21.427v4.513H32.854Z" transform="translate(13.127 28.465)" fill="#f6f6f6"/>
    <path id="Path_2851" data-name="Path 2851" d="M22.939,37.94c-.869.607-1.434,1.284-1.8,1.189a1.952,1.952,0,0,1-1.213-1.315c-.053-.352.743-1.163,1.163-1.167.491,0,.988.65,1.849,1.292" transform="translate(13.958 25.674)" fill="#f6f6f6"/>
    <path id="Path_2852" data-name="Path 2852" d="M24.068,39.734c-.541-.845-1.148-1.374-1.093-1.823.058-.466.753-.854,1.17-1.277.425.469,1.1.9,1.194,1.423.066.381-.646.9-1.27,1.677" transform="translate(16.093 25.665)" fill="#f6f6f6"/>
    <path id="Path_2853" data-name="Path 2853" d="M29.068,37.909c-.838.6-1.342,1.233-1.791,1.2s-.864-.736-1.292-1.146c.435-.452.816-1.165,1.325-1.272.383-.082.93.612,1.758,1.223" transform="translate(18.204 25.697)" fill="#f6f6f6"/>
    <path id="Path_2854" data-name="Path 2854" d="M16.431,27.013c.57.859,1.185,1.379,1.133,1.818-.06.483-.735.889-1.141,1.33-.435-.464-1.117-.879-1.224-1.41-.078-.379.616-.915,1.233-1.738" transform="translate(10.643 18.924)" fill="#f6f6f6"/>
    <path id="Path_2855" data-name="Path 2855" d="M31.95,30.44c-.6-.843-1.274-1.391-1.19-1.779.109-.507.813-.888,1.262-1.321.395.435,1.066.849,1.1,1.313.036.446-.587.946-1.175,1.787" transform="translate(21.544 19.154)" fill="#f6f6f6"/>
  </g>
</svg>
