<svg id="Component_121_1" data-name="Component 121 – 1" xmlns="http://www.w3.org/2000/svg" xmlns:xlink="http://www.w3.org/1999/xlink" width="112.071" height="111.576" viewBox="0 0 112.071 111.576">
  <defs>
    <clipPath id="clip-path">
      <rect id="Rectangle_1012" data-name="Rectangle 1012" width="112.071" height="111.576" fill="#f6f6f6"/>
    </clipPath>
  </defs>
  <g id="Group_2057" data-name="Group 2057" clip-path="url(#clip-path)">
    <path id="Path_2847" data-name="Path 2847" d="M112.044,55.9c0,8.713-.022,17.426.022,26.138a2.781,2.781,0,0,1-1.755,2.821Q83.938,97.974,57.6,111.159a3.11,3.11,0,0,1-3.066.026Q28.074,97.934,1.581,84.755A2.532,2.532,0,0,1,0,82.205Q.032,55.767,0,29.328A2.526,2.526,0,0,1,1.608,26.8Q28.038,13.649,54.434.431A3.207,3.207,0,0,1,57.607.41Q83.886,13.564,110.2,26.645a2.934,2.934,0,0,1,1.869,3c-.055,8.752-.027,17.505-.027,26.258m-54.083,50.67c.422-.182.713-.291.989-.429Q83.1,94.094,107.264,82.066a1.553,1.553,0,0,0,.93-1.693q-.024-23.549-.012-47.1V31.981c-.471.206-.8.332-1.114.489Q82.979,44.486,58.881,56.483a1.545,1.545,0,0,0-.932,1.686q.024,23.549.012,47.1ZM38.645,49.282v1.449c0,5.379-.008,10.759.008,16.138a2.1,2.1,0,0,1-1.245,2.248,2.04,2.04,0,0,1-2.367-.708,57.377,57.377,0,0,1-4.228-4.29,6.209,6.209,0,0,0-6.234-2.58,17.1,17.1,0,0,1-2.652.021c-1.975-.007-2.594-.619-2.6-2.589,0-6.1-.019-12.2.02-18.306a1.464,1.464,0,0,0-.974-1.545c-4.508-2.208-8.99-4.468-13.483-6.706-.3-.147-.613-.252-1.018-.416v1.244q0,23.544-.023,47.088A1.708,1.708,0,0,0,4.978,82.14Q28.922,94.03,52.832,105.988c.378.189.767.357,1.217.566.024-.314.048-.473.048-.632q0-24.026.021-48.052a1.312,1.312,0,0,0-.883-1.359c-4-1.968-7.982-3.97-11.972-5.957-.816-.406-1.64-.8-2.617-1.272m2.407-3.25a4.449,4.449,0,0,0,.482.348c4.63,2.317,9.255,4.646,13.908,6.916a1.845,1.845,0,0,0,1.412-.106q23.95-11.9,47.872-23.863c.293-.146.566-.334.984-.583-5.257-2.624-10.332-5.133-15.377-7.7a2.085,2.085,0,0,0-2.211,0c-5.3,2.862-10.634,5.661-15.956,8.482l-31.116,16.5M69.5,10.672c-4.31-2.15-8.379-4.153-12.415-6.219a2.056,2.056,0,0,0-2.1.014Q31.3,16.319,7.593,28.126c-.369.184-.726.394-1.266.688,4.744,2.37,9.272,4.605,13.768,6.9a2.193,2.193,0,0,0,2.308-.037Q41.582,25.454,60.8,15.3c2.827-1.5,5.65-3,8.7-4.624M25.539,38.352c.517.279.859.475,1.21.651,2.943,1.474,5.9,2.916,8.821,4.435a2.086,2.086,0,0,0,2.2,0q22.912-12.2,45.852-24.347c.378-.2.739-.432,1.26-.739-3.489-1.74-6.831-3.378-10.139-5.081a1.875,1.875,0,0,0-1.991.035c-6.973,3.733-13.97,7.424-20.959,11.128L25.539,38.352M23.28,41.6v16.11c1.732,0,3.379.044,5.021-.016a3.1,3.1,0,0,1,2.56,1.063c1.188,1.281,2.429,2.513,3.681,3.8.15-.243.221-.3.221-.367.01-4.736.027-9.472-.01-14.207a1.376,1.376,0,0,0-.653-.963c-1.335-.737-2.716-1.39-4.081-2.07-2.217-1.1-4.436-2.2-6.739-3.349" transform="translate(0 0)" fill="#f6f6f6"/>
  </g>
</svg>
