<svg id="full_logo" data-name="full logo" xmlns="http://www.w3.org/2000/svg" xmlns:xlink="http://www.w3.org/1999/xlink" width="78.353" height="90.177" viewBox="0 0 78.353 90.177">
  <defs>
    <clipPath id="clip-path">
      <rect id="Rectangle_861" data-name="Rectangle 861" width="78.353" height="90.177" fill="none"/>
    </clipPath>
  </defs>
  <g id="Group_58" data-name="Group 58" clip-path="url(#clip-path)">
    <path id="Path_249" data-name="Path 249" d="M19.976,33.248A22.376,22.376,0,0,1,41.669,11.136V0C23.347.505,8.651,15.158,8.651,33.174s14.7,32.668,33.018,33.174V55.36A22.375,22.375,0,0,1,19.976,33.248" transform="translate(-3.53)" fill="#2c83af"/>
    <path id="Path_250" data-name="Path 250" d="M123.388,60.442l-.13-.108c0,.035-.005.071-.008.108Z" transform="translate(-50.286 -24.345)" fill="#347439"/>
    <path id="Path_251" data-name="Path 251" d="M68.042.009V11.145a22.634,22.634,0,0,1,20.043,14.3H68.042V36.1h32.683c0-.035,0-.072.008-.108.079-.929.132-1.865.132-2.815C100.864,15.226,86.272.613,68.042.009" transform="translate(-27.761 -0.004)" fill="#00b8cc"/>
    <path id="Path_252" data-name="Path 252" d="M86.183,75.166a22.327,22.327,0,0,1-3.262,4.042,22.846,22.846,0,0,1-14.879,6.477V96.671c.605-.02,1.206-.054,1.8-.106a34.114,34.114,0,0,0,25.1-14.348l.1-.532Z" transform="translate(-27.761 -30.33)" fill="#00b8cc"/>
    <path id="Path_253" data-name="Path 253" d="M0,124.143H3.29v.7H.764v1.727H3.217v.7H.764v2.333H3.29v.7H0Z" transform="translate(0 -50.092)" fill="#1e1e1e"/>
    <path id="Path_254" data-name="Path 254" d="M6.744,124.143h.869l1.251,2.251,1.333-2.251h.869L9.3,127.081l1.86,3.234H10.31l-1.446-2.529-1.5,2.529H6.508l1.925-3.234Z" transform="translate(-2.655 -50.092)" fill="#1e1e1e"/>
    <path id="Path_255" data-name="Path 255" d="M16.482,127.041h.244c.78,0,1.624-.147,1.624-1.13,0-.966-.91-1.08-1.665-1.08h-.2Zm0,3.274h-.764v-6.172H16.6c1.884,0,2.47.655,2.47,1.785,0,1.3-.983,1.8-2.145,1.8h-.439Z" transform="translate(-6.413 -50.092)" fill="#1e1e1e"/>
    <path id="Path_256" data-name="Path 256" d="M27.785,127.14a2.446,2.446,0,1,0-4.891,0,2.446,2.446,0,1,0,4.891,0m.764,0a3.209,3.209,0,1,1-6.418,0,3.209,3.209,0,1,1,6.418,0" transform="translate(-9.029 -50.003)" fill="#1e1e1e"/>
    <path id="Path_257" data-name="Path 257" d="M43.1,125.233a2.53,2.53,0,1,0,0,3.782v.908a3.292,3.292,0,0,1-1.608.434,3.183,3.183,0,0,1-3.193-3.185,3.232,3.232,0,0,1,3.258-3.25,2.94,2.94,0,0,1,1.543.418Z" transform="translate(-15.627 -50.003)" fill="#1e1e1e"/>
    <path id="Path_258" data-name="Path 258" d="M53.223,127.14a2.446,2.446,0,1,0-4.891,0,2.446,2.446,0,1,0,4.891,0m.764,0a3.209,3.209,0,1,1-6.418,0,3.209,3.209,0,1,1,6.418,0" transform="translate(-19.408 -50.003)" fill="#1e1e1e"/>
    <path id="Path_259" data-name="Path 259" d="M60.717,126.061H60.7l-.715,4.076H59.2l1.251-6.434,2.1,4.862,2.1-4.862,1.251,6.434H65.12l-.715-4.076h-.017l-1.836,4.208Z" transform="translate(-24.153 -49.915)" fill="#1e1e1e"/>
    <path id="Path_260" data-name="Path 260" d="M72.743,126.061h-.016l-.715,4.076h-.787l1.25-6.434,2.1,4.862,2.1-4.862,1.251,6.434h-.788l-.715-4.076h-.016l-1.836,4.208Z" transform="translate(-29.059 -49.915)" fill="#1e1e1e"/>
    <path id="Path_261" data-name="Path 261" d="M88.986,127.14a2.446,2.446,0,1,0-4.891,0,2.446,2.446,0,1,0,4.891,0m.764,0a3.209,3.209,0,1,1-6.418,0,3.209,3.209,0,1,1,6.418,0" transform="translate(-33.999 -50.003)" fill="#1e1e1e"/>
    <path id="Path_262" data-name="Path 262" d="M96.424,129.611h.268c1.56,0,2.908-.589,2.908-2.382s-1.348-2.382-2.908-2.382h-.268Zm-.764-5.468h1.267c1.876,0,3.436,1,3.436,3.053,0,2.1-1.527,3.119-3.46,3.119H95.66Z" transform="translate(-39.029 -50.092)" fill="#1e1e1e"/>
    <rect id="Rectangle_859" data-name="Rectangle 859" width="0.764" height="6.172" transform="translate(62.279 74.051)" fill="#1e1e1e"/>
    <path id="Path_263" data-name="Path 263" d="M110.028,130.315h-.764v-5.468H107.81v-.7h3.672v.7h-1.455Z" transform="translate(-43.987 -50.092)" fill="#1e1e1e"/>
    <rect id="Rectangle_860" data-name="Rectangle 860" width="0.764" height="6.172" transform="translate(68.277 74.051)" fill="#1e1e1e"/>
    <path id="Path_264" data-name="Path 264" d="M118.9,124.143h3.29v.7h-2.526v1.727h2.453v.7h-2.453v2.333h2.526v.7H118.9Z" transform="translate(-48.512 -50.092)" fill="#1e1e1e"/>
    <path id="Path_265" data-name="Path 265" d="M128.9,125.225a1.048,1.048,0,0,0-.983-.581.968.968,0,0,0-1.024.875c0,.483.471.737.853.885l.439.172c.868.344,1.518.827,1.518,1.858a1.9,1.9,0,0,1-1.958,1.924,1.914,1.914,0,0,1-1.893-1.727l.772-.164a1.158,1.158,0,1,0,2.315-.033c0-.663-.527-.95-1.056-1.17l-.422-.18c-.7-.3-1.332-.7-1.332-1.564a1.675,1.675,0,0,1,1.8-1.6,1.744,1.744,0,0,1,1.576.933Z" transform="translate(-51.346 -50.003)" fill="#1e1e1e"/>
  </g>
</svg>
