<svg id="Component_128_1" data-name="Component 128 – 1" xmlns="http://www.w3.org/2000/svg" xmlns:xlink="http://www.w3.org/1999/xlink" width="1531" height="905" viewBox="0 0 1531 905">
  <defs>
    <clipPath id="clip-path">
      <rect id="Rectangle_877" data-name="Rectangle 877" width="123.501" height="123.304" fill="#05bdcd" stroke="#55baca" stroke-width="1"/>
    </clipPath>
    <clipPath id="clip-path-2">
      <rect id="Rectangle_878" data-name="Rectangle 878" width="146.836" height="114.487" fill="#05bdcd"/>
    </clipPath>
    <clipPath id="clip-path-3">
      <rect id="Rectangle_879" data-name="Rectangle 879" width="122.546" height="122.029" fill="#05bdcd"/>
    </clipPath>
    <clipPath id="clip-path-4">
      <rect id="Rectangle_861" data-name="Rectangle 861" width="166.353" height="191.177" fill="none"/>
    </clipPath>
  </defs>
  <g id="value_chart" data-name="value chart">
    <g id="Ellipse_10" data-name="Ellipse 10" transform="translate(89 91)" fill="#fff" stroke="#3a83b6" stroke-width="10">
      <ellipse cx="673" cy="363" rx="673" ry="363" stroke="none"/>
      <ellipse cx="673" cy="363" rx="668" ry="358" fill="none"/>
    </g>
    <g id="Group_128" data-name="Group 128" transform="translate(648.505 0)">
      <circle id="Ellipse_7" data-name="Ellipse 7" cx="111" cy="111" r="111" transform="translate(0.495 0)" fill="#fff"/>
    </g>
    <g id="Group_195" data-name="Group 195" transform="translate(648.505 683)">
      <circle id="Ellipse_7-2" data-name="Ellipse 7" cx="111" cy="111" r="111" transform="translate(0.495)" fill="#fff"/>
    </g>
    <g id="Group_193" data-name="Group 193" transform="translate(698.018 16.643)">
      <g id="Group_192" data-name="Group 192" clip-path="url(#clip-path)">
        <path id="Path_357" data-name="Path 357" d="M118.134,36.277c0,1.555.019,3.11,0,4.664a7.244,7.244,0,0,1-4.529,7c-.845.376-.843.687-.553,1.406,3.735,9.226,5.447,18.923,6.6,28.738a197.573,197.573,0,0,1,1.244,26.726,2.84,2.84,0,0,0,.611,1.778,10.494,10.494,0,0,1-1.644,14.121,10.278,10.278,0,0,1-14.289-.63,4.037,4.037,0,0,0-4.4-1.294,164.9,164.9,0,0,1-42.61,4.053,194.774,194.774,0,0,1-37.485-4.373c-1.312-.292-1.839.4-2.5,1.088-3.028,3.143-6.623,4.488-10.918,3.288A10.445,10.445,0,0,1,1.825,106.9a4.474,4.474,0,0,0,.8-2.773C2.469,89.5,3.487,74.98,6.872,60.7a69.247,69.247,0,0,1,3.587-11.281c.346-.812.251-1.113-.612-1.506a7.175,7.175,0,0,1-4.446-6.9c-.037-3.159-.027-6.319,0-9.479a7.374,7.374,0,0,1,6.49-7.6,1.49,1.49,0,0,0,1.342-1.118A22.972,22.972,0,0,1,44.9,10.081c.988.471,1.377.326,2-.545a23.213,23.213,0,0,1,37.711.276,1.466,1.466,0,0,0,2.036.7A19.1,19.1,0,0,1,110.742,22.8a1.539,1.539,0,0,0,1.4,1.238,7.328,7.328,0,0,1,5.979,7.122c.047,1.7.008,3.41.008,5.115ZM61.765,48.643c-15.326,0-30.653.02-45.979-.035a2.127,2.127,0,0,0-2.364,1.626,82,82,0,0,0-3.5,11.151C6.552,75.775,5.58,90.4,5.71,105.125a4.435,4.435,0,0,1-1.046,3.138,7.257,7.257,0,0,0-.566,8.179,7.412,7.412,0,0,0,7.364,3.653c2.763-.289,4.444-2.173,6.145-4.005a2.749,2.749,0,0,1,2.942-.885,193.377,193.377,0,0,0,38.065,4.541,168.812,168.812,0,0,0,42.026-3.933c4.829-1.107,3.31-1.558,6.957,1.993a7.4,7.4,0,0,0,10.995-9.9,3.106,3.106,0,0,1-.778-2.174,205.311,205.311,0,0,0-1.8-31.351,101.761,101.761,0,0,0-5.91-24.14,2.136,2.136,0,0,0-2.358-1.631c-15.326.054-30.653.035-45.979.035M61.81,26.93q-24.039,0-48.078,0c-3.627,0-5.237,1.613-5.25,5.219-.009,2.607,0,5.214,0,7.822,0,4.021,1.537,5.568,5.536,5.569q20.2,0,40.391,0,27.656,0,55.312,0c3.7,0,5.319-1.637,5.324-5.326q.006-3.836,0-7.671c0-4.131-1.479-5.613-5.61-5.613q-23.813,0-47.625,0m.063-3.123h44.321c1.756,0,1.757-.006,1.079-1.591-3.37-7.876-12.8-11.628-20.977-8.345-2.153.865-2.3.815-3.454-1.127C75.318.031,56.346-.127,48.64,12.457c-1.407,2.3-1.526,2.33-3.85,1.017-10.1-5.7-23.1-1.7-27.962,8.6-.816,1.732-.816,1.733,1.026,1.733H61.873" transform="translate(0 0)" fill="#05bdcd" stroke="#55baca" stroke-width="1"/>
        <path id="Path_358" data-name="Path 358" d="M116.1,189.524a27.169,27.169,0,0,1,.025-3.157c.14-1.189-.383-1.455-1.445-1.612-11.271-1.669-19.1-9.321-21.016-20.489a17.792,17.792,0,0,1-.2-2.244c-.1-2.385.222-2.742,2.671-2.922a23.7,23.7,0,0,1,10.4,1.071c1.126.431,1-.331,1.073-.952a23.121,23.121,0,0,1,8.4-15.6,2.155,2.155,0,0,1,3.273.026,22.96,22.96,0,0,1,8.331,15.473c.113,1.036.274,1.356,1.429.941a24.685,24.685,0,0,1,10.868-.88c1.422.136,1.942.849,1.919,2.289a24.125,24.125,0,0,1-20.7,23.2c-1.49.186-2.168.53-2.008,2.213.194,2.038.018,4.109.057,6.164.021,1.1-.314,1.983-1.5,2-1.287.023-1.629-.905-1.587-2.063s.009-2.306.009-3.46m3.071-10.022c-.033,2.446-.032,2.449,1.941,2.105.493-.086.983-.2,1.471-.306a21.341,21.341,0,0,0,16.062-18.192c.051-.509.181-.962-.631-1.008-6.115-.346-12.23.914-16.032,7.529a22.967,22.967,0,0,0-2.81,9.873m-3.02.567c-.111-.944-.208-1.89-.335-2.833-1.366-10.175-8.017-15.711-18.162-15.152-.757.042-1.169.089-1.059,1.068a21.379,21.379,0,0,0,17.753,18.484c1.775.257,1.775.257,1.8-1.567m1.488-8.462a19.5,19.5,0,0,1,6.553-9.082,1.337,1.337,0,0,0,.526-1.305,20.394,20.394,0,0,0-6.286-14.2c-.72-.707-1.079-.5-1.674.082a20.692,20.692,0,0,0-6.064,12.133c-.261,1.781-.069,3.129,1.593,4.367,2.562,1.908,4.025,4.756,5.352,8" transform="translate(-55.868 -85.415)" fill="#05bdcd" stroke="#55baca" stroke-width="1"/>
      </g>
    </g>
    <text id="Farmer_Group" data-name="Farmer Group" transform="translate(760 175)" fill="#252525" font-size="24" font-family="HelveticaNeue, Helvetica Neue"><tspan x="-74.904" y="0">Farmer Group</tspan></text>
    <text id="Buying_Partners" data-name="Buying Partners" transform="translate(760 849)" fill="#252525" font-size="24" font-family="HelveticaNeue, Helvetica Neue"><tspan x="-85.56" y="0">Buying Partners</tspan></text>
    <g id="Group_197" data-name="Group 197" transform="translate(1309 343.155)">
      <circle id="Ellipse_7-3" data-name="Ellipse 7" cx="111" cy="111" r="111" transform="translate(0 -0.155)" fill="#fff"/>
    </g>
    <g id="Group_203" data-name="Group 203" transform="translate(0 343.155)">
      <circle id="Ellipse_7-4" data-name="Ellipse 7" cx="111" cy="111" r="111" transform="translate(0 -0.155)" fill="#fff"/>
    </g>
    <text id="Processing" transform="translate(1420 518)" fill="#252525" font-size="24" font-family="HelveticaNeue, Helvetica Neue"><tspan x="-59.556" y="0">Processing</tspan></text>
    <text id="Traceability" transform="translate(111 518)" fill="#252525" font-size="24" font-family="HelveticaNeue, Helvetica Neue"><tspan x="-60.444" y="0">Traceability</tspan></text>
    <g id="Group_200" data-name="Group 200" transform="translate(1360.407 366.833)">
      <g id="Group_199" data-name="Group 199" transform="translate(0 0)">
        <g id="Group_201" data-name="Group 201">
          <path id="Path_360" data-name="Path 360" d="M41.637.061c1.757.994,2.241,2.551,2.091,4.464-.084,1.075-.346,2.418.164,3.173.456.674,1.871.689,2.851,1.027a25.615,25.615,0,0,1,5.369,2.5.9.9,0,0,0,1.376-.184c.807-.893,1.683-1.726,2.552-2.56a3.066,3.066,0,0,1,4.641-.035q2.467,2.4,4.873,4.86a3,3,0,0,1,.014,4.54c-.885.928-1.793,1.838-2.729,2.714a.779.779,0,0,0-.145,1.18,28.33,28.33,0,0,1,3.23,7.686c.241.905.858,1.152,1.6.53A4.353,4.353,0,0,1,70.55,29c2.608.024,5.216,0,7.824.01,2.542.011,3.862,1.349,3.872,3.9.006,1.593.024,3.186-.01,4.778-.013.624.089.942.815,1.109a33.611,33.611,0,0,1,10.277,4.249.877.877,0,0,0,1.347-.181c1.149-1.214,2.345-2.384,3.542-3.552,1.657-1.617,3.511-1.659,5.144-.07q3.052,2.969,6.029,6.015a3.331,3.331,0,0,1-.042,5.132c-1.166,1.2-2.348,2.381-3.558,3.535-.451.431-.594.727-.208,1.344a33.412,33.412,0,0,1,4.26,10.255.915.915,0,0,0,1.1.85c1.4-.05,2.807.061,4.2-.033a4.14,4.14,0,0,1,4.5,2.483V79.552a4.071,4.071,0,0,1-4.459,2.555c-1.473-.091-2.957.007-4.435-.031a.741.741,0,0,0-.878.671,33.93,33.93,0,0,1-4.392,10.571c-.3.481-.159.73.182,1.063,1.251,1.221,2.5,2.452,3.716,3.7a3.32,3.32,0,0,1,.045,5.047q-3.015,3.087-6.109,6.1a3.332,3.332,0,0,1-5.056-.067q-1.839-1.788-3.625-3.63a.825.825,0,0,0-1.25-.174,33.794,33.794,0,0,1-10.386,4.281c-.625.141-.786.43-.773,1.033.039,1.708.032,3.418.009,5.126a3.409,3.409,0,0,1-3.67,3.616c-2.763.012-5.526.008-8.289,0-2.419-.006-3.743-1.3-3.786-3.73-.03-1.669-.031-3.34.007-5.009a.862.862,0,0,0-.786-1.035,34.005,34.005,0,0,1-10.383-4.286.827.827,0,0,0-1.253.178q-1.78,1.846-3.624,3.633a3.348,3.348,0,0,1-5.141-.02q-3-2.939-5.942-5.933c-1.648-1.675-1.622-3.521.045-5.215,1.145-1.164,2.29-2.329,3.474-3.453.483-.459.626-.776.218-1.429a33.685,33.685,0,0,1-4.248-10.259c-.151-.648-.425-.789-1.022-.777-1.673.032-3.347.023-5.02.008A3.457,3.457,0,0,1,29.063,78.3c-.019-2.719,0-5.437-.009-8.156a4.062,4.062,0,0,1,.9-2.692c.706-.878.5-1.39-.6-1.694a28.684,28.684,0,0,1-7.484-3.142.893.893,0,0,0-1.366.179c-.835.92-1.731,1.788-2.634,2.643a3.007,3.007,0,0,1-4.547-.026q-2.467-2.4-4.869-4.862A3.051,3.051,0,0,1,8.5,55.921c.864-.9,1.737-1.782,2.644-2.633a.784.784,0,0,0,.149-1.182,27.445,27.445,0,0,1-3.208-7.69c-.151-.6-.358-.842-.989-.8-.853.052-1.717-.051-2.567.026A4.223,4.223,0,0,1,.06,41.554V32.463a3.749,3.749,0,0,1,4.051-2.244c.93.066,1.869-.019,2.8.022.665.029,1.013-.1,1.2-.864a26.11,26.11,0,0,1,3.158-7.587.838.838,0,0,0-.148-1.272c-.945-.867-1.847-1.782-2.729-2.713A3.021,3.021,0,0,1,8.4,13.337q2.435-2.513,4.954-4.946a3.05,3.05,0,0,1,4.559.052c.9.861,1.793,1.728,2.636,2.642a.839.839,0,0,0,1.272.165,31.908,31.908,0,0,1,5.034-2.4c1.127-.455,2.79-.268,3.31-1.3.5-.994.183-2.433.122-3.672A3.428,3.428,0,0,1,32.761.061Zm32.72,115.855c1.207,0,2.414-.032,3.619.013.62.023.794-.176.779-.787-.04-1.747-.03-3.5-.009-5.244a3.265,3.265,0,0,1,2.693-3.453,34.693,34.693,0,0,0,10.708-4.406,3.307,3.307,0,0,1,4.449.528c1.225,1.194,2.443,2.4,3.626,3.631.426.445.687.559,1.179.049q2.468-2.561,5.034-5.027c.477-.46.475-.725,0-1.177-1.269-1.2-2.5-2.444-3.722-3.7a3.245,3.245,0,0,1-.543-4.25,35.749,35.749,0,0,0,4.518-10.9,3.222,3.222,0,0,1,3.4-2.6c1.751-.021,3.5-.024,5.254.006.566.01.831-.081.82-.744q-.059-3.611,0-7.224c.009-.613-.17-.79-.776-.778-1.751.036-3.5.042-5.254,0a3.331,3.331,0,0,1-3.506-2.8,34.258,34.258,0,0,0-4.314-10.481,3.345,3.345,0,0,1,.53-4.625c1.17-1.194,2.344-2.386,3.554-3.539.455-.433.544-.7.038-1.185q-2.566-2.465-5.035-5.027c-.493-.513-.755-.4-1.184.043-1.156,1.207-2.348,2.381-3.544,3.549a3.383,3.383,0,0,1-4.642.532,34.26,34.26,0,0,0-10.5-4.314,3.306,3.306,0,0,1-2.784-3.5c-.02-1.67-.034-3.341.009-5.011.018-.709-.1-1.036-.932-1.014q-3.443.088-6.888,0c-.824-.021-.971.288-.951,1.01.044,1.591.028,3.185.01,4.778-.025,2.2-.85,3.258-3.021,3.782A34.832,34.832,0,0,0,56.7,46.322a3.4,3.4,0,0,1-4.725-.6c-1.19-1.175-2.379-2.35-3.544-3.549-.361-.372-.593-.477-1.016-.043q-2.563,2.632-5.2,5.192c-.423.411-.361.643.024,1.014,1.2,1.16,2.379,2.349,3.557,3.536a3.41,3.41,0,0,1,.558,4.813,34.388,34.388,0,0,0-4.219,10.149c-.521,2.155-1.581,3-3.779,3.032-1.634.022-3.271.04-4.9-.012-.733-.023-.92.223-.908.929q.063,3.495,0,6.991c-.012.689.229.846.871.832,1.712-.039,3.425-.025,5.137-.01a3.3,3.3,0,0,1,3.53,2.747,34.446,34.446,0,0,0,4.376,10.578,3.343,3.343,0,0,1-.555,4.54c-1.2,1.223-2.4,2.438-3.639,3.619-.441.421-.435.67,0,1.094q2.555,2.476,5.034,5.027c.46.476.724.5,1.186.01,1.121-1.187,2.295-2.323,3.458-3.469,1.556-1.534,2.953-1.73,4.817-.588a34.421,34.421,0,0,0,10.282,4.231,3.384,3.384,0,0,1,2.946,3.735c.02,1.592.05,3.187-.015,4.777-.032.791.147,1.1.994,1.04,1.124-.075,2.256-.019,3.385-.019M15.627,62.9c1.139-1.19,2.158-2.313,3.242-3.369a2.842,2.842,0,0,1,3.727-.505,30.119,30.119,0,0,0,8.889,3.663,3.035,3.035,0,0,1,2.164,1.94c.236.554-.156,1.413.475,1.671a5.572,5.572,0,0,0,1.965.062c.584,0,1.17-.03,1.751.009.6.04.874-.148,1.024-.787a34.448,34.448,0,0,1,4.3-10.363c.284-.456.352-.746-.1-1.17-1.248-1.169-2.441-2.4-3.641-3.616a1.045,1.045,0,0,0-1.02-.366,11.779,11.779,0,0,1-3.6-.1c-8.786-1.257-13.875-11.594-9.5-19.311a1.814,1.814,0,0,1,2.441-.9,1.775,1.775,0,0,1,.718,2.408c-.121.285-.276.555-.4.839A9.767,9.767,0,0,0,37.43,46.671a1.694,1.694,0,0,0,1.342-.681,87.15,87.15,0,0,1,7.248-7.249,1.833,1.833,0,0,0,.741-1.431,9.8,9.8,0,0,0-12.982-9.594c-1.572.506-2.844-.531-2.51-1.951.209-.889.891-1.2,1.656-1.453a13.3,13.3,0,0,1,17.307,11.53c-.686,2.825,1.022,4.509,2.914,6.113a5.251,5.251,0,0,1,.821.827c.455.607.864.639,1.531.214a35.435,35.435,0,0,1,7.587-3.5c1.118-.384,2.749-.225,3.254-1.166.521-.97.14-2.422.153-3.663a.9.9,0,0,1,0-.116c.079-.581-.139-.785-.759-.844a2.954,2.954,0,0,1-3.01-2.571A27.513,27.513,0,0,0,59.271,22.8a3,3,0,0,1,.509-4.108c.866-.892,1.736-1.783,2.647-2.629.422-.392.36-.62-.021-.986q-1.765-1.7-3.464-3.461c-.412-.429-.675-.47-1.1-.009-.873.939-1.786,1.843-2.722,2.72a2.944,2.944,0,0,1-3.843.431A28.653,28.653,0,0,0,42.6,11.191a2.937,2.937,0,0,1-2.386-3.037c-.026-1.242-.034-2.487,0-3.728.018-.606-.079-.908-.8-.884-1.633.054-3.269.042-4.9,0-.579-.014-.724.177-.709.727.035,1.28.044,2.564,0,3.844a2.992,2.992,0,0,1-2.477,3.1,28.412,28.412,0,0,0-8.565,3.529,2.982,2.982,0,0,1-3.933-.472c-.927-.887-1.828-1.8-2.723-2.719-.313-.321-.533-.463-.926-.054q-1.776,1.851-3.632,3.625c-.378.363-.347.584.012.924.846.8,1.661,1.637,2.483,2.465,1.478,1.489,1.654,2.72.574,4.475a27.3,27.3,0,0,0-3.345,8.13,3.025,3.025,0,0,1-3.223,2.61c-1.245.031-2.491.026-3.736,0-.509-.011-.771.068-.756.678.04,1.669.034,3.34,0,5.01-.01.552.149.743.719.726,1.283-.039,2.569-.027,3.853-.007a2.971,2.971,0,0,1,3.108,2.447,27.645,27.645,0,0,0,3.483,8.445,3.032,3.032,0,0,1-.488,4.12c-.835.869-1.688,1.722-2.563,2.55-.4.38-.541.636-.064,1.1,1.332,1.3,2.61,2.655,4.026,4.107" transform="translate(-0.06 -0.061)" fill="#05bdcd"/>
          <path id="Path_362" data-name="Path 362" d="M188.415,210.82a22,22,0,0,1-15-6.046c-1.055-.972-1.131-2.151-.224-2.9.787-.652,1.615-.57,2.592.332a19.267,19.267,0,0,0,10.11,4.913,18.934,18.934,0,1,0-15.872-21.689,19.53,19.53,0,0,0,1.181,10.157c.6,1.533-.331,2.817-1.809,2.6a1.806,1.806,0,0,1-1.45-1.347c-3.173-8.527-2.013-16.43,4.023-23.242,6.075-6.856,13.911-9.167,22.734-6.762,8.779,2.393,14.164,8.379,16.092,17.266,2.653,12.229-6.146,24.689-18.543,26.454a33.7,33.7,0,0,1-3.831.266" transform="translate(-114.456 -114.241)" fill="#05bdcd"/>
          <path id="Path_363" data-name="Path 363" d="M222.1,208.044a13.632,13.632,0,1,1-13.65-13.584,13.631,13.631,0,0,1,13.65,13.584m-23.761.012a10.129,10.129,0,1,0,10.146-10.1,10.1,10.1,0,0,0-10.146,10.1" transform="translate(-134.156 -133.896)" fill="#05bdcd"/>
        </g>
      </g>
    </g>
    <g id="Group_205" data-name="Group 205" transform="translate(686.081 704.89)">
      <g id="Group_204" data-name="Group 204" clip-path="url(#clip-path-2)">
        <path id="Path_364" data-name="Path 364" d="M0,20.895a3.543,3.543,0,0,1,3.291-1.459c7.833.057,15.668.025,23.5.029,2.266,0,3.024.747,3.031,2.971.008,2.431-.021,4.863.008,7.294a8.023,8.023,0,1,0,16.046-.038c.029-2.383,0-4.767.007-7.151,0-2.349.726-3.076,3.067-3.077,15.287,0,30.573-.022,45.859.035,1.364,0,1.59-.412,1.583-1.642a40.283,40.283,0,0,1,.2-7.561,12.6,12.6,0,0,1,24.981,1.889c.055,2.048.074,4.1-.005,6.148-.038.973.293,1.153,1.192,1.149,6.926-.036,13.854.013,20.78-.048a3.552,3.552,0,0,1,3.29,1.46v72.7a3.575,3.575,0,0,1-3.291,1.459c-7.834-.058-15.668-.026-23.5-.029-2.266,0-3.026-.748-3.033-2.97-.007-2.432.023-4.863-.008-7.294a8.023,8.023,0,1,0-16.047.028c-.026,2.383,0,4.767-.006,7.151,0,2.348-.731,3.085-3.063,3.086-15.286,0-30.572.022-45.858-.034-1.351,0-1.6.393-1.589,1.636a40.117,40.117,0,0,1-.2,7.56A12.6,12.6,0,0,1,25.255,102.3c-.053-2.049-.072-4.1.007-6.148C25.3,95.184,24.974,95,24.072,95c-6.926.036-13.853-.013-20.779.047A3.557,3.557,0,0,1,0,93.593Zm87.613,3.149c-3.536,0-7.073.047-10.607-.029-1.073-.023-1.329.249-1.321,1.318.054,7.057.035,14.115.023,21.173,0,1.867-.846,2.706-2.707,2.72-2.485.018-4.97-.012-7.455.008a8.01,8.01,0,1,0-.06,16.018c2.389.026,4.778,0,7.167.007,2.33,0,3.057.736,3.057,3.09q0,10.443,0,20.887c0,.653-.171,1.249.945,1.238,6.259-.062,12.518-.044,18.778-.012.765,0,.963-.221.943-.958-.047-1.763-.049-3.529,0-5.292a12.6,12.6,0,0,1,24.978-1.823,36.183,36.183,0,0,1,.207,6.848c-.007,1.021.275,1.24,1.264,1.232q9.1-.074,18.205,0c1.021.009,1.237-.265,1.235-1.253q-.046-31.974,0-63.948c0-.99-.218-1.259-1.236-1.252-7.072.05-14.144.032-21.216.023-1.973,0-2.8-.817-2.806-2.764-.014-2.861.02-5.723-.01-8.583a8.025,8.025,0,1,0-16.048.061c-.023,2.813,0,5.627-.008,8.44-.008,2.043-.813,2.842-2.87,2.847-3.488.01-6.976,0-10.464,0M4.589,57.177c0,10.684.016,21.368-.025,32.052,0,1.009.249,1.247,1.249,1.24,7.073-.047,14.146-.031,21.22-.021,1.963,0,2.78.822,2.79,2.781.014,2.814-.011,5.628.007,8.442a8.028,8.028,0,1,0,16.052.033c.022-2.623,0-5.246,0-7.87,0-2.76.618-3.39,3.33-3.39,6.835,0,13.669-.02,20.5.021,1.035.006,1.454-.14,1.439-1.343q-.111-9.013,0-18.029c.014-1.141-.354-1.332-1.361-1.278-1.525.082-3.058.043-4.587.013a12.572,12.572,0,0,1-2.048-24.954,42.419,42.419,0,0,1,7.007-.207c.707-.013.979-.137.974-.929q-.053-9.372,0-18.745c0-.712-.141-.975-.929-.97q-9.391.052-18.783,0c-.719,0-1,.146-.97.93.058,1.763.052,3.53,0,5.293a12.6,12.6,0,0,1-24.978,1.856,36.01,36.01,0,0,1-.208-6.849c.006-1.009-.255-1.249-1.256-1.241q-9.033.077-18.065,0c-1.132-.012-1.39.293-1.385,1.4.044,10.589.026,21.178.026,31.766" transform="translate(0 0)" fill="#05bdcd"/>
      </g>
    </g>
    <g id="Group_207" data-name="Group 207" transform="translate(45.454 368.458)">
      <g id="Group_206" data-name="Group 206" clip-path="url(#clip-path-3)">
        <path id="Path_365" data-name="Path 365" d="M122.511,61.028c0,9.527-.031,19.054.03,28.581a3.2,3.2,0,0,1-2.046,3.27q-28.79,14.308-57.536,28.7a3.4,3.4,0,0,1-3.348.011q-28.949-14.5-57.934-28.928A2.672,2.672,0,0,1,0,89.989Q.032,61.013,0,32.037a2.668,2.668,0,0,1,1.667-2.68Q30.633,14.936,59.563.446a3.5,3.5,0,0,1,3.465.028Q91.7,14.827,120.412,29.1a3.359,3.359,0,0,1,2.133,3.478c-.071,9.483-.034,18.966-.034,28.449m-4.226-26.052c-.35.137-.515.188-.667.264Q90.919,48.561,64.21,61.862c-.831.413-.841.951-.841,1.672q.013,25.886.007,51.772v1.284c.435-.207.744-.348,1.048-.5q26.425-13.182,52.859-26.347a1.6,1.6,0,0,0,1.022-1.7q-.041-25.952-.02-51.9V34.976m-114-.055c-.022.329-.043.5-.043.666q0,26.338-.028,52.676c0,.919.461,1.162,1.12,1.491q26.284,13.1,52.557,26.219a2.3,2.3,0,0,0,1.223.461c.012-.181.034-.35.034-.518q0-26.338.027-52.676A1.411,1.411,0,0,0,58.168,61.8q-7.486-3.7-14.955-7.431c-.286-.142-.538-.45-.956-.271,0,6.324-.01,12.644.009,18.964a2.343,2.343,0,0,1-1.284,2.5c-1.179.525-2-.066-2.789-.862-2.227-2.247-4.485-4.462-6.7-6.719a1.987,1.987,0,0,0-1.605-.668c-1.978.047-3.958.02-5.937.016-2.142,0-2.811-.68-2.812-2.847q0-10.008,0-20.017c0-.61.062-1.132-.689-1.5C15.1,40.344,9.78,37.664,4.286,34.921M44.893,50.344a4.577,4.577,0,0,0,.551.392C50.5,53.268,55.559,55.782,60.6,58.341a1.528,1.528,0,0,0,1.571-.138q26.188-13.08,52.379-26.153c.317-.158.792-.16.871-.694-5.736-2.862-11.47-5.711-17.187-8.593a1.4,1.4,0,0,0-1.459.057Q70.867,36.577,44.893,50.344M6.867,31.492c5.185,2.589,10.128,5.018,15.027,7.534a2.47,2.47,0,0,0,2.625-.019q25.068-13.356,50.174-26.64c.374-.2.832-.291,1.11-.786C71.286,9.332,66.775,7.114,62.3,4.832a1.973,1.973,0,0,0-2.04,0Q43.228,13.379,26.166,21.86c-6.345,3.165-12.688,6.333-19.3,9.633M27.876,41.98c3.921,1.953,7.651,3.785,11.349,5.678a1.7,1.7,0,0,0,1.793-.025q25.489-13.55,50.993-27.071c.236-.125.619-.142.612-.581-3.721-1.859-7.456-3.7-11.165-5.6a1.63,1.63,0,0,0-1.7.062C62.532,23.6,45.3,32.737,27.876,41.98M38.03,68.631c0-5.618-.018-10.837.021-16.056a1.236,1.236,0,0,0-.879-1.257C33.6,49.55,30.031,47.76,26.454,45.993c-.327-.162-.622-.489-1.093-.35,0,5.536.011,11.067-.014,16.6,0,.667.146.912.862.887,1.626-.055,3.256.026,4.882-.032a3.153,3.153,0,0,1,2.564,1.075c1.35,1.427,2.749,2.809,4.375,4.461" transform="translate(0 0)" fill="#05bdcd"/>
      </g>
    </g>
    <path id="Icon_ionic-ios-arrow-forward" data-name="Icon ionic-ios-arrow-forward" d="M13.629,17.055.716,4.153a2.428,2.428,0,0,1,0-3.444,2.459,2.459,0,0,1,3.454,0L18.8,15.328a2.434,2.434,0,0,1,.071,3.363L4.181,33.412A2.439,2.439,0,1,1,.726,29.968Z" transform="translate(631.966 86.823) rotate(-10)" fill="#3a83b6"/>
    <path id="Icon_ionic-ios-arrow-forward-2" data-name="Icon ionic-ios-arrow-forward" d="M13.629,17.055.716,4.153a2.428,2.428,0,0,1,0-3.444,2.459,2.459,0,0,1,3.454,0L18.8,15.328a2.434,2.434,0,0,1,.071,3.363L4.181,33.412A2.439,2.439,0,1,1,.726,29.968Z" transform="matrix(0.574, 0.819, -0.819, 0.574, 1404.805, 323.12)" fill="#3a83b6"/>
    <path id="Icon_ionic-ios-arrow-forward-3" data-name="Icon ionic-ios-arrow-forward" d="M13.629,17.055.716,4.153a2.428,2.428,0,0,1,0-3.444,2.459,2.459,0,0,1,3.454,0L18.8,15.328a2.434,2.434,0,0,1,.071,3.363L4.181,33.412A2.439,2.439,0,1,1,.726,29.968Z" transform="translate(890.553 821.19) rotate(166)" fill="#3a83b6"/>
    <path id="Icon_ionic-ios-arrow-forward-4" data-name="Icon ionic-ios-arrow-forward" d="M13.629,17.055.716,4.153a2.428,2.428,0,0,1,0-3.444,2.459,2.459,0,0,1,3.454,0L18.8,15.328a2.434,2.434,0,0,1,.071,3.363L4.181,33.412A2.439,2.439,0,1,1,.726,29.968Z" transform="translate(119.709 585.058) rotate(-125)" fill="#3a83b6"/>
  </g>
  <g id="full_logo" data-name="full logo" transform="translate(681.824 356.911)">
    <g id="Group_58" data-name="Group 58" clip-path="url(#clip-path-4)">
      <path id="Path_249" data-name="Path 249" d="M32.7,70.487c0-25.244,20.436-45.82,46.056-46.878V0c-38.9,1.071-70.1,32.135-70.1,70.329s31.2,69.257,70.1,70.329V117.364C53.131,116.308,32.7,95.729,32.7,70.487" transform="translate(2.222)" fill="#2c83af"/>
      <path id="Path_250" data-name="Path 250" d="M123.543,60.563l-.277-.229c-.006.075-.011.15-.018.229Z" transform="translate(31.661 15.964)" fill="#347439"/>
      <path id="Path_251" data-name="Path 251" d="M68.042.009V23.618A48.049,48.049,0,0,1,110.6,53.94H68.042V76.523h69.389c.006-.075.009-.153.016-.229.168-1.969.28-3.954.28-5.968,0-38.057-30.981-69.038-69.686-70.318" transform="translate(17.479 0.002)" fill="#00b8cc"/>
      <path id="Path_252" data-name="Path 252" d="M106.558,75.166a47.346,47.346,0,0,1-6.925,8.569A48.539,48.539,0,0,1,68.042,97.467v23.29c1.285-.042,2.56-.114,3.826-.224A72.45,72.45,0,0,0,125.16,90.116l.209-1.128Z" transform="translate(17.479 19.888)" fill="#00b8cc"/>
      <path id="Path_253" data-name="Path 253" d="M0,124.143H6.986v1.492H1.621V129.3H6.83v1.492H1.621v4.946H6.986v1.492H0Z" transform="translate(0 32.847)" fill="#1e1e1e"/>
      <path id="Path_254" data-name="Path 254" d="M7.008,124.143H8.853l2.656,4.773,2.829-4.773h1.845l-3.742,6.229,3.949,6.855H14.58l-3.071-5.362-3.19,5.362H6.508l4.087-6.855Z" transform="translate(1.672 32.847)" fill="#1e1e1e"/>
      <path id="Path_255" data-name="Path 255" d="M17.341,130.286h.518c1.655,0,3.449-.312,3.449-2.4,0-2.047-1.932-2.29-3.536-2.29h-.431Zm0,6.941H15.718V124.143h1.864c4,0,5.244,1.389,5.244,3.784,0,2.758-2.088,3.818-4.554,3.818h-.931Z" transform="translate(4.038 32.847)" fill="#1e1e1e"/>
      <path id="Path_256" data-name="Path 256" d="M34.136,130.743a5.193,5.193,0,1,0-10.384,0,5.193,5.193,0,1,0,10.384,0m1.621,0a6.813,6.813,0,1,1-13.626,0,6.813,6.813,0,1,1,13.626,0" transform="translate(5.685 32.789)" fill="#1e1e1e"/>
      <path id="Path_257" data-name="Path 257" d="M48.5,126.7a5.363,5.363,0,1,0,0,8.018v1.926a7,7,0,0,1-3.415.921,6.753,6.753,0,0,1-6.78-6.752,6.857,6.857,0,0,1,6.918-6.889,6.249,6.249,0,0,1,3.277.885Z" transform="translate(9.839 32.789)" fill="#1e1e1e"/>
      <path id="Path_258" data-name="Path 258" d="M59.574,130.743a5.193,5.193,0,1,0-10.383,0,5.193,5.193,0,1,0,10.383,0m1.621,0a6.813,6.813,0,1,1-13.626,0,6.813,6.813,0,1,1,13.626,0" transform="translate(12.22 32.789)" fill="#1e1e1e"/>
      <path id="Path_259" data-name="Path 259" d="M62.423,128.7h-.035l-1.518,8.642H59.2l2.656-13.64,4.467,10.308L70.788,123.7l2.656,13.64H71.772L70.254,128.7h-.035l-3.9,8.92Z" transform="translate(15.207 32.731)" fill="#1e1e1e"/>
      <path id="Path_260" data-name="Path 260" d="M74.448,128.7h-.034L72.9,137.344H71.224l2.655-13.64,4.467,10.308L82.814,123.7l2.656,13.64H83.8L82.279,128.7h-.034l-3.9,8.92Z" transform="translate(18.297 32.731)" fill="#1e1e1e"/>
      <path id="Path_261" data-name="Path 261" d="M95.337,130.743a5.193,5.193,0,1,0-10.383,0,5.193,5.193,0,1,0,10.383,0m1.621,0a6.813,6.813,0,1,1-13.626,0,6.813,6.813,0,1,1,13.626,0" transform="translate(21.407 32.789)" fill="#1e1e1e"/>
      <path id="Path_262" data-name="Path 262" d="M97.281,135.735h.569c3.312,0,6.174-1.249,6.174-5.049,0-3.818-2.862-5.051-6.174-5.051h-.569ZM95.66,124.143h2.691c3.983,0,7.295,2.118,7.295,6.472,0,4.461-3.243,6.613-7.347,6.613H95.66Z" transform="translate(24.574 32.847)" fill="#1e1e1e"/>
      <rect id="Rectangle_859" data-name="Rectangle 859" width="1.621" height="13.085" transform="translate(132.226 156.99)" fill="#1e1e1e"/>
      <path id="Path_263" data-name="Path 263" d="M112.519,137.228H110.9V125.635H107.81v-1.492h7.8v1.492h-3.088Z" transform="translate(27.695 32.847)" fill="#1e1e1e"/>
      <rect id="Rectangle_860" data-name="Rectangle 860" width="1.621" height="13.085" transform="translate(144.96 156.99)" fill="#1e1e1e"/>
      <path id="Path_264" data-name="Path 264" d="M118.9,124.143h6.986v1.492h-5.363V129.3h5.209v1.492h-5.209v4.946h5.363v1.492H118.9Z" transform="translate(30.544 32.847)" fill="#1e1e1e"/>
      <path id="Path_265" data-name="Path 265" d="M132.317,126.682a2.225,2.225,0,0,0-2.088-1.232,2.054,2.054,0,0,0-2.173,1.855c0,1.024,1,1.563,1.811,1.875l.933.364c1.844.728,3.224,1.753,3.224,3.939a4.02,4.02,0,0,1-4.157,4.078,4.061,4.061,0,0,1-4.018-3.661l1.639-.348a2.458,2.458,0,1,0,4.914-.07c0-1.4-1.12-2.013-2.242-2.481l-.9-.382c-1.483-.642-2.828-1.493-2.828-3.316a3.554,3.554,0,0,1,3.828-3.383,3.7,3.7,0,0,1,3.346,1.978Z" transform="translate(32.329 32.789)" fill="#1e1e1e"/>
    </g>
  </g>
</svg>
