<svg id="Component_16_1" data-name="Component 16 – 1" xmlns="http://www.w3.org/2000/svg" xmlns:xlink="http://www.w3.org/1999/xlink" width="1426" height="932" viewBox="0 0 1426 932">
  <defs>
    <clipPath id="clip-path">
      <rect id="Rectangle_853" data-name="Rectangle 853" width="88.199" height="88.232" fill="#05bdcd"/>
    </clipPath>
    <clipPath id="clip-path-2">
      <rect id="Rectangle_854" data-name="Rectangle 854" width="57.632" height="41.977" fill="#05bdcd"/>
    </clipPath>
    <clipPath id="clip-path-3">
      <rect id="Rectangle_855" data-name="Rectangle 855" width="127.011" height="126.95" fill="#05bdcd"/>
    </clipPath>
    <clipPath id="clip-path-4">
      <rect id="Rectangle_852" data-name="Rectangle 852" width="76.717" height="76.706" fill="#05bdcd"/>
    </clipPath>
    <clipPath id="clip-path-5">
      <rect id="Rectangle_858" data-name="Rectangle 858" width="70.375" height="70.375" fill="#05bdcd"/>
    </clipPath>
    <clipPath id="clip-path-6">
      <rect id="Rectangle_856" data-name="Rectangle 856" width="63.338" height="63.251" fill="#05bdcd"/>
    </clipPath>
    <clipPath id="clip-path-7">
      <rect id="Rectangle_860" data-name="Rectangle 860" width="52.818" height="65.69" fill="#05bdcd"/>
    </clipPath>
    <clipPath id="clip-path-8">
      <rect id="Rectangle_857" data-name="Rectangle 857" width="60.457" height="60.475" fill="#05bdcd"/>
    </clipPath>
    <clipPath id="clip-path-9">
      <rect id="Rectangle_859" data-name="Rectangle 859" width="61.414" height="62.38" fill="#05bdcd"/>
    </clipPath>
    <clipPath id="clip-path-10">
      <rect id="Rectangle_861" data-name="Rectangle 861" width="135.254" height="99.214" fill="#05bdcd"/>
    </clipPath>
    <clipPath id="clip-path-11">
      <rect id="Rectangle_862" data-name="Rectangle 862" width="111.341" height="121.871" fill="#05bdcd"/>
    </clipPath>
  </defs>
  <g id="Ellipse_5" data-name="Ellipse 5" transform="translate(123)" fill="#fff" stroke="#3a83b6" stroke-width="10">
    <ellipse cx="596" cy="466" rx="596" ry="466" stroke="none"/>
    <ellipse cx="596" cy="466" rx="591" ry="461" fill="none"/>
  </g>
  <g id="Group_128" data-name="Group 128" transform="translate(-132 -1896)">
    <circle id="Ellipse_7" data-name="Ellipse 7" cx="111" cy="111" r="111" transform="translate(132 2251)" fill="#fff"/>
    <g id="Group_127" data-name="Group 127" transform="translate(142.315 133.926)">
      <g id="Group_124" data-name="Group 124" transform="translate(68.71 2137.767) rotate(7)">
        <g id="Group_123" data-name="Group 123" clip-path="url(#clip-path)">
          <path id="Path_256" data-name="Path 256" d="M62.37,59.545a47.642,47.642,0,0,0,8.708,2.567c4.8.956,9.6,1.894,14.471,2.4a9.22,9.22,0,0,0,1.112.073,1.344,1.344,0,0,1,.9,2.466,53.779,53.779,0,0,0-5.631,5.8C79.336,75.992,77,79.288,75.853,83.278a10.854,10.854,0,0,0-.489,3.294,1.423,1.423,0,0,1-.885,1.572,1.382,1.382,0,0,1-1.615-.6,45.735,45.735,0,0,0-4.444-4.622,19.5,19.5,0,0,0-10.656-4.377c-6.026-.757-12.008-.161-17.971.678-3.264.459-6.494.931-9.759-.01A25.064,25.064,0,0,1,18.01,71.173,35.758,35.758,0,0,1,9.464,53.521a14.533,14.533,0,0,0-5.808-9.078A22.673,22.673,0,0,0,.719,42.494a1.3,1.3,0,0,1,.265-2.426c4.665-1.294,8.954-3.558,13.485-5.2a27.084,27.084,0,0,1,6.922-1.7,13.029,13.029,0,0,1,6.6,1.2c.661.3.976.159,1.451-.346,5.857-6.213,9.133-13.752,11.3-21.864.542-2.031,1.019-4.08,1.5-6.126.4-1.674,1.332-2.039,2.64-.935a25.832,25.832,0,0,1,6.275,8.773,44.592,44.592,0,0,1,2.99,8.171c.046.176.115.346.193.578a12.259,12.259,0,0,0,1.948-1.584A55.091,55.091,0,0,0,67.139,6.634c.978-1.755,1.883-3.551,2.8-5.337.844-1.639,1.748-1.727,2.9-.25,3.075,3.948,3.894,8.471,3.365,13.327a16.05,16.05,0,0,1-.61,3.094.805.805,0,0,0,.263.975c3.967,3.43,3.378,10.414-.992,13.7a1.251,1.251,0,0,0-.516,1.518c.642,3.354.348,6.537-2.4,8.955a3.337,3.337,0,0,0-1.371,2.532A8.707,8.707,0,0,1,66.1,52.036a1.193,1.193,0,0,0-.634,1.085,9.652,9.652,0,0,1-2.46,5.691c-.178.212-.364.418-.639.733M73.043,83.638c1.689-6.693,5.978-11.761,10.669-16.618a2.094,2.094,0,0,0-.366-.142c-4.153-.5-8.253-1.315-12.354-2.121a54.972,54.972,0,0,1-11.329-3.468c-1.29-.56-1.444-1.571-.361-2.49a12.911,12.911,0,0,0,2.023-2.044,5.9,5.9,0,0,0,1.52-4.178A2.275,2.275,0,0,1,64.3,50.045c2.652-1.516,4.218-3.7,3.572-6.965a1.3,1.3,0,0,1,.992-1.559,4.279,4.279,0,0,0,2.4-2.09,7.325,7.325,0,0,0,.182-6.293c-.553-1.327-.478-1.727.752-2.378a6.45,6.45,0,0,0,3.65-5.458c.153-2.043-.209-3.994-2.133-5.216-1.207-.766-1.33-.98-.918-2.317A18.479,18.479,0,0,0,73.1,7.239a9.381,9.381,0,0,0-1.528-3.332c-.749,1.386-1.45,2.694-2.161,4C64.949,16.076,59.239,23.12,51.264,28.164A67.022,67.022,0,0,0,35.644,41.248a1.3,1.3,0,0,1-2.1.075,27.924,27.924,0,0,0-4.385-3.43,12.185,12.185,0,0,0-8.57-1.991,35.846,35.846,0,0,0-7.6,2.347c-2.828,1.146-5.64,2.332-8.509,3.521.31.243.578.451.843.66a17.95,17.95,0,0,1,6.84,11.2A31.921,31.921,0,0,0,23.772,73.159a16.672,16.672,0,0,0,13.69,3.767,74.267,74.267,0,0,1,20.369-.978,21.7,21.7,0,0,1,13.849,6.43c.423.442.9.833,1.364,1.259M44.534,8.4c-.241.134-.216.338-.259.513a92.145,92.145,0,0,1-3.87,12.476A44.979,44.979,0,0,1,31.72,35.336c-.561.609-.482.864.175,1.268a12.717,12.717,0,0,1,1.979,1.535c.47.438.721.411,1.159-.067a62.283,62.283,0,0,1,9.71-8.638c2.19-1.566,4.445-3.041,6.682-4.542a.9.9,0,0,0,.487-1.123,42.211,42.211,0,0,0-5.3-12.694A14.167,14.167,0,0,0,44.534,8.4" transform="translate(0 0)" fill="#05bdcd"/>
          <path id="Path_257" data-name="Path 257" d="M6.877,7.689a1.357,1.357,0,0,1-.8,1.127,1.119,1.119,0,0,1-1.368-.24A28.356,28.356,0,0,1,.119,1.737,1.141,1.141,0,0,1,.657.218a1.2,1.2,0,0,1,1.6.206,1.777,1.777,0,0,1,.32.453A31.567,31.567,0,0,0,6.45,6.651a1.623,1.623,0,0,1,.427,1.037" transform="translate(16.723 59.722)" fill="#05bdcd"/>
        </g>
      </g>
      <g id="Group_126" data-name="Group 126" transform="translate(31.879 2233.429) rotate(-17)">
        <g id="Group_125" data-name="Group 125" clip-path="url(#clip-path-2)">
          <path id="Path_258" data-name="Path 258" d="M0,1.968C.611.234,2.131.184,3.587.065A17.928,17.928,0,0,1,16.139,4.051a37.375,37.375,0,0,1,9.092,10.4c.682,1.1,1.328,2.214,1.916,3.365.068.134.078.42.375.269.279-.142.083-.334.03-.478-.674-1.823-1.36-3.642-2.043-5.462-.039-.105-.082-.209-.118-.315-.209-.622-.04-1.084.46-1.26.46-.162.9.081,1.118.664.605,1.586,1.2,3.177,1.795,4.772.237-.058.218-.263.271-.4.534-1.4,1.055-2.8,1.583-4.2a2.5,2.5,0,0,1,.234-.507.814.814,0,0,1,1.493.528,3.146,3.146,0,0,1-.2.7q-1,2.681-2,5.358c-.026.07-.056.139-.083.209-.059.158-.142.317.1.411s.253-.11.31-.224c.591-1.17,1.25-2.3,1.939-3.416a38.776,38.776,0,0,1,8.115-9.635A19.988,19.988,0,0,1,49.953.235a16.1,16.1,0,0,1,5.926.083,2.184,2.184,0,0,1,1.7,2.673A27.84,27.84,0,0,1,54.5,10.965a27.232,27.232,0,0,0-2.985,7.59,3.418,3.418,0,0,1-3.3,2.793c-.593.045-1.186.083-1.9.132.244.161.4.277.563.37a19.066,19.066,0,0,1,2.789,1.987,2.531,2.531,0,0,1,.94,2.664,43.771,43.771,0,0,1-4.134,11.287,12.445,12.445,0,0,1-1.871,2.52A4.476,4.476,0,0,1,39,41.432a13.877,13.877,0,0,1-6.527-5.718c-.916-1.667-1.619-3.451-2.419-5.182-.085-.184-.176-.364-.317-.655-.115.672-.188,1.3-.979,1.252-.7-.044-.757-.606-.816-1.159-.231.133-.255.351-.335.523-.641,1.372-1.314,2.731-1.9,4.128A13.346,13.346,0,0,1,19.882,40.8a11.624,11.624,0,0,1-1.827.852,4.2,4.2,0,0,1-4.612-.967A13.03,13.03,0,0,1,10.5,36.546,47.557,47.557,0,0,1,7.058,26.6a2.649,2.649,0,0,1,1.011-2.843A21.307,21.307,0,0,1,11.4,21.49c-.771-.055-1.374-.1-1.978-.142A3.392,3.392,0,0,1,6.15,18.6a28.044,28.044,0,0,0-3.06-7.741A27.975,27.975,0,0,1,.155,3.423C.129,3.31.171,3.146,0,3.094Zm2.7,4.01A23.7,23.7,0,0,0,4.318,9.547a31,31,0,0,1,3.46,8.608,1.756,1.756,0,0,0,1.837,1.509c3.183.194,6.368.364,9.552.542,1.386.078,2.773.145,4.158.232a.841.841,0,0,1,.89.882c-.018.494-.377.795-.958.8-.075,0-.15,0-.225-.006q-3.568-.2-7.136-.4a2.45,2.45,0,0,0-.942.05,18.512,18.512,0,0,0-5.873,3.342,1.042,1.042,0,0,0-.38,1.152,46.076,46.076,0,0,0,3.444,9.767,11.515,11.515,0,0,0,2.5,3.5c.306.271.451.268.7-.1q5.262-7.671,10.566-15.314a1.351,1.351,0,0,0,.262-.83c-.011-.975-.033-1.953.021-2.925a2.019,2.019,0,0,0-.2-1.072A43.692,43.692,0,0,0,17.9,7.808a21.387,21.387,0,0,0-7.954-5.25,14.539,14.539,0,0,0-7.586-.622c-.648.119-.731.262-.577.926.025.109.042.221.07.33A2.628,2.628,0,0,0,2.143,4.2c.257.3.7.038,1.06.043A19.313,19.313,0,0,1,13.142,7.22a31.4,31.4,0,0,1,8.951,8.43,2.161,2.161,0,0,1,.206.332.768.768,0,0,1-.249,1,.741.741,0,0,1-.984,0,2.214,2.214,0,0,1-.419-.45,33.748,33.748,0,0,0-3.259-3.8A22.173,22.173,0,0,0,6.455,6.306,13.185,13.185,0,0,0,2.7,5.978M38.336,21.9c-1.292.072-2.584.153-3.878.211-.63.028-1-.277-1.026-.785s.322-.857.934-.9c.711-.046,1.424-.077,2.136-.117,3.784-.211,7.568-.413,11.351-.64a1.909,1.909,0,0,0,2.091-1.784,26.9,26.9,0,0,1,2.724-7.1,38.245,38.245,0,0,0,1.957-3.974c.369-.94.385-.923-.631-.876A18.757,18.757,0,0,0,43.632,9.826a31.809,31.809,0,0,0-6.591,6.65,2.378,2.378,0,0,1-.493.532.735.735,0,0,1-.982-.053.75.75,0,0,1-.219-.959,3.675,3.675,0,0,1,.335-.516,32.293,32.293,0,0,1,6.945-7.005A20.275,20.275,0,0,1,54.152,4.248c.463-.013,1.059.324,1.364-.09a4.2,4.2,0,0,0,.4-1.446c.109-.435-.06-.677-.5-.76a14.591,14.591,0,0,0-5.258-.036A18.029,18.029,0,0,0,41.6,6.141a41.018,41.018,0,0,0-10.055,13.39.842.842,0,0,0-.117.481c.117,1.085.037,2.174.05,3.261a1.4,1.4,0,0,0,.257.832q5.3,7.647,10.564,15.315c.282.412.447.341.744.076a11.6,11.6,0,0,0,2.488-3.511,46.3,46.3,0,0,0,3.42-9.716,1.075,1.075,0,0,0-.411-1.193,19.713,19.713,0,0,0-5.034-3.03,4.143,4.143,0,0,0-2.075-.319c-1.023.117-2.059.124-3.09.178m-21.5,18.323a1.546,1.546,0,0,0,.242-.033,11.762,11.762,0,0,0,6.951-5.982c.467-.977.907-1.967,1.359-2.952.693-1.511,1.365-3.032,2.089-4.529.3-.619-.31-.619-.524-.845s-.3.14-.395.268c-.661.931-1.3,1.874-1.952,2.814l-7.77,11.258m24,.035c-1.161-1.68-2.246-3.249-3.33-4.82q-3.189-4.621-6.38-9.241c-.1-.145-.15-.383-.356-.388-.325-.008-.708.664-.571.963,1.044,2.275,2.141,4.527,3.117,6.83a10.925,10.925,0,0,0,3.448,4.481,10.831,10.831,0,0,0,4.072,2.174M29.786,22.239c0-.561.013-1.122,0-1.682-.021-.711-.405-1.141-.977-1.128-.553.012-.928.426-.939,1.108q-.028,1.653,0,3.307c.012.687.381,1.086.947,1.092s.941-.395.967-1.072c.021-.541,0-1.084,0-1.626" transform="translate(0 0)" fill="#05bdcd"/>
          <path id="Path_259" data-name="Path 259" d="M0,14.415,7.77,3.158c.649-.94,1.291-1.883,1.952-2.814.091-.128.172-.5.395-.268s.823.226.524.845c-.724,1.5-1.4,3.017-2.089,4.529C8.1,6.433,7.661,7.424,7.193,8.4A11.762,11.762,0,0,1,.242,14.382,1.549,1.549,0,0,1,0,14.415" transform="translate(16.839 25.813)" fill="#05bdcd"/>
          <path id="Path_260" data-name="Path 260" d="M10.665,14.448a10.831,10.831,0,0,1-4.072-2.174A10.924,10.924,0,0,1,3.146,7.793C2.17,5.49,1.072,3.238.029.963-.109.664.275-.008.6,0,.805.005.856.244.956.388Q4.15,5.005,7.335,9.629c1.084,1.57,2.169,3.14,3.33,4.82" transform="translate(30.169 25.815)" fill="#05bdcd"/>
        </g>
      </g>
    </g>
  </g>
  <g id="Group_133" data-name="Group 133" transform="translate(989 -1969)">
    <circle id="Ellipse_7-2" data-name="Ellipse 7" cx="111" cy="111" r="111" transform="translate(200 2324)" fill="#fff"/>
    <g id="Group_132" data-name="Group 132" transform="translate(247 2372)">
      <g id="Group_131" data-name="Group 131" clip-path="url(#clip-path-3)">
        <path id="Path_261" data-name="Path 261" d="M0,123.516A4.243,4.243,0,0,1,3.787,122c8.514.061,17.029.013,25.543.052.957,0,1.223-.219,1.211-1.2-.057-4.5-.042-9.007-.01-13.511.006-.806-.076-1.154-1.061-1.285Q10.6,103.536,2.638,86.2a4.366,4.366,0,0,1-.606-2.117A2.472,2.472,0,0,1,4.024,81.85a2.377,2.377,0,0,1,2.791,1.531,30.163,30.163,0,0,0,3.447,6.268,28.277,28.277,0,0,0,19.49,11.487c.6.084.779-.025.776-.661q-.034-9.421,0-18.841a1.644,1.644,0,0,0-.66-1.243c-2.514-2.511-5.044-5.008-7.535-7.542a2.472,2.472,0,0,1,.445-4.078,2.434,2.434,0,0,1,3.044.576c1.49,1.49,2.974,2.986,4.69,4.71v-3.6c0-1.281-.012-2.562,0-3.842A2.569,2.569,0,0,1,33,63.795,2.541,2.541,0,0,1,35.473,66.6q.015,8.615,0,17.23v.658c.459-.07.642-.411.881-.648q3.212-3.187,6.407-6.392c1.47-1.466,2.845-1.645,4-.528s.98,2.566-.45,4q-5.08,5.088-10.18,10.158a2.039,2.039,0,0,0-.669,1.62q.056,3.78,0,7.561c-.012.728.088,1,.929.886a28.2,28.2,0,0,0,24-21.777,1.134,1.134,0,0,0-.5-1.433A45.106,45.106,0,0,1,40,47c-.135-.794-.462-.977-1.147-1.123A28.174,28.174,0,0,0,7.2,62.288c-.161.379-.3.77-.494,1.131a2.413,2.413,0,0,1-3.15,1.167A2.382,2.382,0,0,1,2.2,61.527,29.32,29.32,0,0,1,8.382,51.333q12.534-13.412,30.7-10.459a2.67,2.67,0,0,0,.339,0,44.811,44.811,0,0,1,.743-9.1C42.82,18.125,50.153,7.741,62.012.513A2.663,2.663,0,0,1,65.03.537C76.839,7.754,84.146,18.114,86.811,31.711a44.318,44.318,0,0,1,.721,10.1c1.17-.223,2.266-.491,3.377-.635a21.338,21.338,0,0,1,24.349,18.587,17.877,17.877,0,0,1-.027,5.068,1.155,1.155,0,0,0,.68,1.357c7.512,4.727,11.23,11.573,11.042,20.413A22.654,22.654,0,0,1,106.8,108.175c-4.192.391-5.55.193-11.89-1.753v2.089c0,4.132.032,8.264-.025,12.4-.013.927.215,1.15,1.145,1.146,9.3-.039,18.6-.017,27.9-.032a2.83,2.83,0,0,1,2.607,1.094c.931,1.346.487,2.69-1.281,3.875H1.984A2.962,2.962,0,0,1,0,125ZM89.65,88.35l.3-.1q0-2.826,0-5.653c0-2.934-.025-5.868.02-8.8a2.433,2.433,0,0,1,2.367-2.524,2.478,2.478,0,0,1,2.538,2.366c.07.7.006,1.4.041,2.1a13.534,13.534,0,0,0,.161,3.243c2-2.016,3.892-3.919,5.779-5.828a2.815,2.815,0,0,1,1.675-.973,2.371,2.371,0,0,1,2.569,1.328,2.419,2.419,0,0,1-.622,3.031q-4.429,4.425-8.865,8.843A2.067,2.067,0,0,0,94.892,87q.05,6.383,0,12.767a1.4,1.4,0,0,0,.878,1.433,17.482,17.482,0,0,0,12.954,1.6,17.7,17.7,0,0,0,3.212-33.141c-1.994-.972-2.315-1.63-1.852-3.834a15.374,15.374,0,0,0,.233-5.547c-1.062-6.754-4.789-11.49-11.313-13.572-6.628-2.115-12.583-.485-17.225,4.7-4.575,5.105-5.37,11.07-2.86,17.431,1.036,2.625.605,3.694-2.058,4.518a15.36,15.36,0,1,0,10.96,28.62c1.58-.716,2.5-1.575,2.147-3.416a5.971,5.971,0,0,1,0-1.731,2.333,2.333,0,0,0-.833-2.058c-2.662-2.6-5.274-5.245-7.907-7.873a3.185,3.185,0,0,1-1.083-1.618,2.406,2.406,0,0,1,1.124-2.667A2.451,2.451,0,0,1,84.327,83c1.8,1.759,3.551,3.562,5.322,5.346M65.976,72.69a42.713,42.713,0,0,0,6.485-5.906,1.492,1.492,0,0,0,.4-1.334c-1.02-8.11,1.629-14.805,7.988-19.914a4.037,4.037,0,0,0,1.719-3.369q.567-22.7-17.843-35.981a1.8,1.8,0,0,0-2.459.01,40.714,40.714,0,0,0-6.787,61.584,33.5,33.5,0,0,0,5.538,4.862c0-5.467-.015-10.75.016-16.034a2.436,2.436,0,0,0-.787-1.938q-4.43-4.336-8.776-8.757a2.424,2.424,0,0,1-.061-3.634,2.484,2.484,0,0,1,3.551.147c1.777,1.729,3.509,3.5,5.277,5.242.2.2.326.593.78.5q0-10.735,0-21.451c0-1.762,1.03-2.9,2.537-2.864,1.46.036,2.412,1.143,2.418,2.86.012,3.016,0,6.033.014,9.049,0,.284-.2.652.221.889,1.2-1.206,2.38-2.418,3.585-3.609,1.278-1.264,2.75-1.361,3.81-.279,1.077,1.1.961,2.494-.348,3.813-2.184,2.2-4.365,4.4-6.586,6.562a2.165,2.165,0,0,0-.706,1.724c.024,7.975.015,15.949.015,23.924ZM61.015,90.95a3.516,3.516,0,0,0-.372.354A32.828,32.828,0,0,1,36.2,106.1c-.876.1-.719.573-.72,1.078,0,4.582.031,9.164-.029,13.746-.013.963.273,1.127,1.164,1.123q11.644-.054,23.288,0c.936.005,1.138-.231,1.135-1.146-.037-9.618-.023-19.236-.023-28.854Zm4.962,10.363c0,6.826.021,13.347-.025,19.866-.006.906.42.857,1.038.856,7.269-.01,14.537-.023,21.805.014.892,0,1.192-.16,1.179-1.13-.06-4.417-.053-8.835-.006-13.252.011-1-.15-1.174-1.134-.784a19.87,19.87,0,0,1-15.077-.022,20.548,20.548,0,0,1-7.78-5.548" transform="translate(0 -0.038)" fill="#05bdcd"/>
        <path id="Path_262" data-name="Path 262" d="M293.861,14.679a14.787,14.787,0,1,1,14.692,14.888,14.8,14.8,0,0,1-14.692-14.888m14.791,9.926a9.821,9.821,0,1,0-9.827-9.826,9.829,9.829,0,0,0,9.827,9.826" transform="translate(-196.444 0)" fill="#05bdcd"/>
      </g>
    </g>
  </g>
  <path id="Icon_ionic-ios-arrow-forward" data-name="Icon ionic-ios-arrow-forward" d="M31.918,32.064,12.333,12.495a3.683,3.683,0,0,1,0-5.224,3.73,3.73,0,0,1,5.239,0L39.761,29.445a3.692,3.692,0,0,1,.108,5.1L17.587,56.873a3.7,3.7,0,1,1-5.239-5.224Z" transform="matrix(-0.326, -0.946, 0.946, -0.326, 124.917, 617.566)" fill="#3a83b6"/>
  <path id="Icon_ionic-ios-arrow-forward-2" data-name="Icon ionic-ios-arrow-forward" d="M20.671,25.868,1.086,6.3a3.683,3.683,0,0,1,0-5.224,3.73,3.73,0,0,1,5.239,0L28.515,23.249a3.692,3.692,0,0,1,.108,5.1L6.341,50.677A3.7,3.7,0,1,1,1.1,45.453Z" transform="translate(1309.936 324.085) rotate(71)" fill="#3a83b6"/>
  <g id="Ellipse_8" data-name="Ellipse 8" transform="translate(308 144)" fill="#fff" stroke="#3a83b6" stroke-width="10">
    <ellipse cx="411" cy="322" rx="411" ry="322" stroke="none"/>
    <ellipse cx="411" cy="322" rx="406" ry="317" fill="none"/>
  </g>
  <g id="Group_129" data-name="Group 129" transform="translate(-1060.336 -2005.336)">
    <circle id="Ellipse_6" data-name="Ellipse 6" cx="81" cy="81" r="81" transform="translate(1698.336 2080.336)" fill="#fff"/>
    <g id="Group_121" data-name="Group 121" transform="translate(1740.977 2107.418)">
      <g id="Group_120" data-name="Group 120" clip-path="url(#clip-path-4)">
        <path id="Path_252" data-name="Path 252" d="M28.724,39.511a31.872,31.872,0,0,0-4.282-2.617,53.511,53.511,0,0,1-8.363-5.221,15.449,15.449,0,0,1-5.949-9.279c-.478-2.6-.318-5.077,1.433-7.244A7.412,7.412,0,1,1,17.9,27.2c-1.814.131-1.766.129-1.834-1.631-.029-.745.248-.808.868-.808A4.945,4.945,0,1,0,12.391,19.6c-.1,3.946,1.688,7.017,4.558,9.561a43.889,43.889,0,0,0,8.488,5.444,48.417,48.417,0,0,1,4.257,2.512V36.19q0-10.05,0-20.1a15.86,15.86,0,0,1,31.543-2.554c.106.765.255,1.525.321,2.293.043.5.287.669.739.789,7.468,1.976,12.115,6.739,13.982,14.222a15.448,15.448,0,0,1,.42,3.753c0,3.5-.016,7.01.016,10.514.005.594-.159.725-.727.713-3.117-.063-6.237.086-9.352-.089a15.883,15.883,0,0,1-12.5-23.879c.568-1.007,1.135-2.016,1.729-3.009a.707.707,0,0,0,0-.829C54.9,16.348,53.983,14.65,52.992,13a6.2,6.2,0,0,0-9.806-1.2,11.709,11.709,0,0,0-3.573,8.378c-.055,6.8-.018,13.607-.024,20.41a.734.734,0,0,0,.363.761,13.853,13.853,0,0,1,6.4,9.16c.693,2.84,1.083,5.725.1,8.6a17.263,17.263,0,0,1-5.12,7.227,41.013,41.013,0,0,1-16.9,8.733,41.751,41.751,0,0,1-12.978,1.6c-6.117-.275-9.824-3.6-10.988-9.613C-1.3,57.966,2.047,50.909,9.136,45.416a27.21,27.21,0,0,1,17.221-5.8c.7,0,1.392,0,2.087-.007a1.526,1.526,0,0,0,.28-.1m1.589,16.411a11.285,11.285,0,0,0,2.434-2.113,14.907,14.907,0,0,0,4.412-10.9c-.154-7.443-.051-14.892-.039-22.338a14.447,14.447,0,0,1,3.929-10.11,8.685,8.685,0,0,1,14.284,1.632c1.269,2.2,2.518,4.422,3.788,6.627.1.172.119.443.407.487a1.329,1.329,0,0,0,.01-.246c-.254-1.705-.518-3.409-.765-5.115A13.38,13.38,0,0,0,32.173,16c-.013,8.116.037,16.233-.022,24.349a56.943,56.943,0,0,1-1.875,15.283c-.032.111-.133.237.051.314l-.109-.025.015.1.08-.095M39.634,44.1c-.046.659-.062,1.2-.124,1.727a15.653,15.653,0,0,1-3.858,8.435c-3.793,4.44-8.439,7.331-14.444,7.6a5.418,5.418,0,0,0-2.151.558c-2.112,1.031-4.177,2.236-5.089,4.49a1.528,1.528,0,0,1-1.91,1.159,1.526,1.526,0,0,0-.386,0c-.464.066-.583-.143-.509-.572a6.035,6.035,0,0,1,1.2-2.811c2.463-3.075,5.479-5.18,9.574-5.346a6.719,6.719,0,0,0,1.224-.15c3.666-.844,3.485-.506,4.681-4.178,1.319-4.047,1.57-8.275,1.81-12.494.026-.455-.224-.431-.521-.43-1.082,0-2.164-.007-3.247,0a24.335,24.335,0,0,0-15.8,5.659C4.1,52.731,1.268,58.951,2.95,66.832c1.011,4.736,3.8,7.176,8.63,7.37a39.988,39.988,0,0,0,11.4-1.271,38.77,38.77,0,0,0,16.532-8.258,15.138,15.138,0,0,0,4.5-6.084c1.037-2.832.485-5.649-.317-8.411A11.536,11.536,0,0,0,39.634,44.1M65.788,30.079c1.228,2.027,2.378,3.911,3.511,5.8.312.521.986,1.084.815,1.562-.164.458-.98.661-1.469,1.031-.42.318-.581.152-.8-.23-.576-1-1.2-1.979-1.8-2.966-.389-.637-.776-1.276-1.254-2.061-.456,1.776-.86,3.365-1.272,4.953-.464,1.786-.46,1.758-2.241,1.307-.559-.142-.59-.372-.462-.85.688-2.582,1.337-5.174,2.034-7.754a1.312,1.312,0,0,0-.172-1.15q-1.2-1.93-2.346-3.9c-.926-1.589-1.826-3.193-2.8-4.909-.59,1.049-1.144,1.964-1.633,2.914A13.407,13.407,0,0,0,65.571,43.1c2.736.452,5.5.145,8.255.231.542.017.4-.354.4-.628.006-2.68.062-5.361-.008-8.038a15.914,15.914,0,0,0-8.575-14.21,11.876,11.876,0,0,0-3.56-1.348c.321,2.153.525,4.231.985,6.252.188.825.5,1.893,1.664,2.073q2.708.42,5.422.8c1.85.254,1.82.236,1.53,2.078-.091.574-.308.623-.793.544-1.648-.269-3.3-.5-5.1-.772" transform="translate(0 0)" fill="#05bdcd"/>
        <path id="Path_253" data-name="Path 253" d="M146.322,270.6l-.08.095-.015-.1.109.025-.014-.022" transform="translate(-116.009 -214.675)" fill="#05bdcd"/>
        <path id="Path_254" data-name="Path 254" d="M49.662,217.219a3.305,3.305,0,0,0,0,.539c.07.422-.063.56-.515.6a19.617,19.617,0,0,0-13.86,7.307,12.759,12.759,0,0,0-1.666,2.587c-.177.37-.338.387-.692.231-1.894-.837-1.937-.851-.824-2.567A21.754,21.754,0,0,1,46.7,216.188c.68-.136,1.379-.176,2.059-.309s.948.124.867.8a4.523,4.523,0,0,0,0,.54h.041" transform="translate(-24.888 -171.241)" fill="#05bdcd"/>
        <path id="Path_255" data-name="Path 255" d="M25.189,289.534c-1.349,0-1.349,0-1.145-1.38.215-1.451.2-1.4,1.669-1.124.782.147,1.123.413.823,1.211a.79.79,0,0,0-.032.15c-.183,1.143-.183,1.143-1.315,1.143" transform="translate(-18.997 -227.593)" fill="#05bdcd"/>
      </g>
    </g>
  </g>
  <g id="Group_139" data-name="Group 139" transform="translate(-1060.336 -1385.336)">
    <circle id="Ellipse_6-2" data-name="Ellipse 6" cx="81" cy="81" r="81" transform="translate(1698.336 2080.336)" fill="#fff"/>
    <g id="Group_144" data-name="Group 144" transform="translate(1744.149 2126.148)">
      <g id="Group_143" data-name="Group 143" clip-path="url(#clip-path-5)">
        <path id="Path_274" data-name="Path 274" d="M70.375,35.159A35.187,35.187,0,1,1,35.159,0,35.25,35.25,0,0,1,70.375,35.159M28.139,21.927a1.448,1.448,0,0,0,1.211-1.018,1.506,1.506,0,0,1,.439-.73c1.321-.966,1.039-2.2.629-3.461a1.113,1.113,0,0,1-.081-.3,1.153,1.153,0,0,0-.662-.983c-.9-.574-1.795-1.171-2.679-1.776-.781-.535-.934-1.189-.465-1.863a1.226,1.226,0,0,1,1.856-.226c.877.568,1.7,1.236,2.621,1.717A3.274,3.274,0,0,1,32.839,16a3.028,3.028,0,0,0,.45,1.617c.225.236.967-.02,1.477-.055a.484.484,0,0,0,.078,0c.713-.17,1.618.513,2.09-.072a5.4,5.4,0,0,0,.569-2.168c.1-.462.14-.965.563-1.253,1.316-.9,2.635-1.794,3.984-2.641a1.115,1.115,0,0,1,1.619.441,1.149,1.149,0,0,1-.254,1.613,6.311,6.311,0,0,1-1.235.828,4.448,4.448,0,0,0-2.8,4.1,1.769,1.769,0,0,1-.082.3.334.334,0,0,0,.109.349,6.522,6.522,0,0,1,1.658,2.349.926.926,0,0,0,.853.469c.3.014.277-.38.368-.6q.8-1.957,1.569-3.923a1.944,1.944,0,0,1,.749-.972c1.16-.756,2.3-1.539,3.462-2.3a1.235,1.235,0,0,1,1.859.231,1.254,1.254,0,0,1-.481,1.867c-.927.635-1.86,1.262-2.8,1.871a1.6,1.6,0,0,0-.68.816c-.511,1.34-1.06,2.665-1.591,4-.1.253-.287.5.062.745.407.285.51-.126.672-.287,3.9-3.877,7.774-7.772,11.675-11.644.4-.4.466-.587,0-1.006A32.663,32.663,0,0,0,10.7,56.8c.384.444.583.378.95,0,1.367-1.408,2.76-2.792,4.162-4.165a1.3,1.3,0,0,0,.413-1.031c-.018-1.989.012-3.979-.018-5.967a1.723,1.723,0,0,1,1.031-1.761c.867-.424,1.7-.909,2.554-1.367.257-.138.468-.253.421-.642a26.735,26.735,0,0,1,.645-10.039c.039-.15.156-.343-.124-.447a.993.993,0,0,0-1.277.584c-.629,1.88-1.252,3.761-1.883,5.64a2.08,2.08,0,0,1-.612,1.068c-2.068,1.644-4.12,3.308-6.195,4.943A1.256,1.256,0,1,1,9.283,41.6c1.77-1.43,3.543-2.857,5.337-4.257a2.217,2.217,0,0,0,.773-1.127c.671-2.059,1.36-4.112,2.047-6.165.329-.986.6-1.18,1.656-1.186.707,0,1.415-.029,2.12.009a.858.858,0,0,0,.956-.574,13.485,13.485,0,0,1,3.47-4.6.581.581,0,0,0,.18-.8c-.459-1.08-.924-2.161-1.3-3.272a3.331,3.331,0,0,0-1.6-2c-.776-.427-1.493-.962-2.225-1.465a1.21,1.21,0,0,1-.486-1.8,1.235,1.235,0,0,1,1.9-.269c1.073.7,2.126,1.428,3.205,2.117a2.554,2.554,0,0,1,1.062,1.3c.566,1.486,1.17,2.956,1.753,4.416M22.546,49.541a1.7,1.7,0,0,0-.259.178c-3,3-5.992,6-9.006,8.983-.383.379-.181.538.1.778,9.39,8.007,20.072,10.468,31.83,6.745A32.324,32.324,0,0,0,67.722,32.555a32.059,32.059,0,0,0-8.167-19.111c-.4-.463-.6-.426-1.009-.013Q52.964,19.063,47.34,24.657c-.94.94-.962.955-.208,2.07.464.686.6,1.752,1.3,2.054a7,7,0,0,0,2.561.083c1.144.005,1.409.191,1.767,1.263.679,2.029,1.37,4.055,2.021,6.093a2.195,2.195,0,0,0,.774,1.125q2.653,2.086,5.273,4.213c.67.541.813,1.1.481,1.7a1.192,1.192,0,0,1-1.863.394c-2.1-1.645-4.174-3.325-6.26-4.988a1.831,1.831,0,0,1-.553-.926q-.884-2.674-1.77-5.347c-.369-1.113-.371-1.113-1.63-.93a28.055,28.055,0,0,1,.728,10.422.532.532,0,0,0,.362.6c.833.435,1.636.93,2.482,1.335a1.755,1.755,0,0,1,1.13,1.851c-.058,1.2.1,2.42-.039,3.609-.227,2.019.216,3.692,1.974,4.872a.667.667,0,0,1,.111.111,1.289,1.289,0,0,1,.077,1.883A1.252,1.252,0,0,1,54.181,56c-.731-.712-1.432-1.457-2.172-2.159a1.864,1.864,0,0,1-.61-1.463c.016-1.675-.076-3.356.034-5.024a1.871,1.871,0,0,0-1.271-2.148c-.615-.264-.777-.243-.966.41A16.673,16.673,0,0,1,42.048,55.4c-3.154,2.014-6.514,3.063-10.268,1.777a16.766,16.766,0,0,1-9.234-7.633m22-22.11c-2.6,2.607-5.158,5.185-7.74,7.738a1.567,1.567,0,0,0-.492,1.237q.021,8.871.009,17.741c0,1.01,0,1.025.957.732a13.725,13.725,0,0,0,9.054-8.568,22.635,22.635,0,0,0,.851-12.433,15.185,15.185,0,0,0-2.639-6.448M23.361,44.925c.1-.027.166-.024.2-.054q5-4.99,10-9.98a.887.887,0,0,0,.263-.7q-.008-4.355,0-8.711c0-.349-.081-.49-.462-.536a10.02,10.02,0,0,1-2.932-.812,1.1,1.1,0,0,0-1.023.028,10.133,10.133,0,0,0-4.592,4.559,21.274,21.274,0,0,0-2.26,11.534,18.27,18.27,0,0,0,.812,4.669m10.45-6.759c-3.148,3.155-6.135,6.153-9.13,9.144a.478.478,0,0,0-.079.677,13.825,13.825,0,0,0,8.478,6.969c.56.165.751.082.747-.576-.029-5.1-.016-10.2-.016-15.305Zm2.517-6.257c.116-.012.184,0,.211-.025q3-2.991,6-5.984c.24-.238.269-.389-.02-.607a12.041,12.041,0,0,0-1.922-1.2.734.734,0,0,0-.673-.037,11.1,11.1,0,0,1-3.227.911c-.253.033-.374.111-.373.379q.007,3.278,0,6.565m-4.677-9.994a9.621,9.621,0,0,0,6.867.012,3.737,3.737,0,0,0-3.431-1.871,3.74,3.74,0,0,0-3.436,1.859M18.734,49.5c.117-.012.184,0,.211-.026.614-.6,1.191-1.251,1.844-1.809a1.116,1.116,0,0,0,.353-1.469c-.508-1.3-.47-1.331-1.744-.616-.269.151-.674.188-.669.657.012,1.085,0,2.17,0,3.263" transform="translate(0 0)" fill="#05bdcd"/>
      </g>
    </g>
  </g>
  <g id="Group_137" data-name="Group 137" transform="translate(-328 -2216)">
    <circle id="Ellipse_6-3" data-name="Ellipse 6" cx="81" cy="81" r="81" transform="translate(1288 2401)" fill="#fff"/>
    <g id="Group_135" data-name="Group 135" transform="translate(1321.482 2413.912)">
      <g id="Group_134" data-name="Group 134" clip-path="url(#clip-path-6)">
        <path id="Path_263" data-name="Path 263" d="M10.36,162.768q-3.7-3.562-7.4-7.121a1.886,1.886,0,0,1-.592-1.2Q1.221,145.533.042,136.624A3.274,3.274,0,0,1,1.807,133a3.126,3.126,0,0,1,3.662.771,3.62,3.62,0,0,1,.745,1.519c.757,2.836,1.531,5.668,2.282,8.506.1.381.227.6.677.6a2.877,2.877,0,0,1,2.16,1.074c1.13,1.228,2.34,2.382,3.5,3.585a1.739,1.739,0,0,0,.945.527c1.03.215,2.052.465,3.084.669a1.864,1.864,0,0,1,1.015.553q2.236,2.285,4.492,4.549a1.986,1.986,0,0,1,.566,1.083c.388,2.069.8,4.134,1.178,6.2.059.322.157.482.5.433.086-.013.176,0,.263,0,2.036-.171,2.791.75,2.7,2.655-.079,1.6-.011,3.207-.018,4.811a1.849,1.849,0,0,1-2.05,2.03q-9.03.006-18.06,0a1.848,1.848,0,0,1-2.045-2.034c-.007-1.736,0-3.471,0-5.207,0-1.584.654-2.245,2.224-2.253h.51l.234-.3m13.694.3c-.317-1.629-.7-3.189-.9-4.772a3.894,3.894,0,0,0-1.376-2.574,14.012,14.012,0,0,1-1.708-1.738,5.386,5.386,0,0,0-3.934-2.183c-.475-.035-.936-.234-1.412-.307a1.639,1.639,0,0,1-.953-.529q-2.031-2.07-4.077-4.125a1.567,1.567,0,0,0-1.765-.226c-.518.25-.4.723-.406,1.15a1.3,1.3,0,0,0,.462,1.042c.437.4.84.837,1.257,1.26,1.436,1.454,2.88,2.9,4.3,4.367a1.066,1.066,0,0,1-.412,1.867,1.173,1.173,0,0,1-1.16-.458q-2.84-2.892-5.689-5.777a3.7,3.7,0,0,1,.083-4.935c.154-.146.264-.247.2-.49-.827-3.022-1.636-6.048-2.467-9.069a.931.931,0,0,0-1.16-.723.968.968,0,0,0-.822,1.1c0,.11.008.22.022.329q.284,2.188.571,4.375c.552,4.244,1.111,8.487,1.646,12.734a2.008,2.008,0,0,0,.586,1.262c2.559,2.568,5.12,5.135,7.626,7.754a1.98,1.98,0,0,0,1.631.683c2.9-.036,5.8-.015,8.7-.015Zm-5.614,7.386c2.835,0,5.67-.009,8.5.01.41,0,.512-.1.5-.507-.027-1.428-.018-2.857,0-4.285,0-.329-.013-.5-.438-.5q-8.537.024-17.075,0c-.347,0-.441.095-.436.438.019,1.428.03,2.857,0,4.285-.011.469.118.574.577.571,2.791-.023,5.582-.012,8.373-.012" transform="translate(0 -109.317)" fill="#05bdcd"/>
        <path id="Path_264" data-name="Path 264" d="M211.005,163.109c.257,0,.514,0,.77,0a1.838,1.838,0,0,1,1.959,1.989q.014,2.769,0,5.539a1.829,1.829,0,0,1-1.982,1.965c-2.66.009-5.319,0-7.979,0q-5.012,0-10.023,0a1.9,1.9,0,0,1-2.172-2.175c0-1.758-.005-3.517,0-5.275a1.853,1.853,0,0,1,2.036-2.046c1.3-.014,1.3-.014,1.551-1.291.345-1.788.695-3.575,1.033-5.363a1.893,1.893,0,0,1,.53-1.031q2.3-2.311,4.589-4.643a1.523,1.523,0,0,1,.779-.458c1.008-.216,2.009-.463,3.022-.651a2.236,2.236,0,0,0,1.293-.685c1.119-1.18,2.308-2.3,3.4-3.5a2.879,2.879,0,0,1,2.167-1.061c.424,0,.541-.19.638-.558q1.138-4.324,2.315-8.637a3.139,3.139,0,0,1,6.143.024,6.929,6.929,0,0,1-.125,2.357c-.726,5.662-1.472,11.322-2.2,16.984a1.721,1.721,0,0,1-.569,1.073q-3.719,3.552-7.428,7.114l.248.323m-13.912-.063c.055.023.075.039.1.039q5.241.013,10.481.026a.567.567,0,0,0,.454-.193q4-4.108,8.032-8.191a2.1,2.1,0,0,0,.627-1.313c.532-4.248,1.093-8.493,1.645-12.739.2-1.5.406-3,.576-4.508.092-.813-.335-1.317-1.023-1.3-.651.021-.889.467-1.035,1.012-.765,2.858-1.522,5.718-2.31,8.57a.654.654,0,0,0,.25.825,1.927,1.927,0,0,1,.691,1.17,3.906,3.906,0,0,1-.962,3.933c-1.91,1.817-3.715,3.744-5.576,5.613a1.054,1.054,0,1,1-1.506-1.463c.191-.212.4-.409.6-.613q2.548-2.581,5.1-5.163c.535-.544.549-1.763.04-2.063a1.583,1.583,0,0,0-1.919.274q-1.97,1.993-3.933,3.993a1.978,1.978,0,0,1-1.064.6c-1.032.207-2.054.463-3.085.671a1.626,1.626,0,0,0-.9.485c-1.24,1.278-2.5,2.539-3.747,3.806a1.158,1.158,0,0,0-.4.589q-.563,2.972-1.133,5.935m5.563,2.175c-2.813,0-5.626.01-8.439-.01-.432,0-.547.11-.538.54.028,1.428.024,2.857,0,4.285-.006.376.105.469.474.468q8.5-.017,17.01,0c.373,0,.476-.1.47-.472-.021-1.428-.027-2.857,0-4.285.009-.436-.116-.539-.542-.536-2.813.019-5.626.01-8.439.01" transform="translate(-157.809 -109.357)" fill="#05bdcd"/>
        <path id="Path_265" data-name="Path 265" d="M145.139,29.156c0-1.912-.012-3.823.01-5.735a1,1,0,0,0-.37-.838,19.485,19.485,0,0,1-4.654-6.156c-1.807-3.9-1.261-7.591.95-11.141A21.19,21.19,0,0,1,145.2.517c.79-.689,1.217-.69,2,0a19.4,19.4,0,0,1,5.26,6.988c1.62,3.838.923,7.417-1.236,10.828a20.754,20.754,0,0,1-3.616,4.253,1.007,1.007,0,0,0-.365.84c.016,3.8.01,7.6.01,11.4,0,.088,0,.176,0,.264a1.045,1.045,0,0,1-1.026,1.131,1.03,1.03,0,0,1-1.08-1.138c-.011-1.977,0-3.955,0-5.933m2.111-9.194a16.07,16.07,0,0,0,3.207-4.688,8.313,8.313,0,0,0,.515-5.526,15.583,15.583,0,0,0-4.519-7.059c-.27-.269-.409-.094-.585.077a18.476,18.476,0,0,0-3.27,4.109,10.086,10.086,0,0,0,2.54,12.959v-.669q0-3.989,0-7.977c0-.736.328-1.169.908-1.239.717-.086,1.2.385,1.2,1.211.006,2.681,0,5.362,0,8.043v.759" transform="translate(-114.535 0)" fill="#05bdcd"/>
        <path id="Path_266" data-name="Path 266" d="M235.994,83.5a17.757,17.757,0,0,1-1.467,7.558c-1.613,3.516-4.5,5.389-8.149,6.233a19.977,19.977,0,0,1-6.545.432c-.6-.061-1.033-.314-1.088-.931-.344-3.862.053-7.6,2.13-10.979,1.8-2.927,4.634-4.31,7.883-4.99a21.569,21.569,0,0,1,5.571-.378c1.317.069,1.583.335,1.66,1.673.027.46,0,.922,0,1.383M222.385,95.678a18.28,18.28,0,0,0,3.121-.358c2.78-.585,5.2-1.747,6.674-4.334a15.7,15.7,0,0,0,1.731-8.136c0-.353-.218-.307-.438-.313a18.324,18.324,0,0,0-4.643.44,9.271,9.271,0,0,0-6.15,3.925,14.359,14.359,0,0,0-1.927,7.18,1.236,1.236,0,0,0,.525-.416q1.356-1.347,2.7-2.7c1.025-1.025,2.041-2.059,3.078-3.072a1.044,1.044,0,0,1,1.528-.056,1.062,1.062,0,0,1-.021,1.533c-.1.115-.217.217-.326.326q-2.726,2.726-5.449,5.454c-.15.15-.358.262-.409.528" transform="translate(-180.098 -66.238)" fill="#05bdcd"/>
        <path id="Path_267" data-name="Path 267" d="M45.024,80.618a18.6,18.6,0,0,1,5.9.836c4.35,1.364,6.838,4.4,7.837,8.758a19.759,19.759,0,0,1,.432,6.544c-.084.791-.371,1.059-1.17,1.137a19.849,19.849,0,0,1-7.3-.647,11.126,11.126,0,0,1-8.3-8.862,20.1,20.1,0,0,1-.444-6.543c.082-.826.338-1.062,1.143-1.177a3.016,3.016,0,0,1,.393-.043c.505-.005,1.011,0,1.516,0M57.167,94.374a20.7,20.7,0,0,0-.379-3.3c-.631-2.98-1.946-5.49-4.812-6.912A16.4,16.4,0,0,0,44.364,82.7c-.377,0-.354.209-.36.461a18.77,18.77,0,0,0,.271,3.738,10.233,10.233,0,0,0,3.075,6.244c2.333,2.046,5.2,2.535,8.191,2.711a1.607,1.607,0,0,0-.521-.639q-2.766-2.778-5.541-5.546c-.576-.578-.624-1.212-.147-1.671a1.09,1.09,0,0,1,1.623.161q1.94,1.926,3.868,3.865c.742.743,1.482,1.487,2.343,2.351" transform="translate(-34.497 -66.406)" fill="#05bdcd"/>
      </g>
    </g>
  </g>
  <g id="Group_145" data-name="Group 145" transform="translate(-972 -2216)">
    <circle id="Ellipse_6-4" data-name="Ellipse 6" cx="81" cy="81" r="81" transform="translate(1288 2401)" fill="#fff"/>
    <g id="Group_149" data-name="Group 149" transform="translate(1347.992 2442.438)">
      <g id="Group_148" data-name="Group 148" clip-path="url(#clip-path-7)">
        <path id="Path_285" data-name="Path 285" d="M22.987,54.815a21.609,21.609,0,0,1,5.471-.414,18.152,18.152,0,0,1,10.9,4.511,1.268,1.268,0,0,1-.009,2.133,18.052,18.052,0,0,1-10.236,4.523c-.1.011-.218-.018-.255.122h-3.72a8.179,8.179,0,0,0-1.957-.417A18.409,18.409,0,0,1,16.1,61.988a.535.535,0,0,0-.8.018,45.5,45.5,0,0,1-3.764,2.771,1.3,1.3,0,1,1-1.439-2.13l2.66-1.868c-.112-.267-.341-.243-.508-.3A18.393,18.393,0,0,1,.007,42.528c.035-1.294.647-1.8,1.892-1.55A18.425,18.425,0,0,1,16.777,56.593c.027.189.036.381.066.715a52.4,52.4,0,0,0,6.995-7.88c-.565-.14-1.071-.256-1.572-.389A18.376,18.376,0,0,1,8.622,32.886a2.3,2.3,0,0,1,.064-1.2,1.286,1.286,0,0,1,1.4-.774A18.024,18.024,0,0,1,20.38,34.856a18.227,18.227,0,0,1,6.288,9.432c.03.1.051.207.085.307.013.038.051.067.109.14a46.675,46.675,0,0,0,2.6-5.106c.429-.974.777-1.984,1.211-2.956.2-.448.024-.532-.357-.6A17.6,17.6,0,0,1,21.8,32.195a18.034,18.034,0,0,1-6.69-12.932c-.093-1.208.464-1.772,1.674-1.643Q27.9,18.8,32.469,29.014c.06.135.126.267.193.4.005.01.035.008.111.023.373-1.542.609-3.109.832-4.679.039-.278-.165-.428-.306-.6A18.115,18.115,0,0,1,30.456,19.1a1.325,1.325,0,0,1,.66-1.871c.743-.273,1.4.085,1.735.964a15.862,15.862,0,0,0,2.087,3.874c3.91-4.679,4.451-13.05.026-18.693a15.582,15.582,0,0,0-2.133,3.966,1.27,1.27,0,0,1-1.646.913,1.225,1.225,0,0,1-.824-1.574A17.381,17.381,0,0,1,34.046.446a1.252,1.252,0,0,1,2,.124A17.675,17.675,0,0,1,40.265,9a18.074,18.074,0,0,1-3.821,15.433c-.456.569-.246,1.256-.536,1.844.306.069.387-.154.515-.273a18.284,18.284,0,0,1,14.966-5.058c1.2.121,1.639.775,1.336,1.937A18.37,18.37,0,0,1,37.469,36.342a15.136,15.136,0,0,1-3.579.129.481.481,0,0,0-.6.388,48.543,48.543,0,0,1-1.854,4.55c.261.129.412-.078.588-.166a18.239,18.239,0,0,1,16.3-.434c1.185.523,1.4,1.269.661,2.336a18.179,18.179,0,0,1-16,8.265,16.173,16.173,0,0,1-5.926-1.218.564.564,0,0,0-.826.238c-1.007,1.51-2.2,2.885-3.313,4.313l-.058.12.128-.048M36.558,33.9c5.695-.567,10.406-3.765,13.073-9.841.3-.68.279-.712-.445-.684-6.635.258-11.46,3.344-14.374,9.314-.659,1.349-.878,1.31,1.746,1.21M2.564,43.766l.106,1.069a15.837,15.837,0,0,0,11.183,13.47c.494.143.526,0,.488-.413A15.791,15.791,0,0,0,8.835,47.048a15.271,15.271,0,0,0-6.271-3.282M28.105,47.8a1.286,1.286,0,0,0,.173.122,15.934,15.934,0,0,0,17.593-4.842c.269-.346.214-.457-.174-.583a15.921,15.921,0,0,0-17.591,5.3M11.3,33.624A15.862,15.862,0,0,0,23.81,46.774c.808.163.844.149.66-.657a15.71,15.71,0,0,0-9.623-11.544,13,13,0,0,0-3.546-.948m19.778-.035a13.682,13.682,0,0,0-1.041-3.734,15.629,15.629,0,0,0-11.5-9.4c-.215-.048-.824-.491-.678.361A15.858,15.858,0,0,0,31.079,33.589m5.467,26.386c-5.891-4.49-14.238-3.643-18.675.136a15.7,15.7,0,0,0,18.675-.136" transform="translate(0 0)" fill="#05bdcd"/>
        <path id="Path_286" data-name="Path 286" d="M171.149,68.064a1.279,1.279,0,0,1,1.249-1.272,1.309,1.309,0,0,1,1.3,1.3,1.28,1.28,0,0,1-1.326,1.258,1.25,1.25,0,0,1-1.221-1.285" transform="translate(-141.81 -55.343)" fill="#05bdcd"/>
        <path id="Path_287" data-name="Path 287" d="M133.477,319.417l-.128.048.058-.12.07.072" transform="translate(-110.49 -264.602)" fill="#05bdcd"/>
      </g>
    </g>
  </g>
  <circle id="Ellipse_6-5" data-name="Ellipse 6" cx="81" cy="81" r="81" transform="translate(960 560)" fill="#fff"/>
  <circle id="Ellipse_9" data-name="Ellipse 9" cx="81" cy="81" r="81" transform="translate(316 560)" fill="#fff"/>
  <g id="Group_142" data-name="Group 142" transform="translate(93.924 -1414.831)">
    <g id="Group_141" data-name="Group 141" transform="translate(927.194 1999.236)">
      <g id="Group_140" data-name="Group 140" clip-path="url(#clip-path-8)">
        <path id="Path_268" data-name="Path 268" d="M0,126.553a2.959,2.959,0,0,0,.288-1.218,16.316,16.316,0,0,1,1.867-4.868q6.01-10.4,12.016-20.8c.683-1.181,1.681-1.171,2.371.023q5.994,10.374,11.983,20.752a15.35,15.35,0,0,1-7.113,21.984,3.364,3.364,0,0,1-.609.213,1.164,1.164,0,0,1-.836-2.141,8.8,8.8,0,0,1,.8-.369,12.872,12.872,0,0,0,6.109-17.715c-3.7-6.722-7.629-13.314-11.458-19.963-.263.048-.286.279-.375.432Q9.636,112.236,4.24,121.6a12.958,12.958,0,0,0,6.141,18.735c.694.306,1.013.77.919,1.335a1.2,1.2,0,0,1-1.764.86,14.945,14.945,0,0,1-5.187-3.5,15.339,15.339,0,0,1-4.214-8.578c-.018-.122.049-.288-.135-.35Z" transform="translate(0 -83.2)" fill="#05bdcd"/>
        <path id="Path_269" data-name="Path 269" d="M90.5,370.641c.029-.192-.163-.172-.25-.247a1.177,1.177,0,1,1,1.443,0c-.086.075-.278.056-.249.248Z" transform="translate(-75.627 -310.167)" fill="#05bdcd"/>
        <path id="Path_270" data-name="Path 270" d="M257.076,98.394a11.808,11.808,0,0,1-23.4,2.64,11.606,11.606,0,0,1,1.363-8.128q4.52-7.892,9.091-15.753a1.212,1.212,0,0,1,2.287.022q4.507,7.8,9.007,15.6a11.725,11.725,0,0,1,1.65,5.62M245.287,79.949c-.087.114-.127.155-.154.2-2.708,4.689-5.43,9.37-8.116,14.072a9.209,9.209,0,0,0-1.1,5.914,9.441,9.441,0,1,0,17.519-6.062c-1.092-1.952-2.226-3.88-3.345-5.816-1.588-2.75-3.18-5.5-4.807-8.31" transform="translate(-196.62 -64.304)" fill="#05bdcd"/>
        <path id="Path_271" data-name="Path 271" d="M147.341,23.635A8.232,8.232,0,0,1,140,11.623C141.98,7.9,144.172,4.3,146.293.651c.538-.925,1.589-.849,2.157.13Q151.476,6,154.484,11.226a8.194,8.194,0,0,1,1.111,4.1,8.281,8.281,0,0,1-8.254,8.309m-.013-19.959c-.031.018-.076.028-.091.055-1.725,2.989-3.521,5.94-5.148,8.982a5.537,5.537,0,0,0,.69,6.394,5.89,5.89,0,0,0,9.668-6.661c-1.613-2.872-3.284-5.712-4.933-8.564-.044-.076-.059-.194-.186-.206" transform="translate(-117.102 0)" fill="#05bdcd"/>
        <path id="Path_272" data-name="Path 272" d="M99.257,260.809a8.294,8.294,0,0,1-7.987,8.223c-.893.015-1.453-.433-1.458-1.17-.005-.712.509-1.157,1.382-1.195a5.912,5.912,0,0,0,5.059-8.571c-.052-.105-.115-.206-.163-.313a1.189,1.189,0,0,1,.475-1.58,1.162,1.162,0,0,1,1.616.5,8.173,8.173,0,0,1,1.076,4.109" transform="translate(-75.639 -215.646)" fill="#05bdcd"/>
        <path id="Path_273" data-name="Path 273" d="M306.726,202.886a4.741,4.741,0,0,1-4.6,4.731,1.184,1.184,0,1,1-.055-2.36,2.368,2.368,0,0,0,2.234-1.849,2.4,2.4,0,0,0-.2-1.6,1.193,1.193,0,0,1,.5-1.741,1.206,1.206,0,0,1,1.632.722,4.63,4.63,0,0,1,.5,2.1" transform="translate(-253.354 -168.399)" fill="#05bdcd"/>
      </g>
    </g>
  </g>
  <g id="Group_147" data-name="Group 147" transform="translate(355.467 582.5)">
    <g id="Group_146" data-name="Group 146" clip-path="url(#clip-path-9)">
      <path id="Path_275" data-name="Path 275" d="M12.431,62.38a1.566,1.566,0,0,1-.581-1.423c.028-1.563,0-3.127.018-4.69,0-.362-.083-.467-.458-.5a11.738,11.738,0,0,1-7.888-3.454,13.346,13.346,0,0,1-3.5-7.663,2.343,2.343,0,0,1,2.641-2.6c4.6.476,8.088,2.575,9.983,6.95.036.083.018.211.2.235A11.43,11.43,0,0,1,15.74,45a20.742,20.742,0,0,1-3.366-3.524A26.2,26.2,0,0,1,7.687,29.814a17.457,17.457,0,0,1-.234-1.932,2.352,2.352,0,0,1,2.376-2.467,25.148,25.148,0,0,1,10.677,2.53,19.3,19.3,0,0,1,9.08,9.7.836.836,0,0,0,.28.393c0-1.532-.091-3.07.025-4.593a5.065,5.065,0,0,0-1.456-4.109A19.7,19.7,0,0,1,25.288,7a28.463,28.463,0,0,1,3.779-6A2.394,2.394,0,0,1,30.562.026a1.939,1.939,0,0,1,1.779.581c3.149,3.385,5.554,7.177,6.336,11.825a18.945,18.945,0,0,1-1.971,11.908,25.466,25.466,0,0,1-4.666,6.493.77.77,0,0,0-.3.566c.007,2.191,0,4.382,0,6.6.241-.043.237-.232.293-.356,2.967-6.574,8.106-10.34,15.11-11.7a31.574,31.574,0,0,1,4.345-.517,2.385,2.385,0,0,1,2.637,2.776,26.346,26.346,0,0,1-5.119,13.58,19.105,19.105,0,0,1-2.909,3.02c-.2.167-.373.27-.083.548A10.722,10.722,0,0,1,48.51,49.12a.935.935,0,0,0,.143.171,12.644,12.644,0,0,1,2.141-3.529,11.536,11.536,0,0,1,7.178-3.608c.281-.043.562-.094.844-.112a2.334,2.334,0,0,1,2.575,2.609,12.648,12.648,0,0,1-5.115,9.042,12.152,12.152,0,0,1-6.207,2.071c-.424.034-.525.155-.517.566.026,1.543-.009,3.086.02,4.629a1.553,1.553,0,0,1-.588,1.421h-.731a1.5,1.5,0,0,1-.587-1.36c.027-1.563-.006-3.127.02-4.691.007-.411-.091-.531-.517-.566a12.055,12.055,0,0,1-7.217-2.86c-.767-.675-.9-1.193-.449-1.687.429-.465.947-.378,1.678.27a9.42,9.42,0,0,0,4.651,2.21c-1.688-1.746-3.455-3.565-5.207-5.4-.214-.223-.39-.126-.6-.052a25.542,25.542,0,0,1-7.741,1.435c-.456.018-.561.134-.558.581.023,2.8,0,5.6.018,8.407,0,.6-.264,1.377.125,1.751.358.344,1.123.095,1.707.091.547,0,1.038.071,1.231.659.184.559-.159.909-.571,1.207H27.174c-.414-.3-.755-.647-.573-1.205.192-.587.68-.678,1.228-.658.527.02,1.056-.022,1.581.013.395.027.465-.127.464-.485q-.019-4.958,0-9.916c0-.279-.023-.426-.378-.438a24.581,24.581,0,0,1-4.759-.577c-.351-.081-.49.056-.638.353a11.393,11.393,0,0,1-1.819,2.643,11.767,11.767,0,0,1-8.036,3.655c-.442.037-.508.184-.5.577.022,1.561-.01,3.123.019,4.684a1.511,1.511,0,0,1-.594,1.355ZM47.409,52.26l.012.078.046-.022-.072-.044a9.536,9.536,0,0,0-2.973-5.882c-.127-.121-.235-.188-.417-.077-.559.343-1.129.668-1.58.933l4.787,4.95c.053.055.1.126.2.064m-35.827,0,.026.085.042-.063-.078-.012c.1-.158.019-.32-.01-.471a9.336,9.336,0,0,0-8.378-7.788c.094.115.161.214.244.3Q7.36,48.206,11.3,52.094c.077.077.13.216.285.169m-.766-24.834.033-.087-.055-.011.039.091a1.419,1.419,0,0,0,.138.192q3.283,3.291,6.571,6.576c.06.06.11.18.259.1,0-1.71-.012-3.429.01-5.148,0-.325-.155-.409-.395-.492a23.181,23.181,0,0,0-4.71-1.116,5.148,5.148,0,0,0-1.889-.1m.465,8.375a18.9,18.9,0,0,0,6.776,8.567c2.838,1.921,8.263,3.672,10.331,3.288q-5.856-5.84-11.659-11.634A.682.682,0,0,0,16.2,35.8c-1.6.007-3.206,0-4.918,0M29.75,46.376c0-.185.007-.28,0-.372a23.646,23.646,0,0,0-1.735-7.229,17.439,17.439,0,0,0-7.828-8.9c-.39-.215-.54-.224-.531.3a43.756,43.756,0,0,1-.018,4.378A3.489,3.489,0,0,0,20.9,37.605c2.972,2.844,5.851,5.785,8.848,8.771m2.014-26.37c1.732-1.284,3.376-2.5,5.024-3.72a.536.536,0,0,0,.268-.5c-.034-.648-.008-1.3-.074-1.946A19.719,19.719,0,0,0,32,3.028c-.054-.064-.1-.194-.233-.106Zm16.668,19.4c-2.219,0-4.3.009-6.39-.008a1.147,1.147,0,0,0-.9.377q-3.728,3.76-7.474,7.5c-.133.134-.332.228-.364.486,6.249-.543,11.449-2.937,15.131-8.358m2.416-12.1c-.716.08-1.383.137-2.044.233a20.839,20.839,0,0,0-8.97,3.319.886.886,0,0,0-.442.84c.021,2.17.008,4.341.014,6.512,0,.17-.076.361.028.472L50.847,27.309M25.38,12.562a16.569,16.569,0,0,0,.358,8.339A20.289,20.289,0,0,0,29.866,28.2c0-3.787,0-7.421,0-11.055a.6.6,0,0,0-.167-.494c-1.417-1.332-2.827-2.671-4.321-4.084m6.43,33.815a.761.761,0,0,0,.174-.076c1.779-1.778,3.553-3.563,5.341-5.332a.8.8,0,0,0,.213-.655q0-2.861,0-5.722V32.778c-3.707,3.879-5.237,8.494-5.727,13.6M52.154,28.992l-8.592,8.547c1.811,0,3.648-.01,5.485.008a.679.679,0,0,0,.722-.464,26.477,26.477,0,0,0,1.783-4.95,23,23,0,0,0,.6-3.142M29.838,14.208V3.068a25.407,25.407,0,0,0-3.866,7.209.326.326,0,0,0,.108.377c1.233,1.16,2.46,2.325,3.758,3.554m6.9,4.435C35.05,19.9,33.5,21.053,31.934,22.2c-.226.166-.193.379-.193.6q0,2.005,0,4.011V28.4a22.446,22.446,0,0,0,5-9.755M57.907,44.054c-4.158.536-7.376,3.434-8.136,8.4l8.136-8.4M9.835,53.644,2.177,45.732c.794,4.238,3.976,7.438,7.657,7.912m49.419-7.777-.311-.224q-3.736,3.874-7.469,7.751c-.051.053-.208.064-.113.214s.207.041.31.02a9.1,9.1,0,0,0,5.862-3.8,10.728,10.728,0,0,0,1.721-3.959m-36.839,2.78a.391.391,0,0,0-.035-.11,1.805,1.805,0,0,0-1.643-.166q-2.515,2.481-5.023,4.969c-.07.07-.249.1-.181.252.088.2.244.059.361.034a9.123,9.123,0,0,0,6.388-4.71c.049-.088.089-.181.132-.269M13.936,52.26c.308.016.417-.212.568-.36q1.972-1.936,3.933-3.884c.769-.76.767-.759-.146-1.282a6.127,6.127,0,0,1-.669-.416c-.24-.182-.406-.147-.623.058a9.55,9.55,0,0,0-1.761,2.229,13,13,0,0,0-1.3,3.654M9.341,28.917a1.776,1.776,0,0,1,.19.648,27.345,27.345,0,0,0,.918,3.956c.064.194.077.4.36.4,1.222,0,2.443,0,3.545,0l-5.013-5" transform="translate(0 0)" fill="#05bdcd"/>
      <path id="Path_276" data-name="Path 276" d="M269.21,1.037a4.582,4.582,0,0,1-.143.44c-.334.8-.668,1.6-1.018,2.393a.952.952,0,0,1-1.3.631.927.927,0,0,1-.418-1.335q.542-1.314,1.122-2.612A.875.875,0,0,1,268.5.026a.943.943,0,0,1,.715,1.011" transform="translate(-222.864 -0.003)" fill="#05bdcd"/>
      <path id="Path_277" data-name="Path 277" d="M318.926,72.9a.884.884,0,0,1-.615.855c-1.009.287-2.024.561-3.048.788a.834.834,0,0,1-1.025-.643.815.815,0,0,1,.508-1.093c1.039-.324,2.1-.6,3.16-.834a.928.928,0,0,1,1.02.926" transform="translate(-263.029 -60.238)" fill="#05bdcd"/>
      <path id="Path_278" data-name="Path 278" d="M34.978,71.806c1.048.289,2.169.556,3.257.92a.8.8,0,0,1,.415,1.081.828.828,0,0,1-.99.614c-1.044-.229-2.083-.5-3.1-.809a.819.819,0,0,1-.548-1.023c.1-.484.439-.7.97-.783" transform="translate(-28.45 -60.114)" fill="#05bdcd"/>
      <path id="Path_279" data-name="Path 279" d="M296.691,33.143a.951.951,0,0,1-.883-.574.789.789,0,0,1,.19-1c.864-.662,1.748-1.3,2.664-1.892a.909.909,0,0,1,1.1,1.406,20.971,20.971,0,0,1-2.806,2,.815.815,0,0,1-.268.061" transform="translate(-247.561 -24.734)" fill="#05bdcd"/>
      <path id="Path_280" data-name="Path 280" d="M59.327,32.155a.915.915,0,0,1-1.357.859c-.9-.569-1.772-1.2-2.618-1.852A.911.911,0,0,1,56.4,29.691c.9.577,1.756,1.22,2.622,1.848a.882.882,0,0,1,.3.617" transform="translate(-46.069 -24.736)" fill="#05bdcd"/>
      <path id="Path_281" data-name="Path 281" d="M93.551.007a.887.887,0,0,1,.75.538c.4.9.8,1.8,1.175,2.721A.93.93,0,0,1,95.019,4.5a.907.907,0,0,1-1.249-.511c-.4-.879-.8-1.764-1.152-2.664A.94.94,0,0,1,93.551.007" transform="translate(-77.473 -0.005)" fill="#05bdcd"/>
      <path id="Path_282" data-name="Path 282" d="M66.32,167.937l-.039-.091.055.012c-.011.029-.022.058-.034.088l.017-.008" transform="translate(-55.488 -140.516)" fill="#05bdcd"/>
      <path id="Path_283" data-name="Path 283" d="M71.068,320.979l.078.012-.042.063-.026-.085-.01.011" transform="translate(-59.496 -268.705)" fill="#05bdcd"/>
      <path id="Path_284" data-name="Path 284" d="M291.069,320.96l.072.044-.046.022-.012-.078-.014.011" transform="translate(-243.674 -268.689)" fill="#05bdcd"/>
    </g>
  </g>
  <g id="Group_154" data-name="Group 154" transform="translate(-213.715 -1542)">
    <g id="Group_151" data-name="Group 151" transform="translate(794.715 1953.286)">
      <g id="Group_150" data-name="Group 150" clip-path="url(#clip-path-10)">
        <path id="Path_288" data-name="Path 288" d="M0,71.007c.518-.24.334-.773.418-1.152,2.089-9.444,7.668-15.79,16.8-18.992a1.361,1.361,0,0,0,1.051-1.272,19.38,19.38,0,0,1,7.3-12.844A13.9,13.9,0,0,1,34.533,33.8c7.66.024,15.319-.007,22.979.028.854,0,1.243-.154,1.324-1.087q.79-9.006,1.69-18c.107-1.053-.21-1.283-1.179-1.218a19.913,19.913,0,0,1-3.163-.048,2.12,2.12,0,0,1-2.052-2.291A11.27,11.27,0,0,1,63.9.17C65.265.038,66.622,0,67.986,0h43.581c2.716,0,3.367.643,3.368,3.317,0,2.465.01,4.93,0,7.4-.011,2.025-.733,2.823-2.779,2.8-1.1-.013-1.189.319-.977,1.277q1,4.5,1.813,9.044c.14.788.412.972,1.172.985,3.252.055,6.515-.261,9.756.208a13.616,13.616,0,0,1,11.295,12.63c.082,2.639.01,5.282.038,7.923a2.4,2.4,0,0,1-1.48,2.543,2.3,2.3,0,0,1-2.7-.826,32.9,32.9,0,0,0-10.394-7.762c-11.834-5.4-23.272-4.589-34.031,2.7A32.491,32.491,0,0,0,72.817,63.3a30.975,30.975,0,0,0-.256,11.678c.053.3.076.611.1.918.156,2.132-.644,3.025-2.781,3.029-6.471.012-12.942.03-19.413-.022-1.017-.008-1.4.243-1.624,1.274-2.7,12.4-15.483,20.911-27.988,18.675A24.728,24.728,0,0,1,.369,78.644C.3,78.3.488,77.82,0,77.611ZM85.732,13.543c-6.424,0-12.849.023-19.273-.023-.994-.007-1.362.248-1.456,1.27q-1.867,20.3-3.83,40.583c-.085.881.137,1.044.94,1.029,2.287-.044,4.578-.066,6.863.01a1.427,1.427,0,0,0,1.614-1.089,36.789,36.789,0,0,1,9.4-13.521,37.507,37.507,0,0,1,28.886-10.06c.766.053,1.15.036.953-.915-1.113-5.375-2.21-10.753-3.244-16.143-.179-.936-.531-1.17-1.452-1.163-6.468.043-12.937.023-19.405.023M45.084,74.216a20.288,20.288,0,1,0-40.569.643c.315,11.129,9.705,20.2,20.534,19.835,11.341-.382,20.331-9.57,20.035-20.478M28.171,40.549c.352.035.476.054.6.059,1.831.075,2.782.875,2.742,2.309-.039,1.408-1.046,2.181-2.876,2.194-1.189.009-2.378.017-3.566-.007-.421-.008-.741.01-.942.476a13.125,13.125,0,0,0-1.262,4.056c.381,0,.728.007,1.075,0a24.313,24.313,0,0,1,17.579,6.535,24.252,24.252,0,0,1,8.017,17.086c.032.567-.147,1.2.893,1.189,5.546-.052,11.093-.033,16.64-.012.622,0,.868-.122.777-.8a33.2,33.2,0,0,1,.733-11.788c.187-.827-.067-.963-.815-.954-2.817.033-5.634.028-8.452.009-2.254-.015-3.08-.978-2.868-3.214.577-6.088,1.118-12.179,1.728-18.263.091-.9-.125-1.119-1.012-1.116-7.615.032-15.231.009-22.847.024a9.151,9.151,0,0,0-6.144,2.219M59.1,9.022h1.55q23.3,0,46.6,0c1.007,0,2.349.352,2.936-.154.7-.6.106-1.99.247-3.023.152-1.112-.277-1.36-1.364-1.356-10.342.045-20.683.027-31.025.027-4.093,0-8.186-.023-12.278.008a6.651,6.651,0,0,0-6.67,4.5m71.685,31.644c-.065-1.32-.023-2.412-.187-3.472a8.529,8.529,0,0,0-6.5-7.468c-3.137-.867-6.386-.29-9.583-.413-.17-.007-.39.023-.348.26a20.959,20.959,0,0,0,.574,2.833c.174.538.878.485,1.368.624a38.67,38.67,0,0,1,12.5,6c.658.485,1.305.983,2.173,1.637" transform="translate(0 0)" fill="#05bdcd"/>
        <path id="Path_289" data-name="Path 289" d="M260.9,181.321a29.3,29.3,0,1,1,29.25-29.368,29.456,29.456,0,0,1-29.25,29.368m0-4.513a24.791,24.791,0,1,0-24.861-24.717A24.9,24.9,0,0,0,260.9,176.807" transform="translate(-154.905 -82.107)" fill="#05bdcd"/>
        <path id="Path_290" data-name="Path 290" d="M47.771,206.654a9,9,0,1,1,17.993.077,9,9,0,0,1-17.993-.077m4.511.058a4.506,4.506,0,0,0,4.557,4.454,4.573,4.573,0,0,0,4.423-4.489,4.509,4.509,0,0,0-4.521-4.491,4.441,4.441,0,0,0-4.459,4.525" transform="translate(-31.961 -132.254)" fill="#05bdcd"/>
        <path id="Path_291" data-name="Path 291" d="M292.875,170.414a13.511,13.511,0,1,1-13.564,13.306,13.532,13.532,0,0,1,13.564-13.306m8.921,13.459a8.991,8.991,0,0,0-17.982.012,8.991,8.991,0,1,0,17.982-.012" transform="translate(-186.873 -114.016)" fill="#05bdcd"/>
      </g>
    </g>
    <g id="Group_153" data-name="Group 153" transform="translate(960 1930.629)">
      <g id="Group_152" data-name="Group 152" clip-path="url(#clip-path-11)">
        <path id="Path_292" data-name="Path 292" d="M245.7,186.127c-.073-.082-.13-.2-.221-.239-2.4-.93-3.272-2.782-3.268-5.241q.025-19.1.008-38.2c0-1.589,0-1.589-1.646-1.589-.714,0-1.428.006-2.142,0-3.363-.032-5.286-1.965-5.3-5.357-.013-4.086,0-8.172,0-12.258,0-5.712-.029-11.425.007-17.136a14.218,14.218,0,0,1,12-14.381,6.87,6.87,0,0,1,1.181-.114c5.076-.01,10.155-.131,15.226.015a14.084,14.084,0,0,1,13.378,13.543c.045,1.387-.557,2.242-1.648,2.341-1.043.095-1.807-.657-1.921-2.077a10.658,10.658,0,0,0-5.972-9.2,8.38,8.38,0,0,0-3.629-1.014c-5.154-.141-10.312-.224-15.46.022-4.8.229-8.973,4.491-9.436,9.3-.225,2.339-.126,4.676-.134,7.013-.023,7.894-.01,15.788-.008,23.682,0,1.766.292,2.05,2.082,2.053.912,0,1.825-.022,2.736.009.516.017.729-.173.689-.685-.021-.276,0-.555,0-.833q0-14.34,0-28.68c0-.317-.011-.635,0-.952.063-1.407.727-2.174,1.849-2.146,1.078.027,1.677.762,1.723,2.128.013.4,0,.793,0,1.19q0,36.474,0,72.949c0,2.135.159,2.293,2.292,2.293.912,0,1.824-.014,2.736,0a1.258,1.258,0,0,0,1.434-1.361c.017-.317.007-.634.007-.952,0-8.687.033-17.375-.021-26.062-.015-2.48.743-2.848,1.78-2.928,1.253-.1,1.819.859,1.819,2.886q0,13.15,0,26.3c0,1.95.164,2.112,2.09,2.114.912,0,1.824.01,2.736,0,1.234-.017,1.592-.386,1.628-1.65.008-.277,0-.555,0-.833q0-36.593,0-73.187a9.6,9.6,0,0,1,.055-1.424,1.592,1.592,0,0,1,1.5-1.443,1.645,1.645,0,0,1,1.858,1.147,4.127,4.127,0,0,1,.166,1.527c0,9.758.02,19.517-.031,29.275-.006,1.131.332,1.437,1.383,1.326.785-.083,1.585-.007,2.378-.018,1.4-.019,1.757-.37,1.759-1.768q.011-7.14,0-14.28c0-3.015-.006-6.03,0-9.044,0-1.443.607-2.216,1.712-2.248,1.163-.034,1.853.77,1.855,2.254q.014,11.782,0,23.563a4.794,4.794,0,0,1-5.056,5.106c-1.11.026-2.221.027-3.331,0-.507-.014-.742.128-.679.663a7.176,7.176,0,0,1,.005.832c0,12.575-.04,25.15.03,37.724.016,2.933-.913,5.046-3.787,6.059h-6.187c-.739-.241-1.346-1.093-2.151-.8a20.072,20.072,0,0,0-1.895.8Z" transform="translate(-163.616 -64.256)" fill="#05bdcd"/>
        <path id="Path_293" data-name="Path 293" d="M11.171,211.964c-.685-.57-1.58-.829-2.157-1.575a5,5,0,0,1-1-3.214c.013-6.823-.018-13.647.032-20.469.007-1.037-.227-1.341-1.3-1.32-3.431.068-3.786-.435-3.342-3.89.369-2.869.621-5.754.973-8.625.068-.551-.114-.625-.579-.737C1.189,171.5.017,170,.014,167.291c-.008-8.608-.03-17.217.006-25.825a12.666,12.666,0,0,1,12.907-12.993c4.477-.015,8.971-.327,13.431.185A12.5,12.5,0,0,1,37.085,140.5c.1,9.083.048,18.168.033,27.253a4.146,4.146,0,0,1-3.507,4.3c-.864.168-.851.558-.781,1.187.358,3.191.692,6.384,1.061,9.573.2,1.755-.431,2.539-2.177,2.594-2.527.081-2.527.08-2.527,2.633,0,1.23.031,2.46-.01,3.689-.043,1.279-.8,2.093-1.825,2.07s-1.716-.823-1.734-2.136c-.024-1.745-.035-3.491.007-5.236.018-.734-.126-1.049-.968-1.04-4.045.046-8.091.036-12.136.005-.7-.005-.949.147-.945.908q.046,10.413.007,20.827c0,.908.309,1.318,1.248,1.27a25.92,25.92,0,0,1,2.735,0c1.055.057,1.262-.523,1.256-1.411-.019-3.372-.007-6.744-.007-10.116,0-2.618-.01-5.237,0-7.855.007-1.421.642-2.232,1.717-2.264,1.116-.034,1.844.823,1.848,2.285.014,5.911,0,11.822.007,17.733,0,1.57.047,1.614,1.592,1.617.754,0,1.51-.045,2.26.011,1.058.08,1.4-.411,1.388-1.408-.03-2.975-.023-5.95,0-8.926.009-1.3.6-2.007,1.636-2.071a1.722,1.722,0,0,1,1.9,1.826c.051,3.331.072,6.665-.026,9.994-.065,2.2-1.5,3.428-3.453,4.146H19.976c-1.031-1.194-2.063-.575-3.094,0Zm22.384-57.981c0-4.2.034-8.407-.009-12.611-.051-5.025-3.268-8.713-8.262-9.19a116.027,116.027,0,0,0-12.95-.094,7.994,7.994,0,0,0-3.542.877,9.178,9.178,0,0,0-5.2,8.78q-.026,12.67,0,25.341a4.143,4.143,0,0,0,.034.829.814.814,0,0,0,.836.7c.561.007.447-.469.482-.784q1.109-10.1,2.2-20.207c.309-2.836.616-5.672.947-8.506a1.85,1.85,0,0,1,1.953-1.818,1.827,1.827,0,0,1,1.6,2.119c-.036.711-.148,1.418-.226,2.127q-1.13,10.28-2.259,20.559c-.686,6.262-1.356,12.527-2.064,18.787-.081.713.03.962.819.958q10.7-.045,21.41,0c.793,0,.877-.239.792-.963-.623-5.313-1.2-10.631-1.783-15.948q-1.371-12.525-2.734-25.051c-.161-1.467.329-2.384,1.442-2.563s1.9.547,2.069,2.045c.628,5.471,1.219,10.947,1.824,16.421.444,4.017.881,8.035,1.345,12.05.033.284-.151.812.455.772a.793.793,0,0,0,.825-.831c.01-.277.007-.555.007-.833q0-6.484,0-12.968" transform="translate(0 -90.093)" fill="#05bdcd"/>
        <path id="Path_294" data-name="Path 294" d="M138.826,303.86c-2.766-1.116-3.644-3.219-3.6-6.11.115-7.059.026-14.12.055-21.181a2.339,2.339,0,0,0-.716-1.776c-2.356-2.466-4.736-4.913-6.994-7.468a4.776,4.776,0,1,1,7.2-6.277c1.922,2.058,3.874,4.088,5.775,6.165a1.949,1.949,0,0,0,1.643.7c1.941-.052,4.117.511,5.76-.194s2.754-2.649,4.093-4.054c.875-.919,1.72-1.868,2.615-2.767a4.774,4.774,0,1,1,6.983,6.508c-2.291,2.525-4.652,4.988-7,7.459a2.046,2.046,0,0,0-.632,1.571c.042,2.062.018,4.125.012,6.187a5.741,5.741,0,0,1-.07,1.063,1.668,1.668,0,0,1-1.824,1.511,1.612,1.612,0,0,1-1.649-1.691c-.03-2.9-.011-5.79-.014-8.686a2.522,2.522,0,0,1,.952-1.714q3.458-3.689,6.92-7.375c.109-.116.212-.236.324-.349.624-.625,1.195-1.326.382-2.129s-1.493-.217-2.1.434c-2.032,2.173-4.1,4.312-6.095,6.517a3.494,3.494,0,0,1-2.9,1.288c-2.219-.068-4.442-.063-6.661,0a3.4,3.4,0,0,1-2.8-1.242c-2.026-2.231-4.118-4.4-6.173-6.607-.587-.63-1.234-1.147-2.023-.437-.86.773-.327,1.478.287,2.129,2.312,2.453,4.583,4.946,6.941,7.355a4.4,4.4,0,0,1,1.361,3.367c-.06,7.457-.03,14.914-.027,22.371,0,1.6.264,1.854,1.859,1.861,2.075.009,2.075.009,2.075-2.1q0-5.891,0-11.781a10.935,10.935,0,0,1,.05-1.186,1.73,1.73,0,0,1,3.44-.058,8.6,8.6,0,0,1,.082,1.3c.006,4.284.021,8.568-.013,12.851-.006.75.154,1,.959.995,3.151-.011,3.151.021,3.151-3.1,0-2.459-.01-4.919,0-7.378.008-1.425.651-2.189,1.777-2.178s1.778.785,1.787,2.206q.03,4.522,0,9.044c-.012,2.587-1.419,4.136-3.767,4.959Z" transform="translate(-88.627 -181.989)" fill="#05bdcd"/>
        <path id="Path_295" data-name="Path 295" d="M296.069,406.721a20.074,20.074,0,0,1,1.895-.8c.8-.292,1.412.559,2.151.8Z" transform="translate(-207.794 -284.85)" fill="#05bdcd"/>
        <path id="Path_296" data-name="Path 296" d="M56.622,407.141c1.031-.575,2.062-1.193,3.094,0Z" transform="translate(-39.74 -285.27)" fill="#05bdcd"/>
        <path id="Path_297" data-name="Path 297" d="M44.857,49.617A12.876,12.876,0,1,1,32.129,36.661,12.845,12.845,0,0,1,44.857,49.617m-3.58-.042a9.3,9.3,0,1,0-9.321,9.256,9.317,9.317,0,0,0,9.321-9.256" transform="translate(-13.408 -25.73)" fill="#05bdcd"/>
        <path id="Path_298" data-name="Path 298" d="M272.975,25.762a12.881,12.881,0,1,1,12.876-12.8,12.87,12.87,0,0,1-12.876,12.8m-.048-3.581a9.3,9.3,0,0,0,.114-18.6,9.3,9.3,0,0,0-.114,18.6" transform="translate(-182.553 0)" fill="#05bdcd"/>
        <path id="Path_299" data-name="Path 299" d="M161.481,234.769a7.783,7.783,0,1,1,7.826,7.77,7.882,7.882,0,0,1-7.826-7.77m11.991-.075a4.209,4.209,0,1,0-4.22,4.27,4.284,4.284,0,0,0,4.22-4.27" transform="translate(-113.334 -159.289)" fill="#05bdcd"/>
      </g>
    </g>
  </g>
  <path id="Icon_ionic-ios-arrow-forward-3" data-name="Icon ionic-ios-arrow-forward" d="M20.671,25.868,1.086,6.3a3.683,3.683,0,0,1,0-5.224,3.73,3.73,0,0,1,5.239,0L28.515,23.249a3.692,3.692,0,0,1,.108,5.1L6.341,50.677A3.7,3.7,0,1,1,1.1,45.453Z" transform="translate(608.099 134.781) rotate(-14)" fill="#3a83b6"/>
  <path id="Icon_ionic-ios-arrow-forward-4" data-name="Icon ionic-ios-arrow-forward" d="M20.671,25.868,1.086,6.3a3.683,3.683,0,0,1,0-5.224,3.73,3.73,0,0,1,5.239,0L28.515,23.249a3.692,3.692,0,0,1,.108,5.1L6.341,50.677A3.7,3.7,0,1,1,1.1,45.453Z" transform="matrix(0.819, 0.574, -0.574, 0.819, 969.438, 185)" fill="#3a83b6"/>
  <path id="Icon_ionic-ios-arrow-forward-5" data-name="Icon ionic-ios-arrow-forward" d="M20.671,25.868,1.086,6.3a3.683,3.683,0,0,1,0-5.224,3.73,3.73,0,0,1,5.239,0L28.515,23.249a3.692,3.692,0,0,1,.108,5.1L6.341,50.677A3.7,3.7,0,1,1,1.1,45.453Z" transform="translate(1130 566.101) rotate(107)" fill="#3a83b6"/>
  <path id="Icon_ionic-ios-arrow-forward-6" data-name="Icon ionic-ios-arrow-forward" d="M20.671,25.868,1.086,6.3a3.683,3.683,0,0,1,0-5.224,3.73,3.73,0,0,1,5.239,0L28.515,23.249a3.692,3.692,0,0,1,.108,5.1L6.341,50.677A3.7,3.7,0,1,1,1.1,45.453Z" transform="matrix(0.454, -0.891, 0.891, 0.454, 316, 342.375)" fill="#3a83b6"/>
  <path id="Icon_ionic-ios-arrow-forward-7" data-name="Icon ionic-ios-arrow-forward" d="M20.671,25.868,1.086,6.3a3.683,3.683,0,0,1,0-5.224,3.73,3.73,0,0,1,5.239,0L28.515,23.249a3.692,3.692,0,0,1,.108,5.1L6.341,50.677A3.7,3.7,0,1,1,1.1,45.453Z" transform="translate(448.438 734.307) rotate(-134)" fill="#3a83b6"/>
  <path id="Icon_ionic-ios-arrow-forward-8" data-name="Icon ionic-ios-arrow-forward" d="M20.671,25.868,1.086,6.3a3.683,3.683,0,0,1,0-5.224,3.73,3.73,0,0,1,5.239,0L28.515,23.249a3.692,3.692,0,0,1,.108,5.1L6.341,50.677A3.7,3.7,0,1,1,1.1,45.453Z" transform="matrix(-0.988, 0.156, -0.156, -0.988, 824.662, 799.245)" fill="#3a83b6"/>
  <text id="No_GMO_Geneticallu_modified_organisms_seed_used" data-name="No GMO (Geneticallu modified organisms) seed used" transform="translate(594 193)" fill="#707070" font-size="16" font-family="HelveticaNeue, Helvetica Neue"><tspan x="15.648" y="15">No GMO (Geneticallu modified </tspan><tspan x="46.688" y="39">organisms) seed used</tspan></text>
  <text id="Good_for_farmers_builds_communities" data-name="Good for farmers &amp; builds communities" transform="translate(594 541)" fill="#707070" font-size="16" font-family="HelveticaNeue, Helvetica Neue"><tspan x="32.84" y="15">Good for farmers &amp; builds </tspan><tspan x="79.2" y="39">communities</tspan></text>
  <text id="Build_soil_organic_through_crop_rotation_intercropping_composting" data-name="Build soil organic through crop rotation, intercropping &amp; composting" transform="translate(905 275)" fill="#707070" font-size="16" font-family="HelveticaNeue, Helvetica Neue"><tspan x="15.576" y="15">Build soil organic through crop </tspan><tspan x="38.752" y="39">rotation, intercropping &amp; </tspan><tspan x="82.616" y="63">composting</tspan></text>
  <text id="Conserves_water_uses_rainwater_more_efficiently" data-name="Conserves water &amp; uses rainwater more efficiently" transform="translate(953 654)" fill="#707070" font-size="16" font-family="HelveticaNeue, Helvetica Neue"><tspan x="20.132" y="15">Conserves water &amp; uses </tspan><tspan x="16.996" y="39">rainwater more efficiently</tspan></text>
  <text id="Better_for_the_environment" data-name="Better for the environment" transform="translate(1213 543)" fill="#707070" font-size="16" font-family="HelveticaNeue, Helvetica Neue"><tspan x="12.996" y="15">Better for the environment</tspan></text>
  <text id="Uses_soil_balance_trap_crops_beneficial_insects_to_manage_pests" data-name="Uses soil balance, trap crops &amp; beneficial insects to manage pests" transform="translate(618 831)" fill="#707070" font-size="16" font-family="HelveticaNeue, Helvetica Neue"><tspan x="2.636" y="15">Uses soil balance, trap crops </tspan><tspan x="28.268" y="39">&amp; beneficial insects to </tspan><tspan x="55.964" y="63">manage pests</tspan></text>
  <text id="Physical_removal_or_intercropping_to_remove_weeds" data-name="Physical removal or intercropping to remove weeds" transform="translate(256 655)" fill="#707070" font-size="16" font-family="HelveticaNeue, Helvetica Neue"><tspan x="36.716" y="15">Physical removal or </tspan><tspan x="21.14" y="39">intercropping to remove </tspan><tspan x="83.1" y="63">weeds</tspan></text>
  <text id="Beneficial_to_animals_insects" data-name="Beneficial to animals &amp; insects" transform="translate(9 519)" fill="#707070" font-size="16" font-family="HelveticaNeue, Helvetica Neue"><tspan x="25.452" y="15">Beneficial to animals &amp; </tspan><tspan x="81.164" y="39">insects</tspan></text>
  <text id="Natural_defoliation" data-name="Natural defoliation" transform="translate(291 301)" fill="#707070" font-size="16" font-family="HelveticaNeue, Helvetica Neue"><tspan x="41.316" y="15">Natural defoliation</tspan></text>
</svg>
