<svg id="clean_water" data-name="clean water" xmlns="http://www.w3.org/2000/svg" xmlns:xlink="http://www.w3.org/1999/xlink" width="369" height="309" viewBox="0 0 369 309">
  <defs>
    <clipPath id="clip-path">
      <rect id="Rectangle_874" data-name="Rectangle 874" width="112.396" height="153.061" fill="#f7f7f7"/>
    </clipPath>
  </defs>
  <g id="Group_26" data-name="Group 26" transform="translate(0.345)">
    <g id="Polygon_13" data-name="Polygon 13" transform="translate(-0.345 0)" fill="#4dabd5">
      <path d="M 276.4661865234375 308.5 L 92.53382110595703 308.5 L 0.5823625922203064 154.5 L 92.53386688232422 0.5 L 276.4661865234375 0.5 L 368.4176330566406 154.5 L 276.4661865234375 308.5 Z" stroke="none"/>
      <path d="M 92.817626953125 1 L 1.1646728515625 154.5 L 92.81759643554688 308 L 276.1824035644531 308 L 367.8353271484375 154.5 L 276.1824035644531 1 L 92.817626953125 1 M 92.25003051757812 0 L 276.75 0 L 369 154.5 L 276.75 309 L 92.25 309 L 0 154.5 L 92.25003051757812 0 Z" stroke="none" fill="#fff"/>
    </g>
  </g>
  <text id="Clean_water_sanitation" data-name="Clean water &amp; sanitation" transform="translate(181 50)" fill="#f7f7f7" font-size="16" font-family="HelveticaNeue-Bold, Helvetica Neue" font-weight="700"><tspan x="-93.312" y="0">Clean water &amp; sanitation</tspan></text>
  <g id="Group_187" data-name="Group 187" transform="translate(128 103.348)">
    <g id="Group_186" data-name="Group 186" clip-path="url(#clip-path)">
      <path id="Path_352" data-name="Path 352" d="M.058,99.126A50.865,50.865,0,0,1,3.686,77.609C8.555,64.6,15.622,52.765,23.215,41.223A444.16,444.16,0,0,1,52.467,2.038C54.7-.662,57.8-.684,60.007,2,73.036,17.814,85.312,34.179,95.888,51.763a164.357,164.357,0,0,1,13.181,26.693c5.229,13.872,4.071,27.489-1.9,40.711-7.4,16.37-19.691,27.683-37.246,32-23,5.654-42.2-1.485-57.216-19.572A54.884,54.884,0,0,1,.058,99.126M56.272,11.4c-.268.313-.433.5-.587.687-8.274,10.172-16.127,20.658-23.43,31.55-7.239,10.8-14.09,21.822-19.136,33.855-2.441,5.82-4.51,11.767-4.4,18.208a50.506,50.506,0,0,0,6.655,24.4c10.64,18.8,31.967,28.183,52.469,22.565,16.254-4.453,26.967-15.225,32.7-30.931,2.757-7.55,3.841-15.381,2.119-23.364-1.683-7.8-5.038-14.967-8.753-21.965C84.854,49.358,73.7,33.7,61.9,18.473c-1.829-2.361-3.72-4.674-5.63-7.069" transform="translate(0 0)" fill="#f7f7f7"/>
      <path id="Path_353" data-name="Path 353" d="M77.789,262.754c-10.829.055-20.507-3.047-28.467-10.641-5.8-5.535-9.071-12.5-11.061-20.144a55.891,55.891,0,0,1-1.807-13.714c-.024-3.2,2.387-5.237,5.361-4.631a4.773,4.773,0,0,1,3.267,2.92,9.033,9.033,0,0,0,12.656,3.667,8.239,8.239,0,0,0,3.45-3.755,4.444,4.444,0,0,1,8.318.1,8.23,8.23,0,0,0,7.727,5.019,8.57,8.57,0,0,0,8.3-4.875c1.209-2.3,2.76-3.173,5-2.834a3.88,3.88,0,0,1,3.161,2.327,8.424,8.424,0,0,0,7.961,5.38,8.645,8.645,0,0,0,8.423-5.182,4.473,4.473,0,0,1,4.981-2.635,4.352,4.352,0,0,1,3.436,4.589c-.1,10.311-2.315,20.052-8.152,28.712-6.286,9.326-15.327,14.064-26.319,15.4-1.058.129-2.122.231-3.187.281-1.014.047-2.033.01-3.049.01" transform="translate(-21.587 -126.442)" fill="#f7f7f7"/>
    </g>
  </g>
</svg>
