<svg id="decent_work" data-name="decent work" xmlns="http://www.w3.org/2000/svg" xmlns:xlink="http://www.w3.org/1999/xlink" width="368" height="310" viewBox="0 0 368 310">
  <defs>
    <clipPath id="clip-path">
      <rect id="Rectangle_871" data-name="Rectangle 871" width="156.077" height="155.953" fill="#f7f7f7"/>
    </clipPath>
  </defs>
  <g id="Polygon_13" data-name="Polygon 13" fill="#952843">
    <path d="M 275.71533203125 309.5 L 92.28466796875 309.5 L 0.5814443230628967 155 L 92.28471374511719 0.5 L 275.71533203125 0.5 L 367.4185485839844 155 L 275.71533203125 309.5 Z" stroke="none"/>
    <path d="M 92.56936645507812 1 L 1.162872314453125 155 L 92.56930541992188 309 L 275.4306945800781 309 L 366.8371276855469 155 L 275.4306945800781 1 L 92.56936645507812 1 M 92.00003051757812 0 L 276 0 L 368 155 L 276 310 L 92 310 L 0 155 L 92.00003051757812 0 Z" stroke="none" fill="#fff"/>
  </g>
  <text id="Decent_work_economic_growth" data-name="Decent work &amp;
economic growth" transform="translate(183 48)" fill="#f7f7f7" font-size="16" font-family="HelveticaNeue-Bold, Helvetica Neue" font-weight="700"><tspan x="-56.296" y="0">Decent work &amp;</tspan><tspan x="-66.648" y="24">economic growth</tspan></text>
  <g id="Group_181" data-name="Group 181" transform="translate(106 98.047)">
    <g id="Group_180" data-name="Group 180" clip-path="url(#clip-path)">
      <path id="Path_337" data-name="Path 337" d="M277.658,231.6c-.284-.5-.859-.439-1.291-.653-2.908-1.441-4.731-3.695-4.828-7-.106-3.6-.009-7.207.008-10.811.007-1.581,1.239-2.919,1.318-4.242.076-1.269-1.313-2.628-1.315-4.221,0-3.6-.031-7.208-.041-10.812a6.654,6.654,0,0,1,1.045-3.6,1.345,1.345,0,0,0,.049-1.733,6.629,6.629,0,0,1-1.1-3.742c0-3.452.02-6.9.021-10.355,0-1.686,1.226-3.125,1.331-4.548.094-1.28-1.32-2.725-1.318-4.37q.005-5.33-.035-10.66c-.011-1.69,1.435-3.151,1.338-4.52-.1-1.433-1.319-2.862-1.313-4.554.012-3.452-.092-6.906,0-10.355a7.8,7.8,0,0,1,7.8-7.743q14.849-.115,29.7,0a7.87,7.87,0,0,1,7.907,7.973,102.688,102.688,0,0,1-.171,11.409c-.138,1.265-1.262,2.256-1.242,3.343.019,1.025,1.1,1.975,1.223,3.191a99.589,99.589,0,0,1,.126,12.471c-.033,1.38-1.3,2.589-1.311,3.794s1.267,2.4,1.31,3.787a112.484,112.484,0,0,1-.072,12.171c-.1,1.31-1.182,2.37-1.252,3.5-.068,1.11,1.135,2.158,1.24,3.48a111.459,111.459,0,0,1,.077,12.321c-.044,1.386-1.36,2.585-1.308,3.785.049,1.15,1.184,2.286,1.271,3.646a88.779,88.779,0,0,1,.022,12.019,7.671,7.671,0,0,1-6.11,6.762c-.193.047-.4.031-.479.27Zm16.575-77.99q-6.929,0-13.859,0c-2.012,0-2.372.32-2.405,2.39-.043,2.69-.017,5.38-.009,8.071.007,2.129.444,2.561,2.594,2.562q13.707.005,27.413,0c2.038,0,2.431-.287,2.5-2.343.089-2.789.043-5.583.02-8.374-.014-1.824-.528-2.3-2.392-2.3q-6.929-.009-13.859,0m-.009,32.522q6.777,0,13.554,0c2.307,0,2.643-.263,2.7-2.61.07-2.688.027-5.38,0-8.07-.016-1.854-.514-2.34-2.356-2.341q-13.934-.007-27.87,0c-1.847,0-2.247.339-2.283,2.2-.052,2.74-.024,5.482-.016,8.223.006,2.16.435,2.6,2.557,2.6q6.853.009,13.706,0m-.116,6.472q-6.929,0-13.859,0c-1.839,0-2.236.342-2.272,2.211-.052,2.689-.024,5.38-.018,8.071.006,2.359.388,2.741,2.722,2.742q13.554,0,27.108,0c2.294,0,2.633-.269,2.693-2.621.068-2.688.027-5.38,0-8.07-.016-1.846-.518-2.328-2.367-2.33q-7.005-.01-14.011,0m.307-58.492c-4.771,0-9.542-.008-14.312,0-1.576,0-2.121.53-2.135,2.07-.024,2.74-.041,5.481-.007,8.221.03,2.457.333,2.729,2.722,2.729q11.5,0,22.991,0c1.624,0,3.248.009,4.872-.006,1.131-.01,1.9-.564,1.913-1.718.04-3.145.021-6.291-.035-9.436-.024-1.341-.714-1.918-2.154-1.894-4.618.078-9.237.029-13.855.029m-.362,91.014q7.08,0,14.16,0c1.053,0,2.12-.217,2.175-1.4a61.035,61.035,0,0,0-.073-10.33,1.365,1.365,0,0,0-1.56-1.3q-14.464.011-28.929.007a1.668,1.668,0,0,0-1.863,1.891c0,2.943-.037,5.887.011,8.83.032,1.948.436,2.3,2.375,2.3q6.852.01,13.7,0" transform="translate(-160.962 -75.663)" fill="#f7f7f7"/>
      <path id="Path_338" data-name="Path 338" d="M141.851,260c-.113-.383-.485-.305-.747-.407-3.288-1.271-5.306-3.64-5.492-7.156a72.18,72.18,0,0,1,.125-11.861c.14-1.255,1.254-2.256,1.258-3.317s-1.124-2.068-1.259-3.335a104.427,104.427,0,0,1-.171-11.714c.01-1.655,1.407-3.107,1.352-4.516-.053-1.386-1.333-2.8-1.348-4.409a104.183,104.183,0,0,1,.131-11.409c.138-1.368,1.254-2.46,1.282-3.621.026-1.1-1.135-2.159-1.266-3.484a77.578,77.578,0,0,1-.12-11.561,7.87,7.87,0,0,1,8.223-7.658q14.466-.062,28.932,0c4.6.019,7.994,3.063,8.245,7.633a67.81,67.81,0,0,1-.128,11.557,1.882,1.882,0,0,1-.108.746c-1.207,1.888-.536,3.611-.115,5.653a34.609,34.609,0,0,1-.027,13.908c-.4,1.931-.839,3.432.038,5.375.751,1.663.483,3.694.431,5.573-.072,2.634.462,5.358-.3,7.879a11.1,11.1,0,0,0-.124,6.425c1.015,4.009.589,8.283.278,12.426-.274,3.64-2.6,6.04-6.182,7.013-.12.033-.212.173-.317.263Zm16.559-77.989c-4.719,0-9.438.015-14.157-.01-1.324-.007-2.177.414-2.176,1.88,0,2.993-.046,5.987.028,8.978.046,1.882.426,2.173,2.31,2.175q8.677.01,17.354,0,5.327,0,10.656,0c1.232,0,2.093-.437,2.095-1.825,0-3.094-.012-6.189-.023-9.283,0-1.383-.645-1.959-2.082-1.941-4.668.061-9.336.023-14,.023m-.188,19.5q-6.927,0-13.854,0c-1.894,0-2.217.243-2.268,2.185-.074,2.839-.04,5.681-.022,8.522.011,1.847.491,2.312,2.369,2.313q13.93.012,27.861,0c1.761,0,2.143-.317,2.188-2.138.073-2.89.046-5.783.028-8.675-.011-1.777-.471-2.2-2.294-2.205q-7-.011-14.007,0m.054,19.5c-4.669,0-9.338.044-14.006-.025-1.495-.022-2.176.532-2.176,2,0,2.943-.032,5.885-.015,8.827.011,1.737.515,2.213,2.312,2.214,9.338.009,18.676-.01,28.013.019,1.4,0,2.091-.547,2.094-1.951.007-2.892.036-5.783.027-8.675-.006-2.017-.41-2.41-2.4-2.412q-6.927-.008-13.854,0m-.075,32.522q7,0,14,0c1.155,0,2.253-.181,2.284-1.61.068-3.245.228-6.491-.011-9.737a1.591,1.591,0,0,0-1.846-1.694q-14.309.038-28.618.011c-1.229,0-1.93.54-1.933,1.806-.007,3.044-.044,6.088.03,9.13.044,1.786.437,2.085,2.237,2.089q6.926.015,13.853,0" transform="translate(-80.295 -104.062)" fill="#f7f7f7"/>
      <path id="Path_339" data-name="Path 339" d="M.044,196.079c.629-.515.423-1.3.545-1.94a22.546,22.546,0,0,1,44.592,1.514,22.336,22.336,0,0,1-5.628,17.839c-.232.268-.471.531-.7.8-.028.034-.027.093-.067.249a8.2,8.2,0,0,1,6.48,5.994,12.049,12.049,0,0,1,.248,3.325c0,2.942-.031,5.884-.036,8.826,0,1.681-1.191,3.12-1.309,4.555-.111,1.355,1.308,2.823,1.3,4.513-.014,3.348.072,6.7.032,10.044-.05,4.256-2.439,7.1-6.621,8.024-.063.014-.1.152-.145.232H6.137c-1.1-.83-2.462-1.2-3.513-2.152-1.22-1.11-1.668-2.665-2.58-3.941V240.252c1.552-1.929,1.738-3.859,0-5.788V220.451c.575-.218.511-.814.718-1.242a8.628,8.628,0,0,1,6.191-4.716,23.443,23.443,0,0,1-6.2-11.156,9.373,9.373,0,0,0-.71-2.993ZM39.032,198.4A16.253,16.253,0,1,0,22.851,214.58,16.253,16.253,0,0,0,39.032,198.4m-16.1,22.656c-4.771,0-9.542.015-14.313-.011-1.21-.007-2.049.453-2.074,1.69-.062,3.094-.033,6.191,0,9.286.016,1.488.76,2.112,2.319,2.086,4.618-.075,9.237-.027,13.856-.027,4.67,0,9.339.009,14.009,0,1.678,0,2.283-.492,2.3-1.931.033-2.994.048-5.989-.011-8.983-.035-1.744-.479-2.1-2.227-2.105q-6.929-.008-13.857,0m-.095,19.5c-4.721,0-9.441.02-14.161-.012-1.372-.009-2.144.548-2.156,1.939-.026,2.893-.073,5.788.009,8.678.061,2.137.445,2.419,2.582,2.42q11.42,0,22.841,0c1.726,0,3.452.021,5.177-.008a1.7,1.7,0,0,0,1.909-1.869c0-2.994.038-5.99-.018-8.983-.034-1.821-.463-2.162-2.325-2.163q-6.928-.005-13.857,0" transform="translate(-0.026 -104.119)" fill="#f7f7f7"/>
      <path id="Path_341" data-name="Path 341" d="M.017,368.059C.93,369.335,1.377,370.89,2.6,372c1.051.956,2.414,1.322,3.513,2.152-1.828,0-3.656-.027-5.483.017-.53.013-.639-.1-.627-.627.044-1.827.017-3.655.017-5.483" transform="translate(0 -218.216)" fill="#f7f7f7"/>
      <path id="Path_342" data-name="Path 342" d="M.043,320.168c1.738,1.929,1.553,3.859,0,5.788Z" transform="translate(-0.025 -189.822)" fill="#f7f7f7"/>
      <path id="Path_343" data-name="Path 343" d="M151.4,7.033c-1.871,0-3.726-.011-5.581,0-2.292.017-3.69-1.1-3.773-3.041-.087-2.021,1.3-3.344,3.577-3.434,4.869-.19,9.736-.439,14.606-.556,3.884-.094,5.048,1.448,4.093,5.218q-1.791,7.067-3.627,14.121c-.587,2.269-2.094,3.314-4.069,2.863-1.881-.43-2.777-2.21-2.231-4.46.441-1.818.9-3.631,1.345-5.448.011-.042-.026-.1-.084-.295-2.766,2.207-5.491,4.374-8.207,6.553Q131.664,31.224,115.88,43.9c-2.6,2.089-3.464,2.12-6.163.194-6.19-4.417-12.387-8.825-18.544-13.288a1.427,1.427,0,0,0-2.151.082q-17.268,14.469-34.6,28.854c-.546.454-1.107.892-1.689,1.3a3.258,3.258,0,0,1-4.583-.633,3.159,3.159,0,0,1,.583-4.481c4.577-3.861,9.186-7.683,13.786-11.515Q74.852,34.127,87.195,23.853c1.85-1.541,3.072-1.6,5.046-.2Q101.923,30.5,111.574,37.4a1.4,1.4,0,0,0,2.055,0q18.643-14.946,37.336-29.83c.175-.139.459-.219.437-.539" transform="translate(-28.141 0)" fill="#f7f7f7"/>
    </g>
  </g>
</svg>
