<svg id="Component_105_1" data-name="Component 105 – 1" xmlns="http://www.w3.org/2000/svg" xmlns:xlink="http://www.w3.org/1999/xlink" width="186.781" height="162.948" viewBox="0 0 186.781 162.948">
  <defs>
    <clipPath id="clip-path">
      <rect id="Rectangle_994" data-name="Rectangle 994" width="186.781" height="162.948" fill="#00b8cc"/>
    </clipPath>
  </defs>
  <g id="Group_2019" data-name="Group 2019" clip-path="url(#clip-path)">
    <path id="Path_2794" data-name="Path 2794" d="M186.065,171.625a13.061,13.061,0,0,0-15.128-8.709c-7.9,1.589-15.923,3.238-23.681,4.834q-4.738.973-9.477,1.946l-11.668,2.395a12.436,12.436,0,0,0-1.28-11.489,12.905,12.905,0,0,0-11.375-5.716c-4.428.19-8.954.142-13.329.1q-2.1-.022-4.2-.037a21.186,21.186,0,0,1-9.376-2.052c-13.935-6.793-27.816-7.571-41.256-2.316-.09.035-.184.069-.28.1V149.7c0-1.655.006-3.238-.007-4.821-.023-2.83-1.185-3.985-4.012-3.988q-18.486-.014-36.972,0c-2.854,0-4.019,1.151-4.019,3.965Q0,177.208,0,209.563c0,2.868,1.085,3.935,4,3.937q9.242,0,18.486,0t18.486,0c2.964,0,4.019-1.075,4.033-4.1.008-1.743.006-3.485,0-5.261v-1.275l1.022.151c1.52.223,2.956.435,4.391.653l13.117,1.982c11.189,1.689,22.759,3.437,34.132,5.186,12.6,1.939,23.678,1.043,33.874-2.737,6.215-2.3,12.386-5.009,18.354-7.623q3.1-1.356,6.2-2.7l.866-.373c7.294-3.136,14.835-6.379,22.184-9.733a12.864,12.864,0,0,0,6.912-16.041M44.98,158.536c0-.876.165-1.125,1-1.482,12.527-5.316,25.368-4.756,38.164,1.664a25.2,25.2,0,0,0,11.269,2.494c3.256.033,6.565.025,9.765.016,2.858-.007,5.813-.016,8.716.007a7.077,7.077,0,0,1,5.065,1.979,6.043,6.043,0,0,1,1.711,4.4c-.036,3.684-2.877,6.263-6.908,6.272-10.39.024-20.78,0-31.168.031a4.834,4.834,0,0,0-2.947.755,3.239,3.239,0,0,0-1.1,3.025,4.184,4.184,0,0,0,2.054,2.235,2.752,2.752,0,0,0,1.7.254c.136-.01.271-.022.4-.022h0c3.189,0,6.379.022,9.569.041,7.978.049,16.227.1,24.341-.131a50.832,50.832,0,0,0,9.776-1.57c1.122-.256,2.243-.512,3.364-.739q11.233-2.279,22.458-4.6,9.863-2.027,19.728-4.042a6.872,6.872,0,0,1,4.131,13.081c-10.83,4.758-21.868,9.539-32.542,14.162l-.13.056q-1.552.673-3.1,1.359c-5.5,2.427-11.187,4.935-17.184,6.235a67.031,67.031,0,0,1-24.841.528c-10.951-1.693-22.091-3.369-32.864-4.989q-7.1-1.068-14.206-2.141c-1.483-.224-2.965-.453-4.512-.691l-1.691-.26,0-10.116c0-9.115.008-18.542-.035-27.814M6.391,147.318H38.635v59.806H6.391Z" transform="translate(0 -50.557)" fill="#00b8cc"/>
    <path id="Path_2795" data-name="Path 2795" d="M167.687,90.562h.12A45.281,45.281,0,0,0,167.954,0h-.139a45.287,45.287,0,0,0-32.177,77.17,45.027,45.027,0,0,0,32.049,13.393M128.8,45.289a39.043,39.043,0,0,1,38.826-39.01h.122a38.989,38.989,0,0,1,.083,77.979h-.088A38.933,38.933,0,0,1,128.8,45.289" transform="translate(-43.964)" fill="#00b8cc"/>
    <path id="Path_2796" data-name="Path 2796" d="M183.245,58.128c.683.017,1.369.012,2.052.009.751,0,1.53-.009,2.285.016a5.159,5.159,0,0,1,5,3.777,5.051,5.051,0,0,1-.81,4.433,5.472,5.472,0,0,1-4.344,2.079c-3.276.051-6.611.037-9.836.021l-2.1-.01h-.025a3.6,3.6,0,0,0-2.651.931,2.989,2.989,0,0,0-.825,2.213c.013,1.93,1.359,3.136,3.515,3.147.49,0,.982,0,1.471,0h5.376q.011,1.211.015,2.422l.009,1.742a4.365,4.365,0,0,0,1.061,3.248,2.817,2.817,0,0,0,2.041.771h.095c1.146-.027,3.07-.6,3.083-4.116,0-1.123,0-2.246,0-3.378v-.729l1.1-.215a11.356,11.356,0,0,0-.031-22.353,27,27,0,0,0-4.553-.267c-.455,0-.909,0-1.362-.01-3.274-.059-5.572-2.157-5.588-5.1-.017-2.978,2.257-5.086,5.531-5.125,1.856-.022,3.713-.019,5.57-.014,1.34,0,2.681.006,4.022,0,.244,0,.487.009.735.018a6.152,6.152,0,0,0,2.67-.294,3.715,3.715,0,0,0,2.2-2.886c0-1.48-1.852-2.7-2.063-2.831a3.456,3.456,0,0,0-2.111-.333c-.179.01-.351.022-.524.02-1.543-.01-3.087-.008-4.677-.007h-.911v-.917c0-1.341.006-2.586-.008-3.831a3.54,3.54,0,0,0-.955-2.61,3.065,3.065,0,0,0-2.281-.8c-1.9.044-3.033,1.3-3.036,3.37,0,1.256,0,2.511,0,3.829v1c-.2.042-.38.079-.562.106a11.356,11.356,0,0,0-9.865,11.907,11.489,11.489,0,0,0,11.29,10.76" transform="translate(-61.698 -9.743)" fill="#00b8cc"/>
  </g>
</svg>
