<svg id="Component_104_1" data-name="Component 104 – 1" xmlns="http://www.w3.org/2000/svg" xmlns:xlink="http://www.w3.org/1999/xlink" width="184.652" height="162.948" viewBox="0 0 184.652 162.948">
  <defs>
    <clipPath id="clip-path">
      <rect id="Rectangle_995" data-name="Rectangle 995" width="184.652" height="162.948" fill="#00b8cc"/>
    </clipPath>
  </defs>
  <g id="Group_2021" data-name="Group 2021" clip-path="url(#clip-path)">
    <path id="Path_2797" data-name="Path 2797" d="M81.657,162.948c-.273-.132-.537-.286-.82-.393a8,8,0,0,1-5.473-7.627c-.061-3.075-.036-6.152-.007-9.227.017-1.851.963-2.879,2.493-2.826,1.456.05,2.255,1.028,2.267,2.856.019,2.863-.011,5.727.011,8.589.021,2.695,1.2,3.845,3.924,3.852,4.187.011,8.374,0,12.7,0,.054-.528.128-.982.145-1.441.248-6.994.565-13.988.707-20.984.115-5.691,2.526-9.616,8.147-11.4V109.388c-1,.252-1.945.48-2.882.73-4.559,1.212-9.082,2.5-13.225,4.867-6.258,3.569-9.448,8.914-9.512,16.119-.008.955.021,1.911-.022,2.864a2.375,2.375,0,0,1-2.2,2.466,2.337,2.337,0,0,1-2.5-2.174c-.359-6.938.777-13.434,5.84-18.689A31.771,31.771,0,0,1,95.532,107.3c8.939-2.623,17.941-5.027,26.916-7.525A5.934,5.934,0,0,0,127.2,94a30.64,30.64,0,0,0,.014-4.607,2.543,2.543,0,0,0-1-1.595,27.579,27.579,0,0,1-11.485-19.052,1.313,1.313,0,0,0-1.239-1.313,7.2,7.2,0,0,1-5.941-6.919,27.318,27.318,0,0,1,.056-6.03,23.894,23.894,0,0,1,1.886-4.764,7.015,7.015,0,0,0,.723-1.962c.11-1.476-.04-2.972.058-4.449a1.633,1.633,0,0,0-1.437-1.98,26.948,26.948,0,0,1-4.571-1.789,10.208,10.208,0,0,1-2.7-1.923c-2.363-2.374-1.963-5.715,1.057-7.11a29,29,0,0,1,6.68-1.846c1.2-.232,1.783-.557,2.089-1.835,1.456-6.074,3.015-12.124,4.6-18.165A11.148,11.148,0,0,1,127.159.018q17.184-.036,34.367,0a11.136,11.136,0,0,1,11.182,8.61c1.6,6.092,3.174,12.194,4.645,18.318.3,1.248.9,1.5,2.019,1.707a29.27,29.27,0,0,1,6.265,1.615c3.606,1.549,4.138,5.3,1.047,7.734a30.953,30.953,0,0,1-5.865,3.061,18.939,18.939,0,0,1-2.351.782c0,2.194-.041,4.363.033,6.529.015.451.48.878.7,1.334.635,1.314,1.63,2.594,1.791,3.968a36.211,36.211,0,0,1,.036,7.6A6.875,6.875,0,0,1,175.4,67.4a1.487,1.487,0,0,0-1.438,1.485,27.047,27.047,0,0,1-11.229,18.663,2.6,2.6,0,0,0-1.293,2.621,43.361,43.361,0,0,0,.476,5.5,5.3,5.3,0,0,0,4.185,4.066c9.052,2.413,18.094,4.883,27.065,7.582a42.175,42.175,0,0,1,8.812,3.942c7.259,4.191,11.165,10.59,11.323,19.01.156,8.268.106,16.544.038,24.815a7.857,7.857,0,0,1-5.455,7.467c-.283.1-.547.261-.819.394Zm20.042-4.881h85.356c-.518-7.834-1-15.555-1.551-23.271-.283-3.956-2.445-5.886-6.423-5.887q-35.091,0-70.182,0c-4.1,0-6.292,2.073-6.459,6.2-.278,6.889-.5,13.781-.736,20.67-.025.733,0,1.467,0,2.286m21.724-113.9c0,2.829-.008,5.366,0,7.9a3.09,3.09,0,0,1-1.838,3.078,3.433,3.433,0,0,1-3.709-.526,11.692,11.692,0,0,0-3.054-1.6c-1.67-.569-2.4-.051-2.495,1.728a52.356,52.356,0,0,0,.009,5.564,2.469,2.469,0,0,0,2.582,2.481c.475.034.955,0,1.431.021,1.968.095,2.778.885,2.857,2.85.658,16.4,16.495,25.171,29.2,23.007,9.43-1.606,20.58-8.962,21.113-23.349a2.383,2.383,0,0,1,2.388-2.477c.578-.06,1.166-.015,1.748-.046,1.66-.089,2.635-.9,2.719-2.513a48.645,48.645,0,0,0-.017-5.72c-.1-1.6-.833-2.089-2.344-1.587a22.612,22.612,0,0,0-3.1,1.528,7.92,7.92,0,0,1-1.655.873,3.145,3.145,0,0,1-3.949-3.181c-.059-2.628-.014-5.258-.014-8.022a202.923,202.923,0,0,1-41.879-.014m60.055-9.237c-.029-.181-.058-.363-.087-.544a12.042,12.042,0,0,0-2.045-.626,54.16,54.16,0,0,0-6.47-.636c-13.15-.058-26.3-.029-39.451-.032a8.608,8.608,0,0,1-1.744-.066,2.361,2.361,0,0,1,.171-4.68,10.909,10.909,0,0,1,1.43-.024h37.362a3.315,3.315,0,0,0,0-.631c-1.5-5.952-2.969-11.915-4.536-17.851a6.444,6.444,0,0,0-6.663-5.048q-17.021-.032-34.042,0c-3.621.006-5.968,1.865-6.885,5.392-.667,2.561-1.3,5.131-1.943,7.7-.866,3.428-1.734,6.856-2.642,10.447,2.407,0,4.628-.03,6.848.01a2.339,2.339,0,0,1,2.49,2.326A2.387,2.387,0,0,1,123,33.075a10.1,10.1,0,0,1-1.112.019c-3.287.011-6.581-.1-9.86.072-2.244.119-4.467.633-6.7.97l.045.568a26.823,26.823,0,0,0,9.055,3.161c11.171,2.32,22.5,2.772,33.858,2.571,9.605-.169,19.175-.8,28.528-3.194,2.269-.58,4.443-1.53,6.661-2.311m8.374,123.224c4.679,0,9.23.06,13.778-.029,1.815-.036,2.949-1.454,2.954-3.5.022-8.009.061-16.018-.033-24.024a16.743,16.743,0,0,0-6.6-13.678c-5.566-4.331-12.264-5.775-18.92-7.552a5.066,5.066,0,0,0-.129.742c-.007,4.508-.041,9.017.042,13.523a2.088,2.088,0,0,0,1.1,1.375,10.314,10.314,0,0,1,6.185,8.953c.561,7.985,1.072,15.973,1.619,24.187m-23.877-34.067c0-6.13.006-12.113-.019-18.1,0-.3-.215-.816-.435-.881-1.315-.393-2.472-.932-3.987.07a33.831,33.831,0,0,1-25.022,5.314,32.43,32.43,0,0,1-13.588-5.476c-1.418-1-2.543-.257-3.7.143-.344.119-.46,1.262-.465,1.937-.037,5.092-.02,10.183-.02,15.273v1.715Zm-39.16-22.327c9.467,6.19,22.836,5.646,31.111-.069-2.63-2.932-3.5-6.485-3.234-10.536a30.793,30.793,0,0,1-24.533.1c-.565,6.372-.763,6.987-3.344,10.5m-18.1,6.209v16.056h5.125V106.551l-5.125,1.417m67.361,0-5.241-1.422v17.466h5.241ZM118.65,49.178c0-1.739.045-3.27-.034-4.794a1.313,1.313,0,0,0-.714-.977,23.556,23.556,0,0,0-2.866-.472c0,1.615-.04,3.038.031,4.456a1.238,1.238,0,0,0,.657.877c.872.352,1.8.571,2.926.91m55.04-6.247a22.432,22.432,0,0,0-2.725.441c-.35.1-.833.552-.85.866-.086,1.611-.04,3.229-.04,4.9,3.622-.963,3.621-.963,3.615-4.44,0-.522,0-1.044,0-1.762" transform="translate(-28.753 0)" fill="#00b8cc"/>
    <path id="Path_2798" data-name="Path 2798" d="M165.6,226.993q15.116,0,30.234,0a7.692,7.692,0,0,1,1.586.052,2.218,2.218,0,0,1,1.945,2.185,2.248,2.248,0,0,1-1.82,2.451,5.255,5.255,0,0,1-1.423.08q-30.552,0-61.1,0a6.424,6.424,0,0,1-1.269-.041,2.249,2.249,0,0,1-2.024-2.442,2.223,2.223,0,0,1,2.054-2.254,8.6,8.6,0,0,1,1.429-.032H165.6" transform="translate(-50.279 -86.639)" fill="#00b8cc"/>
    <path id="Path_2799" data-name="Path 2799" d="M60.1,86.514a2.643,2.643,0,0,0-2.643,2.643v15.114a20.043,20.043,0,0,1-20.02,20.02H34.013V88.2a2.643,2.643,0,0,0-5.286,0V124.29H25.306a20.042,20.042,0,0,1-20.02-20.02V89.156a2.643,2.643,0,0,0-5.286,0v15.114a25.334,25.334,0,0,0,25.306,25.3h3.422v63.389a2.643,2.643,0,0,0,5.286,0V129.576h3.422a25.334,25.334,0,0,0,25.3-25.3V89.156A2.643,2.643,0,0,0,60.1,86.514" transform="translate(0 -32.659)" fill="#00b8cc"/>
  </g>
</svg>
