<svg id="Component_107_1" data-name="Component 107 – 1" xmlns="http://www.w3.org/2000/svg" xmlns:xlink="http://www.w3.org/1999/xlink" width="162.865" height="162.948" viewBox="0 0 162.865 162.948">
  <defs>
    <clipPath id="clip-path">
      <rect id="Rectangle_997" data-name="Rectangle 997" width="162.865" height="162.948" fill="#00b8cc"/>
    </clipPath>
  </defs>
  <g id="Group_2025" data-name="Group 2025" clip-path="url(#clip-path)">
    <path id="Path_2805" data-name="Path 2805" d="M16.651,49.685c-1.09-.844-2.138-1.588-3.109-2.421a12.23,12.23,0,0,1-4.693-8.591c-.185-2.653.79-3.718,3.429-3.743,3.3-.031,6.6-.108,9.9.035,1.521.066,1.982-.531,2.345-1.862,1.808-6.64,3.654-13.271,5.625-19.865a26.581,26.581,0,0,1,2.6-6.144A13.711,13.711,0,0,1,45.315,0c10.666.089,21.334.025,32,.025,7.623,0,12.407,3.17,15.067,10.389,1.4,3.8,2.357,7.762,3.482,11.66,1.092,3.786,2.185,7.574,3.183,11.386a1.639,1.639,0,0,0,1.919,1.485c3.357-.074,6.718-.036,10.077-.023,3.107.012,4.149,1.254,3.718,4.283a13.2,13.2,0,0,1-4.97,8.285c-.845.721-1.754,1.366-2.751,2.136.476.7.927,1.371,1.38,2.037,4.391,6.466,5.3,13.213,1.651,20.334-.322.628-.583,1.286-.891,1.921-1.765,3.641-1.69,7.14.727,10.5.789,1.1,1.438,2.3,2.22,3.4,4.515,6.384,4.768,13.088,1.536,20.055-.592,1.275-1.258,2.516-1.921,3.836.886.794,1.785,1.549,2.627,2.363,6,5.8,8.768,13.077,9.052,21.231.285,8.181.122,16.378.119,24.568,0,2.04-1,2.972-3.054,3.058-.412.017-.825.007-1.237.007q-57.548,0-115.1-.01a5.1,5.1,0,0,1-2.576-.3,3.434,3.434,0,0,1-1.562-2.3c.02-9.362-.17-18.745.426-28.077.516-8.082,4.33-14.822,10.713-19.974.181-.146.34-.317.5-.467-.974-2.23-2.061-4.375-2.861-6.622A17.769,17.769,0,0,1,10.8,88.666c1.069-1.622,2.078-3.283,3.137-4.912a8.867,8.867,0,0,0,.836-8.434A35.282,35.282,0,0,0,13.342,71.9c-3.44-6.759-2.562-13.2,1.377-19.422.315-.5.644-.986.978-1.471.295-.427.605-.842.953-1.323m72.879,57.83v2.191q0,14.053,0,28.106c0,3.166-.779,3.945-3.972,3.945q-23.691,0-47.381,0c-3.311,0-4.078-.761-4.079-4.045q-.006-13.965,0-27.93v-2.237c-2.653.83-4.989,1.62-7.361,2.278-1.3.36-1.679,1.026-1.674,2.377.055,14.495.033,28.99.038,43.485,0,.569.056,1.138.089,1.758H98.419a2.3,2.3,0,0,0,.176-.57q.019-22.714-.007-45.429a1.536,1.536,0,0,0-.7-1.2c-2.7-.949-5.445-1.793-8.356-2.729M29.65,34.8H93.761c-.088-.413-.132-.7-.21-.974-1.9-6.673-3.755-13.358-5.732-20.007A17.52,17.52,0,0,0,85.77,9.363a8.221,8.221,0,0,0-7.419-3.954c-11.132.069-22.265.047-33.4.013a7.865,7.865,0,0,0-6.821,3.393A20.21,20.21,0,0,0,35.758,13.5c-.807,2.2-1.356,4.5-2,6.762-1.362,4.8-2.713,9.6-4.109,14.543m4.317,21.212c0,2.886-.029,5.647.005,8.407A27.869,27.869,0,0,0,83.329,81.694c6.267-7.519,6.924-16.333,6.25-25.65a147.92,147.92,0,0,1-55.612-.03m5.615,80.2H83.689V105.957l-6.2-1.776c-2.4,7.582-7.27,12.28-15.2,12.52-8.569.26-13.871-4.533-16.511-12.507-1.6.455-3.106.976-4.654,1.3-1.194.247-1.58.754-1.57,2.007.064,8.014.033,16.028.033,24.042v4.671M15.311,40.529l-.281.375a33.067,33.067,0,0,0,3.158,3.119c3.815,2.9,8.271,4.443,12.839,5.645,12.892,3.392,26.035,4,39.27,3.313,9.2-.477,18.333-1.561,27-4.834a58.134,58.134,0,0,0,9.094-4.923c.914-.549,1.493-1.655,2.388-2.7Zm91.836,68.331c.679-1.381,1.317-2.568,1.858-3.8,2.161-4.909,1.944-9.6-1.306-14.024-.939-1.279-1.71-2.68-2.574-4.015A14.6,14.6,0,0,1,103.892,72.7c.43-1.031.784-2.1,1.309-3.084,2.809-5.235,1.966-10.09-1.416-14.719-1.739-2.38-1.727-2.379-4.456-1.419a24.964,24.964,0,0,1-3.026.956c-1.072.229-1.411.763-1.38,1.842.072,2.591.049,5.186.016,7.779-.144,11.535-4.95,20.715-14.311,27.357-2.082,1.478-2.983,2.86-2.788,5.379A2.3,2.3,0,0,0,79.8,99.281c9.169,2.764,18.6,4.793,27.347,9.578m-90.665-.748a53.939,53.939,0,0,1,5.586-2.55c6.749-2.231,13.541-4.334,20.326-6.454,3.155-.986,3.074-.957,3.2-4.193a3.366,3.366,0,0,0-1.86-3.341c-8.1-5.29-13.229-12.7-14.65-22.3-.651-4.393-.456-8.916-.549-13.383-.023-1.11-.277-1.685-1.424-1.977-1.532-.389-2.994-1.045-4.511-1.5-.42-.127-1.152-.143-1.365.108-3.53,4.165-6.274,9.593-3.576,15.558.678,1.5,1.317,3.016,1.951,4.533A14.466,14.466,0,0,1,18.4,86.756c-1.049,1.634-2.112,3.259-3.129,4.913a13.879,13.879,0,0,0,1.212,16.443m87.49,5v44.33h14.19c0-5.907.075-11.723-.031-17.535a59.447,59.447,0,0,0-.708-8.957c-1.388-8.082-5.945-13.9-13.452-17.838M19.5,157.474V112.99c-1.657,1.107-3.107,1.964-4.435,2.981-6.685,5.123-9.395,12.223-9.651,20.344-.214,6.769-.066,13.551-.069,20.326a4.747,4.747,0,0,0,.15.834ZM50.973,95.481c0,1.923-.037,3.625.007,5.324a10.892,10.892,0,0,0,8.936,10.377c5.371.849,10.644-2.064,12.095-7.166.749-2.635.616-5.52.916-8.644-7.6,2.329-14.715,2.5-21.954.11" transform="translate(0 0)" fill="#00b8cc"/>
    <path id="Path_2806" data-name="Path 2806" d="M276.986,159.948c-2.082,0-3.955.018-5.828,0a11.529,11.529,0,0,1-11.656-11.5c-.084-8.073-.033-16.149-.017-24.224,0-2,1.112-3.219,2.759-3.167,1.575.049,2.61,1.245,2.614,3.148.017,7.78,0,15.56.01,23.34,0,4.56,2.4,6.959,6.979,7,1.637.014,3.274,0,5.14,0v-2.255q0-13.527,0-27.054a10.682,10.682,0,0,1,.038-1.589,2.671,2.671,0,0,1,2.649-2.581,2.726,2.726,0,0,1,2.771,2.65,14.289,14.289,0,0,1,.026,1.59q0,13.527,0,27.053v2.278a66.8,66.8,0,0,0,7.639-.418c2.709-.447,4.439-3.015,4.45-6.031.025-7.6.009-15.206.01-22.81,0-.471-.018-.944.006-1.414a2.763,2.763,0,0,1,2.691-2.91,2.684,2.684,0,0,1,2.693,2.877c.056,3.064.023,6.129.024,9.194,0,4.892.022,9.784-.005,14.676-.042,7.451-4.837,12.248-12.276,12.315-1.695.015-3.39,0-5.232,0v61.912c0,3.253-.823,4.693-2.7,4.731-1.906.039-2.785-1.425-2.785-4.642V159.948" transform="translate(-137.129 -63.978)" fill="#00b8cc"/>
  </g>
</svg>
