<svg id="gender_equality" data-name="gender equality" xmlns="http://www.w3.org/2000/svg" xmlns:xlink="http://www.w3.org/1999/xlink" width="368" height="309" viewBox="0 0 368 309">
  <defs>
    <clipPath id="clip-path">
      <rect id="Rectangle_875" data-name="Rectangle 875" width="133.405" height="175.179" fill="#f7f7f7"/>
    </clipPath>
  </defs>
  <g id="Polygon_13" data-name="Polygon 13" fill="#dc4f3a">
    <path d="M 275.7158203125 308.5 L 92.28418731689453 308.5 L 0.5819228291511536 154.5 L 92.28423309326172 0.5 L 275.7158203125 0.5 L 367.4180908203125 154.5 L 275.7158203125 308.5 Z" stroke="none"/>
    <path d="M 92.5684814453125 1 L 1.16387939453125 154.5 L 92.56842041015625 308 L 275.4315795898438 308 L 366.8361206054688 154.5 L 275.4315795898438 1 L 92.5684814453125 1 M 92.00003051757812 0 L 276 0 L 368 154.5 L 276 309 L 92 309 L 0 154.5 L 92.00003051757812 0 Z" stroke="none" fill="#fff"/>
  </g>
  <text id="Gender_equality-2" data-name="Gender equality" transform="translate(181 47)" fill="#f7f7f7" font-size="16" font-family="HelveticaNeue-Bold, Helvetica Neue" font-weight="700"><tspan x="-60.136" y="0">Gender equality</tspan></text>
  <g id="Group_189" data-name="Group 189" transform="translate(117 88.434)">
    <g id="Group_188" data-name="Group 188" clip-path="url(#clip-path)">
      <path id="Path_354" data-name="Path 354" d="M55.048,175.178c-2.945-1.355-4-3.668-3.8-6.854.182-3.011,0-6.042.063-9.063.021-.986-.284-1.226-1.235-1.211-3.42.056-6.842.032-10.263.019-3.306-.013-5.623-2.134-5.629-5.123s2.315-5.124,5.612-5.137c3.421-.013,6.843-.034,10.263.017.926.014,1.279-.18,1.253-1.193-.072-2.792-.062-5.587-.005-8.38.02-.967-.171-1.33-1.26-1.45A56.428,56.428,0,0,1,45.193,25.438c15.919-3.151,30.643.033,43.976,9.375.667.468,1.127,1.1,2.095.118,7.929-8.035,15.937-15.993,23.92-23.975.142-.142.266-.3.6-.684h-1.916c-6.5,0-13,.015-19.5-.007A5.136,5.136,0,1,1,94.378.011q16.763-.023,33.526,0a5.13,5.13,0,0,1,5.487,5.429q.029,16.763,0,33.526c0,3.186-2.142,5.477-5.065,5.514-2.993.038-5.183-2.283-5.191-5.559-.015-6.443,0-12.886,0-19.329V17.609c-.484.453-.755.694-1.011.95q-11.492,11.489-23,22.962c-.833.826-1.019,1.262-.141,2.267,28.072,32.155,11.243,83.043-30.425,92.058-1.944.421-3.917.743-5.893.97-.874.1-1.149.343-1.133,1.224.053,2.85.058,5.7,0,8.552-.02.944.213,1.258,1.206,1.24,3.42-.062,6.842-.033,10.263-.021,3.323.011,5.635,2.105,5.654,5.1s-2.291,5.149-5.587,5.164-6.617.086-9.919-.035c-1.414-.052-1.66.435-1.623,1.7.087,3.02-.077,6.048.057,9.064.141,3.187-1.12,5.314-4.136,6.38ZM56.506,34.562A46.188,46.188,0,1,0,102.6,80.84a46.263,46.263,0,0,0-46.1-46.278" transform="translate(0 0)" fill="#f7f7f7"/>
      <path id="Path_355" data-name="Path 355" d="M44.837,133.811c-.059-19.634,16.144-35.745,35.976-35.773a35.918,35.918,0,1,1-35.976,35.773M75.621,109c-15.757,2.555-26.145,21.465-17.289,37.275a2.249,2.249,0,0,0,.435-.234q8.1-6.945,16.2-13.893a1.554,1.554,0,0,0,.664-1.284Q75.6,119.937,75.621,109m10.264,0c0,5.875.246,11.748-.09,17.588a8.707,8.707,0,0,0,3.793,8.3c4.69,3.579,9.028,7.62,13.533,11.482,8.917-15.946-1.525-34.833-17.236-37.37m0,36.117c0,4.529.015,8.683-.014,12.837-.005.764.066,1.2,1,.951a27.135,27.135,0,0,0,8.9-4.146c.593-.427.563-.694.043-1.136-3.234-2.752-6.452-5.523-9.93-8.506m-10.264.016c-3.438,2.94-6.612,5.675-9.814,8.376-.652.55-.662.853.067,1.359a27.889,27.889,0,0,0,8.6,4c.848.233,1.186.1,1.171-.912-.058-4.15-.024-8.3-.024-12.819" transform="translate(-24.336 -53.211)" fill="#f7f7f7"/>
    </g>
  </g>
</svg>
