<svg id="good_health" data-name="good health" xmlns="http://www.w3.org/2000/svg" xmlns:xlink="http://www.w3.org/1999/xlink" width="369" height="309" viewBox="0 0 369 309">
  <defs>
    <clipPath id="clip-path">
      <rect id="Rectangle_870" data-name="Rectangle 870" width="163.936" height="163.755" fill="#f7f7f7"/>
    </clipPath>
  </defs>
  <g id="Polygon_13" data-name="Polygon 13" fill="#629d47">
    <path d="M 276.4661865234375 308.5 L 92.53382110595703 308.5 L 0.5823625922203064 154.5 L 92.53386688232422 0.5 L 276.4661865234375 0.5 L 368.4176330566406 154.5 L 276.4661865234375 308.5 Z" stroke="none"/>
    <path d="M 92.817626953125 1 L 1.1646728515625 154.5 L 92.81759643554688 308 L 276.1824035644531 308 L 367.8353271484375 154.5 L 276.1824035644531 1 L 92.817626953125 1 M 92.25003051757812 0 L 276.75 0 L 369 154.5 L 276.75 309 L 92.25 309 L 0 154.5 L 92.25003051757812 0 Z" stroke="none" fill="#fff"/>
  </g>
  <text id="Good_Health_Well-being" data-name="Good Health
&amp; Well-being" transform="translate(182 48)" fill="#f7f7f7" font-size="16" font-family="HelveticaNeue-Bold, Helvetica Neue" font-weight="700"><tspan x="-47.696" y="0">Good Health</tspan><tspan x="-47.952" y="24">&amp; Well-being</tspan></text>
  <g id="Group_179" data-name="Group 179" transform="translate(103 99)">
    <g id="Group_179-2" data-name="Group 179" clip-path="url(#clip-path)">
      <path id="Path_335" data-name="Path 335" d="M0,91.088c4.471-.036,8.923-.124,13.228,1.524a24.027,24.027,0,0,1,15.537,22.123c.061,6.765.9,13.358,3.622,19.628.433,1,.741,1.129,1.789.608a29.972,29.972,0,0,1,36.788,7.92,153.547,153.547,0,0,1,10.9,14.592c2.257-3.416,4.488-6.634,6.949-9.679,2.675-3.309,5.109-6.858,8.561-9.443q15.106-11.307,32.264-3.364c.918.427,1.245.444,1.683-.558,2.739-6.266,3.6-12.856,3.653-19.621A22.98,22.98,0,0,1,140.659,99.6,23.553,23.553,0,0,1,159.5,91.1c1.37.01,3.166-.589,4,.232s.233,2.622.237,3.991c.023,7.885-.021,15.77.017,23.655.114,24.065-8.557,44.5-25.409,61.549q-6.123,6.2-12.33,12.308a2.972,2.972,0,0,0-.987,2.354c.045,6.872.023,13.745.023,20.618H38.7c0-6.867-.019-13.733.021-20.6a2.977,2.977,0,0,0-.963-2.363c-4.4-4.334-8.78-8.686-13.1-13.1a84.164,84.164,0,0,1-23.8-47.305c-.248-1.633-.085-3.35-.854-4.9Zm154.187,10.5a9.722,9.722,0,0,0-3.309,1.6,14.208,14.208,0,0,0-6.323,12.235c.012,11.815-2.968,22.7-9.9,32.4-5.826,8.156-13.086,14.992-20.084,22.074-.609.616-.862.188-1.226-.177-1.656-1.659-3.246-3.392-5-4.946-1.055-.937-.84-1.425.056-2.317,5.7-5.676,11.489-11.266,16.508-17.585.725-.912.7-1.224-.4-1.728a20.009,20.009,0,0,0-22.593,4.061A84.531,84.531,0,0,0,87.551,167.05a6.458,6.458,0,0,0-.9,3.013q.038,17.423-.006,34.846c0,1,.2,1.334,1.283,1.328q13.108-.073,26.216,0c1.208.008,1.34-.418,1.328-1.45-.054-4.529.005-9.058-.046-13.586a2.961,2.961,0,0,1,.973-2.359c5.041-4.981,10.028-10.015,15.05-15.016a78.309,78.309,0,0,0,9.8-11.764,73.81,73.81,0,0,0,12.5-34.083c.893-8.707.216-17.462.438-26.4m-144.642.074c.327,9.289-.518,18.544.64,27.763A73.326,73.326,0,0,0,27.763,168.9c6.019,6.988,12.9,13.164,19.378,19.716a3.707,3.707,0,0,1,1.173,2.922c-.058,4.368.013,8.739-.047,13.107-.016,1.156.161,1.614,1.5,1.6q12.948-.109,25.9,0c1.264.01,1.437-.385,1.433-1.51q-.063-16.784,0-33.568a9.056,9.056,0,0,0-1.031-4.429A83.126,83.126,0,0,0,61.91,147.317c-5.831-5.918-13.1-7.383-21.051-4.787-3.1,1.011-3.069,1.078-1.011,3.581,4.848,5.9,10.329,11.2,15.724,16.574.7.7.856,1.1.035,1.858-1.762,1.622-3.435,3.345-5.088,5.081-.593.622-.943.7-1.593.038-4.468-4.572-9.089-8.995-13.348-13.77-5.634-6.316-10.53-13.092-13.337-21.192a61.065,61.065,0,0,1-3.068-19.778c-.042-6.067-4.211-11.826-9.627-13.266" transform="translate(0 -52.049)" fill="#f7f7f7"/>
      <path id="Path_336" data-name="Path 336" d="M177.836,29.235c.089,6.6-3.351,13.4-8.557,19.474-5.607,6.542-12.183,12.064-18.7,17.642-4.938,4.226-9.909,8.414-14.85,12.636-.659.563-1.105.9-1.974.141-8.994-7.843-18.372-15.247-26.958-23.554-4.957-4.8-9.549-9.888-12.3-16.355C88.835,25.884,93.874,10,105.9,3.272a24.754,24.754,0,0,1,27.97,2.337c.559.448.917.985,1.8.227,12.736-10.891,34-6.349,40.531,12.051a32.307,32.307,0,0,1,1.636,11.348m-43.048-7.7c-1.688-2.225-3.181-4.369-4.851-6.364a14.93,14.93,0,0,0-19.03-3.647c-7.183,3.822-10.751,13-8.378,21.518,1.4,5.034,4.513,9,8.03,12.672,7.277,7.595,15.562,14.068,23.458,20.975.664.581.979.239,1.441-.156,3.362-2.871,6.742-5.72,10.1-8.6,5.5-4.712,11.1-9.321,15.9-14.784,4.762-5.414,7.854-11.436,6.444-18.909-1.328-7.042-5.149-12.124-12.281-14.035-6.96-1.865-12.514.643-16.872,6.153-1.32,1.669-2.59,3.377-3.965,5.173" transform="translate(-52.782 0)" fill="#f7f7f7"/>
    </g>
  </g>
</svg>
