<svg id="life_on_hand" data-name="life on hand" xmlns="http://www.w3.org/2000/svg" xmlns:xlink="http://www.w3.org/1999/xlink" width="368" height="309" viewBox="0 0 368 309">
  <defs>
    <clipPath id="clip-path">
      <rect id="Rectangle_872" data-name="Rectangle 872" width="169.569" height="169.729" fill="#f7f7f7"/>
    </clipPath>
  </defs>
  <g id="Polygon_13" data-name="Polygon 13" fill="#73be46">
    <path d="M 275.7158203125 308.5 L 92.28418731689453 308.5 L 0.5819228291511536 154.5 L 92.28423309326172 0.5 L 275.7158203125 0.5 L 367.4180908203125 154.5 L 275.7158203125 308.5 Z" stroke="none"/>
    <path d="M 92.5684814453125 1 L 1.16387939453125 154.5 L 92.56842041015625 308 L 275.4315795898438 308 L 366.8361206054688 154.5 L 275.4315795898438 1 L 92.5684814453125 1 M 92.00003051757812 0 L 276 0 L 368 154.5 L 276 309 L 92 309 L 0 154.5 L 92.00003051757812 0 Z" stroke="none" fill="#fff"/>
  </g>
  <text id="Life_on_land" data-name="Life on land" transform="translate(181 47)" fill="#f7f7f7" font-size="16" font-family="HelveticaNeue-Bold, Helvetica Neue" font-weight="700"><tspan x="-44.432" y="0">Life on land</tspan></text>
  <g id="Group_183" data-name="Group 183" transform="translate(99 92.047)">
    <g id="Group_182" data-name="Group 182" clip-path="url(#clip-path)">
      <path id="Path_344" data-name="Path 344" d="M.048,99.408c6.753,2.355,13.212,4.6,19.668,6.86q31.756,11.095,63.5,22.216a4,4,0,0,0,3.062-.029q36.894-14.81,73.822-29.537a1.988,1.988,0,0,0,1.406-2.251c-.053-6.557-.025-13.114-.026-19.67,0-2.256,0-2.258-2.04-1.444L95.914,100.914a57.387,57.387,0,0,0-6.453,2.62c-3.174,1.745-6.092,1.449-9.444.3q-39.146-13.38-78.4-26.43C.4,77-.1,76.525.015,75.206a35.885,35.885,0,0,0,.011-4.913,1.619,1.619,0,0,1,1.38-1.958q32.168-9.555,64.3-19.22c1.28-.384,2.028-.429,2.3,1.188a23.3,23.3,0,0,0,1.343,4.705c.546,1.363.145,1.834-1.165,2.216-10.736,3.135-21.455,6.33-32.18,9.5-6.99,2.068-13.981,4.128-21.345,6.3,2.039.722,3.765,1.361,5.509,1.948Q51.694,85.607,83.211,96.239a4.11,4.11,0,0,0,3.067-.041q32.091-12.9,64.2-25.752c.485-.195,1.16-.181,1.417-.91Q126.653,63.229,101.44,56.93C97.72,56,93.978,55.145,90.286,54.114c-1.318-.368-1.459.027-1.449,1.177.044,5.3-.025,10.592.052,15.887.019,1.31-.3,1.774-1.653,1.673a32.462,32.462,0,0,0-4.913,0c-1.379.107-1.642-.4-1.634-1.691.055-9.583,0-19.166.062-28.748.009-1.428-.284-1.905-1.82-1.88-5.6.09-11.2.226-16.695-1.339A35.611,35.611,0,0,1,36.382,5.334c-.014-1.676-.733-3.908.322-4.873.9-.827,3.106-.3,4.731-.264C46.726.3,52.049-.267,57.3.484,72.395,2.64,82.314,11.11,87.265,25.478c.116.337.214.679.328,1.04.731-.207.956-.858,1.349-1.318a35.118,35.118,0,0,1,26.894-12.879c5.356-.131,10.717-.025,16.076-.031.691,0,1.279-.144,1.328.978.462,10.584-2.259,20.062-9.555,27.98a35.322,35.322,0,0,1-12.8,8.816c-.341.139-.755.162-.921.695l44.561,11.11c4.575,1.141,9.146,2.3,13.733,3.4a1.4,1.4,0,0,1,1.3,1.632c-.039,11.915-.056,23.831.018,35.747.008,1.382-.853,1.5-1.677,1.831q-30.883,12.352-61.774,24.686c-6.593,2.635-13.188,5.261-19.765,7.933a4.017,4.017,0,0,1-3.069.059q-36.443-12.826-72.911-25.578c-2.164-.757-2.3-1.4-2.287,1.571.021,6.557.047,13.114-.028,19.67a1.954,1.954,0,0,0,1.6,2.25q37.022,12.877,74,25.878a3.445,3.445,0,0,0,2.669-.257q40.8-16.737,81.6-33.449c.457-.188.916-.37,1.6-.646,0,2.8-.022,5.411.01,8.025.014,1.117-.933,1.078-1.552,1.333q-19.175,7.87-38.372,15.688-21.721,8.868-43.433,17.754a3.479,3.479,0,0,1-2.686.123Q42.686,155.178,1.851,140.923a2.294,2.294,0,0,1-1.842-2.648c.069-12.23.039-24.461.039-36.693Zm73.63-66.971c2.265,0,3.911-.1,5.539.029,1.394.107,1.568-.454,1.317-1.623a27.593,27.593,0,0,0-15.966-20.21c-6.127-2.891-12.642-2.369-19.107-2.4-1.135-.007-.742.78-.644,1.323a27.049,27.049,0,0,0,7.559,14.7,27.065,27.065,0,0,0,21.3,8.191M89.091,44.506c6.155-.061,12.355.726,18.271-1.647q14.185-5.691,17.511-20.65c.319-1.432.038-2.014-1.59-1.913-2.322.145-4.659.007-6.989.042a27.519,27.519,0,0,0-27.2,24.167" transform="translate(0 0)" fill="#f7f7f7"/>
    </g>
  </g>
</svg>
