<svg id="full_logo" data-name="full logo" xmlns="http://www.w3.org/2000/svg" xmlns:xlink="http://www.w3.org/1999/xlink" width="306" height="349.521" viewBox="0 0 306 349.521">
  <defs>
    <clipPath id="clip-path">
      <rect id="Rectangle_861" data-name="Rectangle 861" width="306" height="349.521" fill="#00b8cc"/>
    </clipPath>
  </defs>
  <g id="Group_58" data-name="Group 58" clip-path="url(#clip-path)">
    <path id="Path_249" data-name="Path 249" d="M52.88,128.869C52.88,82.716,90.47,45.1,137.6,43.163V0C66.044,1.958,8.651,58.75,8.651,128.58S66.044,255.2,137.6,257.159V214.572c-47.128-1.931-84.719-39.554-84.719-85.7" transform="translate(11.35)" fill="#2c83af"/>
    <path id="Path_250" data-name="Path 250" d="M123.79,60.752l-.509-.418c-.012.136-.021.275-.032.418Z" transform="translate(161.703 79.158)" fill="#fff"/>
    <path id="Path_251" data-name="Path 251" d="M68.042.009V43.172c35.912,1.771,66.162,24.294,78.277,55.437H68.042V139.9H195.681c.012-.136.016-.28.03-.418.31-3.6.516-7.23.516-10.91C196.226,58.99,139.238,2.349,68.042.009" transform="translate(89.271 0.012)" fill="#00b8cc"/>
    <path id="Path_252" data-name="Path 252" d="M138.891,75.166a86.661,86.661,0,0,1-12.739,15.666,89.546,89.546,0,0,1-58.11,25.106v42.58c2.363-.076,4.71-.208,7.038-.409A133.441,133.441,0,0,0,173.108,102.5l.384-2.062Z" transform="translate(89.271 98.618)" fill="#00b8cc"/>
    <path id="Path_253" data-name="Path 253" d="M0,124.143H12.85v2.728H2.982v6.7h9.581v2.728H2.982v9.042H12.85v2.728H0Z" transform="translate(0 162.875)" fill="#fff"/>
    <path id="Path_254" data-name="Path 254" d="M7.428,124.143h3.394l4.885,8.725,5.2-8.725h3.394l-6.883,11.389,7.264,12.533H21.356l-5.648-9.8-5.868,9.8H6.508l7.519-12.533Z" transform="translate(8.538 162.875)" fill="#fff"/>
    <path id="Path_255" data-name="Path 255" d="M18.7,135.375h.953C22.7,135.375,26,134.8,26,131c0-3.743-3.554-4.187-6.5-4.187H18.7Zm0,12.691H15.718V124.143h3.429c7.359,0,9.646,2.539,9.646,6.918,0,5.042-3.84,6.98-8.376,6.98H18.7Z" transform="translate(20.622 162.876)" fill="#fff"/>
    <path id="Path_256" data-name="Path 256" d="M44.213,136.392a9.552,9.552,0,1,0-19.1,0,9.552,9.552,0,1,0,19.1,0m2.982,0a12.532,12.532,0,0,1-25.064,0,12.532,12.532,0,0,1,25.064,0" transform="translate(29.036 162.587)" fill="#fff"/>
    <path id="Path_257" data-name="Path 257" d="M57.055,129a9.516,9.516,0,0,0-15.77,7.426,9.414,9.414,0,0,0,15.77,7.232v3.521a12.929,12.929,0,0,1-6.282,1.683A12.385,12.385,0,0,1,38.3,136.519a12.575,12.575,0,0,1,12.725-12.6,11.548,11.548,0,0,1,6.027,1.618Z" transform="translate(50.252 162.587)" fill="#fff"/>
    <path id="Path_258" data-name="Path 258" d="M69.651,136.392a9.551,9.551,0,1,0-19.1,0,9.551,9.551,0,1,0,19.1,0m2.982,0a12.532,12.532,0,0,1-25.064,0,12.532,12.532,0,0,1,25.064,0" transform="translate(62.41 162.587)" fill="#fff"/>
    <path id="Path_259" data-name="Path 259" d="M65.131,132.841h-.065l-2.793,15.8H59.2L64.083,123.7,72.3,142.549,80.517,123.7,85.4,148.641H82.327l-2.793-15.8H79.47L72.3,149.15Z" transform="translate(77.668 162.299)" fill="#fff"/>
    <path id="Path_260" data-name="Path 260" d="M77.154,132.841h-.062l-2.793,15.8H71.224L76.107,123.7l8.217,18.845L92.543,123.7l4.885,24.937H94.351l-2.793-15.8H91.5L84.324,149.15Z" transform="translate(93.446 162.299)" fill="#fff"/>
    <path id="Path_261" data-name="Path 261" d="M105.414,136.392a9.551,9.551,0,1,0-19.1,0,9.551,9.551,0,1,0,19.1,0m2.982,0a12.532,12.532,0,0,1-25.064,0,12.532,12.532,0,0,1,25.064,0" transform="translate(109.332 162.587)" fill="#fff"/>
    <path id="Path_262" data-name="Path 262" d="M98.642,145.337H99.69c6.092,0,11.357-2.284,11.357-9.232,0-6.98-5.264-9.234-11.357-9.234H98.642ZM95.66,124.143h4.95c7.327,0,13.419,3.873,13.419,11.833,0,8.157-5.965,12.089-13.514,12.089H95.66Z" transform="translate(125.506 162.876)" fill="#fff"/>
    <rect id="Rectangle_859" data-name="Rectangle 859" width="2.982" height="23.922" transform="translate(243.225 287.019)" fill="#fff"/>
    <path id="Path_263" data-name="Path 263" d="M116.471,148.065h-2.982V126.871H107.81v-2.728h14.341v2.728h-5.681Z" transform="translate(141.447 162.875)" fill="#fff"/>
    <rect id="Rectangle_860" data-name="Rectangle 860" width="2.982" height="23.922" transform="translate(266.647 287.019)" fill="#fff"/>
    <path id="Path_264" data-name="Path 264" d="M118.9,124.143h12.85v2.728h-9.865v6.7h9.581v2.728h-9.581v9.042h9.865v2.728H118.9Z" transform="translate(155.998 162.875)" fill="#fff"/>
    <path id="Path_265" data-name="Path 265" d="M137.747,128.968a4.1,4.1,0,0,0-3.84-2.252c-1.9,0-4,1.3-4,3.392,0,1.873,1.84,2.858,3.332,3.429l1.715.666c3.392,1.332,5.93,3.2,5.93,7.2a7.374,7.374,0,0,1-7.646,7.456,7.454,7.454,0,0,1-7.391-6.693l3.015-.636a4.521,4.521,0,1,0,9.04-.127c0-2.569-2.06-3.681-4.125-4.536l-1.648-.7c-2.728-1.174-5.2-2.73-5.2-6.062,0-3.868,3.424-6.185,7.042-6.185a6.819,6.819,0,0,1,6.155,3.616Z" transform="translate(165.114 162.587)" fill="#fff"/>
  </g>
</svg>
