<svg id="full_logo" data-name="full logo" xmlns="http://www.w3.org/2000/svg" xmlns:xlink="http://www.w3.org/1999/xlink" width="131.425" height="151.258" viewBox="0 0 131.425 151.258">
  <defs>
    <clipPath id="clip-path">
      <rect id="Rectangle_861" data-name="Rectangle 861" width="131.425" height="151.258" fill="#fff"/>
    </clipPath>
  </defs>
  <g id="logo_white">
    <g id="Group_58" data-name="Group 58" clip-path="url(#clip-path)">
      <path id="Path_249" data-name="Path 249" d="M27.647,55.769c0-19.973,16.145-36.252,36.386-37.09V0C33.3.847,8.651,25.425,8.651,55.644s24.65,54.8,55.382,55.644V92.858c-20.241-.835-36.386-17.117-36.386-37.089" transform="translate(-0.061)" fill="#fff"/>
      <path id="Path_250" data-name="Path 250" d="M123.481,60.515l-.218-.181c0,.059-.009.119-.014.181Z" transform="translate(-0.864 0.032)" fill="#fff"/>
      <path id="Path_251" data-name="Path 251" d="M68.042.009V18.688a37.964,37.964,0,0,1,33.62,23.991H68.042V60.546h54.82c0-.059.007-.121.013-.181.133-1.558.221-3.129.221-4.722C123.1,25.534,98.62,1.022,68.042.009" transform="translate(-0.477 0)" fill="#fff"/>
      <path id="Path_252" data-name="Path 252" d="M98.471,75.166A37.45,37.45,0,0,1,93,81.946,38.321,38.321,0,0,1,68.042,92.81v18.427c1.015-.033,2.023-.09,3.023-.177a57.221,57.221,0,0,0,42.1-24.066l.165-.892Z" transform="translate(-0.477 0.04)" fill="#fff"/>
      <path id="Path_253" data-name="Path 253" d="M0,124.143H5.519v1.181H1.281v2.9H5.4V129.4H1.281v3.913H5.519V134.5H0Z" transform="translate(0 0.067)" fill="#fff"/>
      <path id="Path_254" data-name="Path 254" d="M6.9,124.143H8.361l2.1,3.776,2.235-3.776h1.458L11.2,129.071l3.12,5.424H12.885l-2.426-4.242L7.939,134.5H6.508l3.229-5.424Z" transform="translate(-0.046 0.067)" fill="#fff"/>
      <path id="Path_255" data-name="Path 255" d="M17,129h.409c1.308,0,2.725-.247,2.725-1.9,0-1.62-1.526-1.812-2.793-1.812H17Zm0,5.492H15.718V124.143h1.473c3.161,0,4.143,1.1,4.143,2.994,0,2.182-1.649,3.021-3.6,3.021H17Z" transform="translate(-0.11 0.067)" fill="#fff"/>
      <path id="Path_256" data-name="Path 256" d="M31.615,129.319a4.1,4.1,0,1,0-8.2,0,4.1,4.1,0,1,0,8.2,0m1.281,0a5.383,5.383,0,1,1-10.765,0,5.383,5.383,0,1,1,10.765,0" transform="translate(-0.155 0.067)" fill="#fff"/>
      <path id="Path_257" data-name="Path 257" d="M46.356,126.12a4.243,4.243,0,1,0,0,6.343v1.524a5.521,5.521,0,0,1-2.7.728,5.339,5.339,0,0,1-5.356-5.342,5.421,5.421,0,0,1,5.465-5.451,4.931,4.931,0,0,1,2.589.7Z" transform="translate(-0.269 0.067)" fill="#fff"/>
      <path id="Path_258" data-name="Path 258" d="M57.053,129.319a4.1,4.1,0,1,0-8.2,0,4.1,4.1,0,1,0,8.2,0m1.281,0a5.383,5.383,0,1,1-10.765,0,5.383,5.383,0,1,1,10.765,0" transform="translate(-0.333 0.067)" fill="#fff"/>
      <path id="Path_259" data-name="Path 259" d="M61.746,127.658h-.028l-1.2,6.838H59.2L61.3,123.7l3.529,8.155,3.529-8.155,2.1,10.792H69.132l-1.2-6.838H67.9l-3.079,7.058Z" transform="translate(-0.415 0.066)" fill="#fff"/>
      <path id="Path_260" data-name="Path 260" d="M73.771,127.658h-.027l-1.2,6.838H71.224l2.1-10.792,3.529,8.155,3.53-8.155,2.1,10.792H81.157l-1.2-6.838h-.027l-3.08,7.058Z" transform="translate(-0.499 0.066)" fill="#fff"/>
      <path id="Path_261" data-name="Path 261" d="M92.816,129.319a4.1,4.1,0,1,0-8.2,0,4.1,4.1,0,1,0,8.2,0m1.281,0a5.383,5.383,0,1,1-10.765,0,5.383,5.383,0,1,1,10.765,0" transform="translate(-0.584 0.067)" fill="#fff"/>
      <path id="Path_262" data-name="Path 262" d="M96.941,133.315h.45c2.617,0,4.878-.989,4.878-4s-2.261-4-4.878-4h-.45Zm-1.281-9.172h2.126c3.147,0,5.763,1.676,5.763,5.121,0,3.53-2.562,5.232-5.8,5.232H95.66Z" transform="translate(-0.671 0.067)" fill="#fff"/>
      <rect id="Rectangle_859" data-name="Rectangle 859" width="1.281" height="10.353" transform="translate(104.464 124.21)" fill="#fff"/>
      <path id="Path_263" data-name="Path 263" d="M111.53,134.5h-1.281v-9.172H107.81v-1.181h6.16v1.181h-2.44Z" transform="translate(-0.756 0.067)" fill="#fff"/>
      <rect id="Rectangle_860" data-name="Rectangle 860" width="1.281" height="10.353" transform="translate(114.524 124.21)" fill="#fff"/>
      <path id="Path_264" data-name="Path 264" d="M118.9,124.143h5.519v1.181h-4.237v2.9H124.3V129.4h-4.115v3.913h4.237V134.5H118.9Z" transform="translate(-0.834 0.067)" fill="#fff"/>
      <path id="Path_265" data-name="Path 265" d="M130.959,126.106a1.758,1.758,0,0,0-1.649-.975,1.623,1.623,0,0,0-1.717,1.468c0,.81.79,1.237,1.431,1.484l.737.288c1.457.576,2.547,1.387,2.547,3.117a3.178,3.178,0,0,1-3.284,3.227,3.21,3.21,0,0,1-3.175-2.9l1.295-.275a1.942,1.942,0,1,0,3.883-.055c0-1.112-.885-1.593-1.772-1.963l-.708-.3c-1.172-.508-2.234-1.182-2.234-2.623a2.809,2.809,0,0,1,3.025-2.676,2.925,2.925,0,0,1,2.643,1.565Z" transform="translate(-0.882 0.067)" fill="#fff"/>
    </g>
  </g>
</svg>
