<svg id="no_porverty" data-name="no porverty" xmlns="http://www.w3.org/2000/svg" xmlns:xlink="http://www.w3.org/1999/xlink" width="369" height="309" viewBox="0 0 369 309">
  <defs>
    <clipPath id="clip-path">
      <rect id="Rectangle_868" data-name="Rectangle 868" width="150.551" height="150.548" fill="#f7f7f7"/>
    </clipPath>
  </defs>
  <g id="Group_26" data-name="Group 26" transform="translate(0.101 -0.43)">
    <g id="Polygon_13" data-name="Polygon 13" transform="translate(-0.101 0.43)" fill="#d23b42">
      <path d="M 276.4661865234375 308.5 L 92.53382110595703 308.5 L 0.5823625922203064 154.5 L 92.53386688232422 0.5 L 276.4661865234375 0.5 L 368.4176330566406 154.5 L 276.4661865234375 308.5 Z" stroke="none"/>
      <path d="M 92.817626953125 1 L 1.1646728515625 154.5 L 92.81759643554688 308 L 276.1824035644531 308 L 367.8353271484375 154.5 L 276.1824035644531 1 L 92.817626953125 1 M 92.25003051757812 0 L 276.75 0 L 369 154.5 L 276.75 309 L 92.25 309 L 0 154.5 L 92.25003051757812 0 Z" stroke="none" fill="#fff"/>
    </g>
  </g>
  <text id="No_Poverty" data-name="No Poverty" transform="translate(183 47)" fill="#f7f7f7" font-size="16" font-family="HelveticaNeue-Bold, Helvetica Neue" font-weight="700"><tspan x="-42.096" y="0">No Poverty</tspan></text>
  <g id="Group_176" data-name="Group 176" transform="translate(109 79)">
    <g id="Group_175" data-name="Group 175" clip-path="url(#clip-path)">
      <path id="Path_329" data-name="Path 329" d="M0,61.159c.61-.764.483-1.728.69-2.6A29.2,29.2,0,0,1,7.923,45.171Q24.016,27.92,40.066,10.627A3.417,3.417,0,0,0,41.2,7.786a27.358,27.358,0,0,1-.017-3.232A4.455,4.455,0,0,1,45.578,0,4.4,4.4,0,0,1,49.99,4.523c.029,1.813-.076,3.631.029,5.438a6.4,6.4,0,0,1-1.938,5.01Q33.975,30.056,19.951,45.218c-2.2,2.37-4.437,4.709-6.56,7.146a17.617,17.617,0,0,0-4.511,11.67c-.092,17.494-.064,34.989-.041,52.483a5.5,5.5,0,0,0,5.052,5.674c2.646.124,4.9-1.978,5.365-5.028a10.739,10.739,0,0,0,.086-1.611q.007-16.318.013-32.636a4.717,4.717,0,0,0-.517-2.237A14.935,14.935,0,0,1,21.084,63.6C28.133,55.969,35.3,48.446,42.441,40.9a4.325,4.325,0,0,1,6.3-.276,4.438,4.438,0,0,1-.009,6.436q-10.405,11.1-20.85,22.161a6.293,6.293,0,0,0-1.272,7.305c1.665,3.414,5.655,4.167,8.263,1.415,9.843-10.384,19.7-20.752,29.4-31.273a25.266,25.266,0,0,0,6.574-17.461c.061-8.134,0-16.269.021-24.4C70.873,1.549,73.593-.6,76.538.283a4.487,4.487,0,0,1,3.141,4.6q.013,11.835,0,23.669a27.058,27.058,0,0,0,7.6,19.292Q101.144,62.554,115,77.267c2.586,2.743,5.239,3.11,7.577,1.071a6.239,6.239,0,0,0,.513-8.618c-2.238-2.532-4.606-4.948-6.924-7.41-4.8-5.1-9.63-10.18-14.4-15.309a4.38,4.38,0,0,1,2.016-7.437,4.047,4.047,0,0,1,4.166,1.188c7.307,7.723,14.731,15.344,21.813,23.27,4.32,4.835,4.666,10.579,2.023,16.46a6.232,6.232,0,0,0-.6,2.661c.022,10.732.011,21.464.021,32.2a12.088,12.088,0,0,0,.162,2.19,5.342,5.342,0,0,0,5.218,4.667,5.54,5.54,0,0,0,5.107-5.173c.054-.534.031-1.077.031-1.616,0-16.465-.039-32.931.023-49.4a21.1,21.1,0,0,0-5.888-15.163C124.864,39.121,113.991,27.285,103,15.563c-1.724-1.838-2.729-3.712-2.48-6.274.156-1.6,0-3.232.04-4.848A4.456,4.456,0,0,1,104.843.072a4.516,4.516,0,0,1,4.511,4.161,1.639,1.639,0,0,1,.009.44c-.682,3.541,1.006,5.948,3.371,8.436,10.026,10.546,19.834,21.3,29.77,31.931A28.481,28.481,0,0,1,150.535,65.1q.034,25.433,0,50.866c-.007,6.951-4.117,12.738-10.236,14.518a14.114,14.114,0,0,1-17.675-11.612,27.458,27.458,0,0,1-.243-3.66q-.03-12.937,0-25.874c0-.783.019-1.258-1.067-1.091a13.38,13.38,0,0,1-12.3-4.446q-7.837-8.268-15.628-16.58c-3.931-4.173-7.847-8.36-11.8-12.512a40.668,40.668,0,0,1-6.175-8.138c-.5.02-.553.438-.706.7a36.265,36.265,0,0,1-5.039,6.661Q55.72,68.758,41.756,83.574c-3.448,3.666-7.578,5.461-12.644,4.665-1.243-.2-.936.6-.937,1.213q-.011,13.157-.006,26.315A14.874,14.874,0,0,1,22.7,127.915C14.9,134.28,3.3,130.365.573,120.5c-.134-.485-.061-1.074-.573-1.414Z" transform="translate(0 0)" fill="#f7f7f7"/>
      <path id="Path_330" data-name="Path 330" d="M117.869,276.073c-2.539-1.289-3.351-3.411-3.174-6.155.1-1.533.686-3.611-.261-4.484-.832-.767-2.877-.239-4.387-.247-2.939-.015-5.877,0-8.816-.007-3.078-.012-4.873-1.752-4.885-4.784q-.03-7.861,0-15.723a17.943,17.943,0,0,1,7.149-14.612c.767-.609.736-.948.265-1.7a14.054,14.054,0,1,1,25.769-9.691,34.453,34.453,0,0,1,.206,3.644c.718-.125,1.456-.246,2.19-.382a12.609,12.609,0,0,1,7.328.839c.889.376,1.07.15,1.375-.679a14.042,14.042,0,0,1,27.046,2.1,13.436,13.436,0,0,1-2.612,11.078c-.559.733-.545,1.065.143,1.709a17.822,17.822,0,0,1,5.928,13.267q.062,5.142.007,10.286a4.39,4.39,0,0,1-4.727,4.645c-3.918.02-7.837.047-11.754-.023-1.061-.019-1.326.3-1.256,1.3.091,1.316-.05,2.648.037,3.965.182,2.758-.865,4.694-3.525,5.651Zm16.139-8.831c3.179,0,6.358-.009,9.536.007.636,0,1.107.03,1.082-.879-.067-2.444.072-4.9-.068-7.334a9.38,9.38,0,0,0-4.4-7.561c-2.374-1.585-5.051-1.735-7.76-1.5a9.517,9.517,0,0,0-8.724,8.469c-.315,2.677-.05,5.376-.137,8.062-.029.9.56.736,1.078.737q4.694.005,9.39,0m-28.839-17.831h-.007c0,1.959.037,3.92-.018,5.878-.023.815.187,1.1,1.047,1.081,2.6-.056,5.192-.041,7.788-.007.742.01,1.091-.142,1.28-.972A17.656,17.656,0,0,1,121.941,245c.813-.619.726-.986.237-1.709a12.333,12.333,0,0,1-1.948-5.019c-.49-3.071-.651-3.23-3.781-3.288-.588-.011-1.176-.017-1.763,0a9.6,9.6,0,0,0-9.51,9.577c-.037,1.616-.005,3.233-.005,4.85m52.558,6.939c1.173,0,2.349-.04,3.52.014.777.036,1.139-.131,1.1-1.019-.073-1.757.033-3.523-.056-5.279a9.24,9.24,0,0,0-5.325-8.161,12.4,12.4,0,0,0-7.3-.905c-1.684.184-3.052.707-3.82,2.434-.327.736-.327,1.011.307,1.5a17.876,17.876,0,0,1,6.714,10.349c.182.781.447,1.164,1.34,1.091,1.166-.1,2.345-.023,3.518-.023m-18.4-20.439a5.261,5.261,0,1,0-5.288,5.177,5.309,5.309,0,0,0,5.288-5.177m-18.462-14.981a5.223,5.223,0,1,0-5.22,5.2,5.213,5.213,0,0,0,5.22-5.2m32.989,11.089a5.238,5.238,0,1,0-5.205-5.212,5.167,5.167,0,0,0,5.205,5.212" transform="translate(-58.475 -125.525)" fill="#f7f7f7"/>
    </g>
  </g>
</svg>
