<svg id="Component_106_1" data-name="Component 106 – 1" xmlns="http://www.w3.org/2000/svg" xmlns:xlink="http://www.w3.org/1999/xlink" width="162.927" height="162.948" viewBox="0 0 162.927 162.948">
  <defs>
    <clipPath id="clip-path">
      <rect id="Rectangle_996" data-name="Rectangle 996" width="162.927" height="162.948" fill="#00b8cc"/>
    </clipPath>
  </defs>
  <g id="Group_2023" data-name="Group 2023" clip-path="url(#clip-path)">
    <path id="Path_2800" data-name="Path 2800" d="M0,76.7c.412-3.085.719-6.187,1.254-9.25A79.755,79.755,0,0,1,27.841,20.192,79.562,79.562,0,0,1,70.286.774a82.233,82.233,0,0,1,27.682.9c2.122.422,3.272,1.994,2.918,3.844-.365,1.913-2.05,2.837-4.5,2.352A71.637,71.637,0,0,0,79.634,6.405c-22.9.891-41.756,10.136-56.38,27.752A71.646,71.646,0,0,0,6.8,73.621c-1.94,19.72,3.211,37.556,15.071,53.557,1.019-.295,2-.647,3.007-.858a12.048,12.048,0,1,1-9.421,13.447,11.266,11.266,0,0,1,1.178-7.083,1.776,1.776,0,0,0-.189-2.239A76.716,76.716,0,0,1,2.836,102.323C1.62,97.356,1.1,92.218.271,87.158c-.1-.62-.181-1.243-.271-1.864V76.7m33.1,61.376a5.718,5.718,0,1,0-5.759,5.754,5.72,5.72,0,0,0,5.759-5.754" transform="translate(0 0)" fill="#00b8cc"/>
    <path id="Path_2801" data-name="Path 2801" d="M132.21,173.7c-3-.322-5.994-.633-8.988-.973a12.286,12.286,0,0,1-2.182-.415,3.071,3.071,0,0,1-2.226-3.554,3.039,3.039,0,0,1,3.149-2.578,21.085,21.085,0,0,1,2.843.291A74.833,74.833,0,0,0,208.4,110.938c5.9-23.272,1.244-44.728-12.9-64.124a2.69,2.69,0,0,0-.315-.29c-.634.21-1.316.455-2.01.661a12.064,12.064,0,1,1,8.547-13.342,11.338,11.338,0,0,1-1.2,7.233,1.667,1.667,0,0,0,.167,2.1A80.373,80.373,0,0,1,212.141,64.16a81.294,81.294,0,0,1,4.818,33.723,78.565,78.565,0,0,1-15.382,42.263c-13,17.546-30.253,28.439-51.822,32.3-3.067.549-6.178.845-9.27,1.258ZM184.1,35.449a5.717,5.717,0,1,0,5.78-5.574,5.727,5.727,0,0,0-5.78,5.574" transform="translate(-54.225 -10.756)" fill="#00b8cc"/>
    <path id="Path_2802" data-name="Path 2802" d="M92.055,97.848A26.7,26.7,0,0,1,85.63,86.342a28.556,28.556,0,0,1,.145-14.466,3.744,3.744,0,0,1,2.859-2.859,27.868,27.868,0,0,1,14.3-.176c.611.15,1.216.327,2.027.545-.091-.641-.14-1.149-.236-1.649A27.074,27.074,0,0,1,117.7,39.082a4.488,4.488,0,0,1,5.156.062A27.173,27.173,0,0,1,135.69,67.738c-.086.46-.164.921-.235,1.319a69.092,69.092,0,0,1,8.29-.967,52.549,52.549,0,0,1,8,.959,3.384,3.384,0,0,1,2.85,2.839c2.207,8.989.858,17.235-5.072,24.539-.329.405-.66.809-1.131,1.387,1.2.293,2.234.56,3.28.8a3.8,3.8,0,0,1,2.951,2.963c4.546,15.586-6.288,32.3-22.4,34.31a73.212,73.212,0,0,1-8.861.051v1.7q0,8.91-.005,17.819a8.143,8.143,0,0,1-.136,1.735,3.111,3.111,0,0,1-6.155-.284c-.126-1.315-.065-2.648-.066-3.974q-.008-7.637,0-15.273v-1.762a80.719,80.719,0,0,1-9.169-.051c-12.38-1.448-22.907-13.307-22.969-25.787a65.809,65.809,0,0,1,.661-7.578c.281-2.517,1.807-3.827,4.269-4.162.668-.091,1.323-.277,2.267-.48m37.721-34c-.066-8.135-2.846-13.748-8.366-18.022a1.63,1.63,0,0,0-2.341-.084A21.063,21.063,0,0,0,119,79.425a1.7,1.7,0,0,0,2.447-.024c5.425-4.264,8.24-9.8,8.326-15.553m14.517,10.523a20.95,20.95,0,0,0-20.657,24.107c.146.93.431,1.329,1.421,1.494A20.866,20.866,0,0,0,149.2,79.413c-.047-5.395.315-4.795-4.911-5.042M91.139,108.858c-.052,12.79,11.8,22.94,24.172,20.743a1.473,1.473,0,0,0,1.437-1.485,20.872,20.872,0,0,0-20.8-24.088c-5.108.074-4.536-.314-4.811,4.83m0-29.588a20.935,20.935,0,0,0,24.035,20.72c1-.159,1.421-.462,1.581-1.52A20.872,20.872,0,0,0,96.078,74.421c-5.248.039-4.668-.322-4.939,4.849m58.125,29.77c-.043-.846-.116-1.692-.121-2.538-.01-1.548-.637-2.267-2.3-2.447a21.07,21.07,0,0,0-23.228,23.88c.146,1.064.471,1.509,1.589,1.694,12.313,2.05,24.042-7.968,24.064-20.589" transform="translate(-38.702 -17.485)" fill="#00b8cc"/>
    <path id="Path_2803" data-name="Path 2803" d="M201.24,16.821A3.3,3.3,0,0,1,198,13.583a3.156,3.156,0,0,1,3.188-3.075,3.157,3.157,0,0,1,.057,6.313" transform="translate(-90.395 -4.797)" fill="#00b8cc"/>
    <path id="Path_2804" data-name="Path 2804" d="M93.714,284.151a3.14,3.14,0,1,1,3.084-3.142,3.066,3.066,0,0,1-3.084,3.142" transform="translate(-41.304 -126.862)" fill="#00b8cc"/>
  </g>
</svg>
