<svg id="reduce_inequalities" data-name="reduce inequalities" xmlns="http://www.w3.org/2000/svg" xmlns:xlink="http://www.w3.org/1999/xlink" width="368" height="309" viewBox="0 0 368 309">
  <defs>
    <clipPath id="clip-path">
      <rect id="Rectangle_873" data-name="Rectangle 873" width="161.556" height="161.697" fill="#f7f7f7"/>
    </clipPath>
  </defs>
  <g id="Polygon_13" data-name="Polygon 13" fill="#cb3167">
    <path d="M 275.7158203125 308.5 L 92.28418731689453 308.5 L 0.5819228291511536 154.5 L 92.28423309326172 0.5 L 275.7158203125 0.5 L 367.4180908203125 154.5 L 275.7158203125 308.5 Z" stroke="none"/>
    <path d="M 92.5684814453125 1 L 1.16387939453125 154.5 L 92.56842041015625 308 L 275.4315795898438 308 L 366.8361206054688 154.5 L 275.4315795898438 1 L 92.5684814453125 1 M 92.00003051757812 0 L 276 0 L 368 154.5 L 276 309 L 92 309 L 0 154.5 L 92.00003051757812 0 Z" stroke="none" fill="#fff"/>
  </g>
  <text id="Reduce_inequalities_" data-name="Reduce inequalities " transform="translate(182 47)" fill="#f7f7f7" font-size="16" font-family="HelveticaNeue-Bold, Helvetica Neue" font-weight="700"><tspan x="-77.152" y="0">Reduce inequalities </tspan></text>
  <g id="Group_185" data-name="Group 185" transform="translate(103 93)">
    <g id="Group_184" data-name="Group 184" clip-path="url(#clip-path)">
      <path id="Path_345" data-name="Path 345" d="M175,81.111,162.861,91.384c-1.332,1.127-2.678,2.237-3.985,3.392-.492.435-.821.559-1.4.065-5.314-4.5-10.659-8.961-16.349-13.729,1.828,0,3.254.009,4.68,0,2.661-.019,3.648-.993,3.65-3.686.009-14.529.033-29.058-.037-43.586-.008-1.544.431-1.847,1.872-1.817,4.558.1,9.122.118,13.678-.009,1.631-.046,1.889.509,1.884,1.974-.052,14.191-.032,28.382-.031,42.573,0,3.863.678,4.552,4.475,4.553H175" transform="translate(-77.358 -17.546)" fill="#f7f7f7"/>
      <path id="Path_346" data-name="Path 346" d="M27.028,49.093c1.492,0,2.932.007,4.37,0,2.655-.015,3.631-1,3.636-3.705q.016-7.773,0-15.547c0-9.351.028-18.7-.031-28.053C35,.457,35.2-.035,36.695,0c4.727.114,9.46.087,14.189.011,1.2-.019,1.471.3,1.467,1.478q-.065,21.8-.028,43.6c0,3.149.849,4,3.992,4,1.271,0,2.543,0,4.252,0-3.314,2.808-6.3,5.338-9.282,7.865-2.277,1.928-4.559,3.85-6.829,5.786-.448.382-.774.7-1.4.166-5.278-4.481-10.587-8.925-15.882-13.386-.062-.053-.062-.18-.141-.431" transform="translate(-14.816 0.001)" fill="#f7f7f7"/>
      <path id="Path_347" data-name="Path 347" d="M255.938,49.094h2.255c6.154,0,6.154,0,6.154-6.239,0-13.692.02-27.384-.032-41.076C264.31.442,264.526-.032,266.007,0c4.729.113,9.463.086,14.193.011,1.207-.019,1.462.332,1.459,1.492q-.062,21.637-.027,43.273c0,3.573.754,4.314,4.382,4.315h3.395c.162.63-.4.755-.693,1q-7.333,6.241-14.694,12.449c-.548.464-.933.976-1.8.237-5.264-4.5-10.594-8.919-16.287-13.69" transform="translate(-140.296 -0.001)" fill="#f7f7f7"/>
      <path id="Path_348" data-name="Path 348" d="M140.482,277.354l3.425-11.975c1.451-5.072,2.877-10.15,4.362-15.212a9.822,9.822,0,0,1,19.042.047c2.513,8.678,4.949,17.379,7.481,26.051.308,1.055.093,1.213-.906,1.211q-16.375-.041-32.75-.023a5.433,5.433,0,0,1-.653-.1" transform="translate(-77.007 -133.084)" fill="#f7f7f7"/>
      <path id="Path_349" data-name="Path 349" d="M140.243,343.814c-10.077,0-20.154-.021-30.23.028-1.2.006-1.732-.193-1.6-1.534s.01-2.7.035-4.052a5.711,5.711,0,0,1,5.945-5.962q25.839-.03,51.679,0a5.691,5.691,0,0,1,5.869,5.866c.035,1.407-.082,2.823.034,4.221.1,1.231-.357,1.461-1.5,1.455-9.57-.046-19.141-.026-28.711-.026h-1.52" transform="translate(-59.417 -182.144)" fill="#f7f7f7"/>
      <path id="Path_350" data-name="Path 350" d="M71.971,208.322a16.028,16.028,0,0,0-3.8,3.821c-.487.794-1.064.56-1.727.338q-30.5-10.176-61-20.337c-1.065-.355-2.137-.69-3.191-1.076-1.793-.657-2.61-2.091-2.108-3.633A2.893,2.893,0,0,1,4.1,185.628c4.9,1.614,9.786,3.29,14.683,4.923q25.954,8.658,51.912,17.3c.372.124.737.268,1.277.466" transform="translate(0 -101.64)" fill="#f7f7f7"/>
      <path id="Path_351" data-name="Path 351" d="M211.577,253.416c10.68,3.559,21.063,7.018,31.445,10.479q15.5,5.166,30.991,10.335c.426.142.858.267,1.277.428,1.787.686,2.6,2.12,2.1,3.662a2.893,2.893,0,0,1-3.949,1.774c-3.95-1.283-7.891-2.6-11.831-3.912q-23.3-7.777-46.614-15.533a2.611,2.611,0,0,1-2-2.124c-.36-1.624-.88-3.213-1.413-5.108" transform="translate(-115.979 -138.914)" fill="#f7f7f7"/>
    </g>
  </g>
</svg>
