<svg id="responsible_consumption" data-name="responsible consumption" xmlns="http://www.w3.org/2000/svg" xmlns:xlink="http://www.w3.org/1999/xlink" width="369" height="309" viewBox="0 0 369 309">
  <defs>
    <clipPath id="clip-path">
      <rect id="Rectangle_876" data-name="Rectangle 876" width="171.015" height="95.069" fill="#f7f7f7"/>
    </clipPath>
  </defs>
  <g id="Polygon_13" data-name="Polygon 13" fill="#b78d41">
    <path d="M 276.4661865234375 308.5 L 92.53382110595703 308.5 L 0.5823625922203064 154.5 L 92.53386688232422 0.5 L 276.4661865234375 0.5 L 368.4176330566406 154.5 L 276.4661865234375 308.5 Z" stroke="none"/>
    <path d="M 92.817626953125 1 L 1.1646728515625 154.5 L 92.81759643554688 308 L 276.1824035644531 308 L 367.8353271484375 154.5 L 276.1824035644531 1 L 92.817626953125 1 M 92.25003051757812 0 L 276.75 0 L 369 154.5 L 276.75 309 L 92.25 309 L 0 154.5 L 92.25003051757812 0 Z" stroke="none" fill="#fff"/>
  </g>
  <text id="Responsible_consumption_production" data-name="Responsible consumption
&amp; production" transform="translate(181 59)" fill="#f7f7f7" font-size="16" font-family="HelveticaNeue-Bold, Helvetica Neue" font-weight="700"><tspan x="-99.224" y="0">Responsible consumption</tspan><tspan x="-49.184" y="27">&amp; production</tspan></text>
  <g id="Group_191" data-name="Group 191" transform="translate(99 131.377)">
    <g id="Group_190" data-name="Group 190" clip-path="url(#clip-path)">
      <path id="Path_356" data-name="Path 356" d="M0,40.185c.812-1.653.753-3.5,1.177-5.248a45.248,45.248,0,0,1,89.061,5.72c.417,4.2.183,8.429,1.174,12.6,3.827,16.094,18.6,27.67,34.9,27.214A35.224,35.224,0,1,0,99.711,21.492a6.75,6.75,0,0,1-3.174,2.324,4.948,4.948,0,0,1-5.521-2.123,4.892,4.892,0,0,1,.581-6.149A44.5,44.5,0,0,1,115.637,1.153a45.283,45.283,0,0,1,54.921,37.86C174.1,63.516,156.644,86.6,132,90A45.314,45.314,0,0,1,80.872,51.407c-.49-3.483-.284-7-.673-10.485a35.219,35.219,0,0,0-69.347-3.31c-4.519,19.373,8.923,39.266,28.573,42.35a36.2,36.2,0,0,0,15.042-.741c.259-.069.5-.193.949-.368a5.436,5.436,0,0,1-3.283-3.462,4.94,4.94,0,0,1,4.755-6.359c6.509-.033,13.023.029,19.527.282a4.862,4.862,0,0,1,3.862,7.505c-3.561,5.5-7.3,10.893-11.048,16.271a4.756,4.756,0,0,1-5.818,1.578,4.9,4.9,0,0,1-3.036-5.215c.052-.482.173-.957.294-1.6a71.088,71.088,0,0,1-9.192,2.176A45.208,45.208,0,0,1,.336,50.7C.308,50.465.258,50.267,0,50.2Z" transform="translate(0 0)" fill="#f7f7f7"/>
    </g>
  </g>
</svg>
