<svg id="Component_108_1" data-name="Component 108 – 1" xmlns="http://www.w3.org/2000/svg" xmlns:xlink="http://www.w3.org/1999/xlink" width="173.023" height="162.948" viewBox="0 0 173.023 162.948">
  <defs>
    <clipPath id="clip-path">
      <rect id="Rectangle_998" data-name="Rectangle 998" width="173.023" height="162.948" fill="#00b8cc"/>
    </clipPath>
  </defs>
  <g id="Group_2027" data-name="Group 2027" clip-path="url(#clip-path)">
    <path id="Path_2807" data-name="Path 2807" d="M0,60.516c.212-1.032.441-2.06.631-3.1,1.549-8.435,9.1-14.886,16.14-15.275,1.77-.1,3.5-1.129,5.226-1.8q49.852-19.472,99.7-38.959c9.069-3.542,18.788-.1,23.191,8.2a35.024,35.024,0,0,1,1.456,3.7c.891-.223,1.8-.483,2.716-.673a24.885,24.885,0,0,1,12.032.334c6.578,1.877,9.974,6.616,11.177,13.071a18.745,18.745,0,0,1-4.489,16.172q-.271.32-.528.654c-.03.039-.023.108.31-.009a95.99,95.99,0,0,1,4.48,8.765c1.467,3.718,1.135,7.608.047,11.441a31.948,31.948,0,0,1-11.949,16.944c-6.409,4.856-13.029,9.434-19.56,14.128q-32.278,23.2-64.567,46.379c-2.97,2.129-6.039,4.127-9.12,6.094a46.828,46.828,0,0,0-7.082,5.65c-19.012,18.077-43.526,11.187-54.9-5.253A27.457,27.457,0,0,1,.334,135.131,11.73,11.73,0,0,0,0,133.84v-5.068c.112-.369.251-.733.332-1.108,1.526-7.027,5.125-12.4,12.038-15.149a6.92,6.92,0,0,0,1.573-.96q10.812-8.228,21.605-16.479c.512-.391,1-.811,1.7-1.382a16.843,16.843,0,0,0-1.772.007C18.066,95.88,3.927,82.217.795,69,.5,67.756.263,66.5,0,65.246V60.516m55.34,51.205c12.178,5.261,15.55,14.614,12.921,27.042.72-.472,1.191-.764,1.644-1.081,7.563-5.286,15.183-10.493,22.674-15.88,17.131-12.319,34.176-24.759,51.3-37.082,5.661-4.073,11.6-7.769,16.548-12.767a23.755,23.755,0,0,0,6.588-12.677,12.769,12.769,0,0,0-15.464-15,28.2,28.2,0,0,0-10.414,5.011q-42.054,30.574-84.1,61.157c-.568.413-1.126.841-1.7,1.271m79.731-65.135a28.836,28.836,0,0,0-3.068-3.9c-4.976-4.465-12.156-4.62-17.693-.4Q69.448,76.443,24.62,110.648c-.326.248-.607.554-1.073.984a19.877,19.877,0,0,1,11.067,6.714,19.792,19.792,0,0,1,9.412-6.289,10.9,10.9,0,0,0,3.118-1.552Q79.321,87.161,111.459,63.76l23.613-17.174M162.6,39.692a44,44,0,0,0,3.48-5.9c3.232-8.03-2.108-16.045-10.711-15.922a28.31,28.31,0,0,0-9.067,1.616Q101.508,35.67,56.809,52.105c-.544.2-1.072.441-1.681.694,7.679,5.783,9.1,13.32,6.692,22.222.839-.624,1.426-1.052,2-1.492Q87.253,55.667,110.684,37.8a19.249,19.249,0,0,1,17.36-3.562,17.5,17.5,0,0,1,11.623,9.024c7.116-4.208,14.364-7.072,22.929-3.574M34.588,135.346c-.484.516-.856.933-1.249,1.329a13.677,13.677,0,0,1-19.294.293,4.513,4.513,0,0,1-1.194-1.955,2.494,2.494,0,0,1,1.376-2.978c1.45-.755,2.651-.244,3.807.814a7.788,7.788,0,0,0,10.846.133,8.087,8.087,0,0,0,1.307-10.834c-4.473-6.3-15.059-7.005-20.26-1.306-4.313,4.726-5.016,10.249-3.342,16.233C9.531,147.6,21.324,156.748,32.9,157.126c11.261.366,20.173-4.388,26.647-13.5a19.248,19.248,0,0,0,3.592-14.876c-.966-5.314-3.709-9.439-9.142-11.108a13.388,13.388,0,0,0-14.243,3.643,7.414,7.414,0,0,0-2.05,7.3c1.536,6.4,8.673,8.566,13.6,4.164,1.493-1.335,3.174-1.41,4.346-.193a2.754,2.754,0,0,1-.4,4.278,19.373,19.373,0,0,1-5.744,3.353c-5.895,1.786-10.816-.182-14.917-4.838m.426-82.515a18.441,18.441,0,0,1,9.3-2.961,12.923,12.923,0,0,0,3.751-.734q44.988-16.373,89.952-32.81c2.9-1.059,3.151-1.7,1.615-4.405a12.075,12.075,0,0,0-1.035-1.537c-3.533-4.439-9.141-5.851-14.766-3.654q-47.579,18.583-95.145,37.2c-.377.147-.737.335-1.308.6a18.26,18.26,0,0,1,7.639,8.306M30.5,68.551c-.723.4-1.249.722-1.8,1-6.183,3.1-14.008.6-16.992-5.391-.585-1.173-.755-2.442.233-3.261a4.321,4.321,0,0,1,2.974-.922c.742.094,1.514,1.062,2.009,1.816a6.961,6.961,0,0,0,9.434,2.484,7.206,7.206,0,0,0,3.292-9.251c-3.078-7.153-12.667-9.48-18.6-4.439C5.926,54.941,5,60.723,6.281,66.885A26.835,26.835,0,0,0,40.917,86.724C48.3,84.316,54.056,79.968,56.491,72.3c1.608-5.063.862-9.94-3.262-13.624-3.914-3.5-8.539-4.087-13.371-1.943-4.071,1.806-5.673,5.931-3.925,9.78,1.767,3.892,5.8,5.256,9.925,3.358,1.818-.837,3.4-.408,4.172,1.13.762,1.52.142,3.073-1.647,4.019a12.46,12.46,0,0,1-8.835,1.142c-4.253-.967-7.13-3.636-9.045-7.612" transform="translate(0 0)" fill="#00b8cc"/>
  </g>
</svg>
