<svg id="zero_hunger" data-name="zero hunger" xmlns="http://www.w3.org/2000/svg" xmlns:xlink="http://www.w3.org/1999/xlink" width="368" height="309" viewBox="0 0 368 309">
  <defs>
    <clipPath id="clip-path">
      <rect id="Rectangle_869" data-name="Rectangle 869" width="170.455" height="160.588" fill="#f7f7f7"/>
    </clipPath>
  </defs>
  <g id="Polygon_13" data-name="Polygon 13" fill="#d5aa50">
    <path d="M 275.7158203125 308.5 L 92.28418731689453 308.5 L 0.5819228291511536 154.5 L 92.28423309326172 0.5 L 275.7158203125 0.5 L 367.4180908203125 154.5 L 275.7158203125 308.5 Z" stroke="none"/>
    <path d="M 92.5684814453125 1 L 1.16387939453125 154.5 L 92.56842041015625 308 L 275.4315795898438 308 L 366.8361206054688 154.5 L 275.4315795898438 1 L 92.5684814453125 1 M 92.00003051757812 0 L 276 0 L 368 154.5 L 276 309 L 92 309 L 0 154.5 L 92.00003051757812 0 Z" stroke="none" fill="#fff"/>
  </g>
  <text id="Zero_Hunger-2" data-name="Zero Hunger" transform="translate(182 47)" fill="#f7f7f7" font-size="16" font-family="HelveticaNeue-Bold, Helvetica Neue" font-weight="700"><tspan x="-47.864" y="0">Zero Hunger</tspan></text>
  <g id="Group_178" data-name="Group 178" transform="translate(99 74)">
    <g id="Group_177" data-name="Group 177" clip-path="url(#clip-path)">
      <path id="Path_331" data-name="Path 331" d="M0,177.642,28,155.88a68.1,68.1,0,0,1-12.891-20.114A71.07,71.07,0,0,1,10,106.2c.019-.7.211-1.035.941-.97.33.029.665,0,1,0q67.486,0,134.971-.037c1.571,0,2,.326,2.018,1.964a73.152,73.152,0,0,1-2.924,22.57,20.54,20.54,0,0,1,6.553-2.112,16.106,16.106,0,0,1,16.159,8.813,15.684,15.684,0,0,1-2.812,18.288c-6.191,5.961-12.616,11.679-18.957,17.483q-15.894,14.548-31.794,29.09a3.573,3.573,0,0,1-2.646,1q-32.7-.041-65.405-.046a4.407,4.407,0,0,0-3.12,1.144c-5.756,4.957-11.558,9.861-17.344,14.782a2.5,2.5,0,0,1-1.727.82c-4.6-.04-9.209-.021-13.813-.028a3.715,3.715,0,0,1-.665-.179c3.663-3.122,7.177-6.123,10.7-9.119,6.5-5.533,13.026-11.044,19.5-16.613a3.559,3.559,0,0,1,2.576-.8q32.7.016,65.4.031a3.6,3.6,0,0,0,2.646-1.03q23.367-21.416,46.769-42.795c2.852-2.61,3.173-6.239.826-8.857s-6.032-2.723-8.9-.214q-19.025,16.66-38.021,33.352a4.115,4.115,0,0,1-2.967,1.126q-19.388-.06-38.777,0c-1.3.005-1.71-.312-1.641-1.636a62.616,62.616,0,0,0,0-6.652c-.076-1.41.241-1.865,1.775-1.85,8.875.087,17.752.005,26.628.077,1.561.012,1.706-.4,1.285-1.768a11.566,11.566,0,0,0-10.893-8.269c-10.706-.08-21.414-.093-32.119.015a25.327,25.327,0,0,0-15.613,5.748q-19.059,14.9-38.173,29.735c-.407.316-.716.984-1.442.688V177.642m132.784-42.159H26.011a58.987,58.987,0,0,0,9.256,13.491c.763.844,1.244.462,1.919.046a34.33,34.33,0,0,1,17.935-5.272c10.759-.1,21.521-.125,32.28,0a21.462,21.462,0,0,1,20.866,17.186c.084.385.066.853.514,1.183,3.956-3.467,7.819-6.958,11.8-10.311a51.2,51.2,0,0,0,11.533-14.67,2.954,2.954,0,0,0,.673-1.648M79.386,115.3H31.459c-3.328,0-6.657.032-9.985-.02-.974-.015-1.261.256-1.071,1.224.456,2.336.906,4.675,1.231,7.032.209,1.514.909,1.857,2.4,1.855q55.5-.074,111-.038a5.389,5.389,0,0,1,.831.006c.773.121,1.08-.269,1.241-.964.56-2.429.973-4.883,1.388-7.34.261-1.541-.252-1.792-1.693-1.788q-28.707.075-57.413.033" transform="translate(0 -58.405)" fill="#f7f7f7"/>
      <path id="Path_332" data-name="Path 332" d="M260.173,7.975c.345.259.574.413.782.591,2.022,1.727,4.024,3.477,6.07,5.177.591.491.684.816.141,1.445q-9.447,10.947-18.824,21.953c-.585.688-.894.509-1.425.043-2-1.754-4-3.512-6.055-5.192-.734-.6-.572-.951-.052-1.553q9.336-10.822,18.633-21.678c.234-.273.489-.527.729-.785" transform="translate(-133.454 -4.428)" fill="#f7f7f7"/>
      <path id="Path_333" data-name="Path 333" d="M67,7.985c.433.079.633.435.878.721Q77.241,19.6,86.606,30.5c.514.6.534.906-.1,1.426-1.973,1.609-3.931,3.242-5.8,4.969-.83.766-1.232.8-2-.112C73.229,30.313,67.69,23.9,62.182,17.47c-.862-1.007-2.472-2.187-2.323-3.041.185-1.061,1.83-1.877,2.862-2.779,1.208-1.055,2.437-2.09,3.656-3.133.21-.18.421-.358.626-.532" transform="translate(-33.229 -4.433)" fill="#f7f7f7"/>
      <path id="Path_334" data-name="Path 334" d="M177.46,15.237c0,4.43-.063,8.861.037,13.288.031,1.375-.43,1.637-1.67,1.591-2.433-.09-4.873-.062-7.308-.008-.862.019-1.12-.226-1.118-1.1q.046-13.953,0-27.907c0-.91.308-1.1,1.138-1.085,2.491.046,4.986.077,7.475-.01,1.145-.04,1.5.261,1.476,1.446-.072,4.6-.029,9.191-.029,13.787" transform="translate(-92.943 0)" fill="#f7f7f7"/>
    </g>
  </g>
</svg>
